<?xml version="1.0" encoding="UTF-8" standalone="no"?>
<!-- Created with Inkscape (http://www.inkscape.org/) -->

<svg
   xmlns:dc="http://purl.org/dc/elements/1.1/"
   xmlns:cc="http://creativecommons.org/ns#"
   xmlns:rdf="http://www.w3.org/1999/02/22-rdf-syntax-ns#"
   xmlns:svg="http://www.w3.org/2000/svg"
   xmlns="http://www.w3.org/2000/svg"
   xmlns:sodipodi="http://sodipodi.sourceforge.net/DTD/sodipodi-0.dtd"
   xmlns:inkscape="http://www.inkscape.org/namespaces/inkscape"
   id="svg2897"
   version="1.1"
   inkscape:version="0.92.4 (5da689c313, 2019-01-14)"
   width="1488.1875"
   height="1052.3625"
   xml:space="preserve"
   sodipodi:docname="Beech-Kingair.svg"
   inkscape:output_extension="org.inkscape.output.svg.inkscape"
   inkscape:export-filename="/Users/agodemar/Desktop/Agostino Grafica/Beech-Kingair.png"
   inkscape:export-xdpi="120"
   inkscape:export-ydpi="120"><metadata
     id="metadata2903"><rdf:RDF><cc:Work
         rdf:about=""><dc:format>image/svg+xml</dc:format><dc:type
           rdf:resource="http://purl.org/dc/dcmitype/StillImage" /><dc:title></dc:title></cc:Work></rdf:RDF></metadata><defs
     id="defs2901"><inkscape:perspective
       sodipodi:type="inkscape:persp3d"
       inkscape:vp_x="0 : 0.5 : 1"
       inkscape:vp_y="0 : 1000 : 0"
       inkscape:vp_z="1 : 0.5 : 1"
       inkscape:persp3d-origin="0.5 : 0.33333333 : 1"
       id="perspective2905" /><clipPath
       clipPathUnits="userSpaceOnUse"
       id="clipPath2913"><path
         d="m 0,841.89 1190.551,0 0,-841.89 L 0,0 0,841.89 z"
         id="path2915" /></clipPath><inkscape:perspective
       id="perspective6784"
       inkscape:persp3d-origin="0.5 : 0.33333333 : 1"
       inkscape:vp_z="1 : 0.5 : 1"
       inkscape:vp_y="0 : 1000 : 0"
       inkscape:vp_x="0 : 0.5 : 1"
       sodipodi:type="inkscape:persp3d" /><inkscape:perspective
       id="perspective6812"
       inkscape:persp3d-origin="0.5 : 0.33333333 : 1"
       inkscape:vp_z="1 : 0.5 : 1"
       inkscape:vp_y="0 : 1000 : 0"
       inkscape:vp_x="0 : 0.5 : 1"
       sodipodi:type="inkscape:persp3d" /><inkscape:perspective
       id="perspective6853"
       inkscape:persp3d-origin="0.5 : 0.33333333 : 1"
       inkscape:vp_z="1 : 0.5 : 1"
       inkscape:vp_y="0 : 1000 : 0"
       inkscape:vp_x="0 : 0.5 : 1"
       sodipodi:type="inkscape:persp3d" /><inkscape:perspective
       id="perspective6881"
       inkscape:persp3d-origin="0.5 : 0.33333333 : 1"
       inkscape:vp_z="1 : 0.5 : 1"
       inkscape:vp_y="0 : 1000 : 0"
       inkscape:vp_x="0 : 0.5 : 1"
       sodipodi:type="inkscape:persp3d" /></defs><sodipodi:namedview
     pagecolor="#ffffff"
     bordercolor="#666666"
     borderopacity="1"
     objecttolerance="10"
     gridtolerance="10"
     guidetolerance="10"
     inkscape:pageopacity="0"
     inkscape:pageshadow="2"
     inkscape:window-width="1270"
     inkscape:window-height="721"
     id="namedview2899"
     showgrid="false"
     inkscape:zoom="0.44946487"
     inkscape:cx="191.15623"
     inkscape:cy="529.56352"
     inkscape:window-x="0"
     inkscape:window-y="0"
     inkscape:window-maximized="0"
     inkscape:current-layer="layer1" /><g
     id="g2907"
     inkscape:groupmode="layer"
     inkscape:label="Beech-Kingair"
     transform="matrix(1.25,0,0,-1.25,0,1052.3625)"><g
       id="g3053"
       transform="translate(479,356)" /><g
       id="g3085"
       transform="translate(489,298)" /><g
       id="g3133"
       transform="translate(848,571)" /><g
       id="g3137"
       transform="translate(889.75,664.5)" /><g
       id="g3145"
       transform="translate(922,710)" /><g
       id="g3149"
       transform="translate(642.833,322.833)" /><g
       id="g3157"
       transform="translate(769,226)" /><g
       id="g3161"
       transform="translate(390.5,208.5)" /><g
       id="g3253"
       transform="translate(302.5,437.5)" /><g
       id="g3333"
       transform="translate(591,385)" /><g
       id="g3353"
       transform="translate(862.5,70.5)" /><g
       id="g3365"
       transform="translate(680,297.25)" /><g
       id="g3373"
       transform="translate(302.5,437.5)" /><g
       id="g3393"
       transform="translate(275,410)" /><g
       id="g3397"
       transform="translate(249,391)" /><g
       id="g3401"
       transform="translate(208,358)" /><g
       id="g3409"
       transform="translate(217.5,277)" /><g
       id="g3413"
       transform="translate(318.8999,291.9004)" /><g
       id="g3417"
       transform="translate(468,294)" /><g
       id="g3421"
       transform="translate(477.5,292.5)" /><g
       id="g3437"
       transform="translate(548,307)" /><g
       id="g3521"
       transform="translate(620.75,306)" /><g
       id="g3529"
       transform="translate(559,239)" /><g
       id="g3557"
       transform="translate(857,74)" /><g
       id="g3561"
       transform="translate(380.8335,246.833)" /><g
       id="g3565"
       transform="translate(365,234)"
       style="stroke:#00103f;stroke-opacity:1" /><g
       id="g3569"
       transform="translate(383,208)" /><g
       id="g3573"
       transform="translate(390.5,208.5)" /><g
       id="g3577"
       transform="translate(472,291)" /><g
       id="g3589"
       transform="translate(391,243)" /><g
       id="g3601"
       transform="translate(400.0713,208.0713)" /><g
       id="g3605"
       transform="translate(410,208)" /><g
       id="g3609"
       transform="translate(413,208)" /><g
       id="g3613"
       transform="translate(419,202.5)" /><g
       id="g3617"
       transform="translate(415,196)" /><g
       id="g3621"
       transform="translate(546.75,227)" /><g
       id="g3629"
       transform="translate(557.8335,236.167)" /><g
       id="g3657"
       transform="translate(557,243)" /><g
       id="g3661"
       transform="translate(400.5,270.5)" /><g
       id="g3665"
       transform="translate(380.8335,246.833)" /><g
       id="g3669"
       transform="translate(248.5,280)" /><g
       id="g3673"
       transform="translate(256,281.25)" /><g
       id="g3685"
       transform="translate(468,294)" /><g
       id="g3693"
       transform="translate(315.5,292)" /><g
       id="g3697"
       transform="translate(318.8999,291.9004)" /><g
       id="g3701"
       transform="translate(312.8335,291.167)" /><g
       id="g3705"
       transform="translate(259,282)" /><g
       id="g3713"
       transform="translate(259,283)" /><g
       id="g3721"
       transform="translate(400.5,270.5)" /><g
       id="g3761"
       transform="translate(400.0713,208.0713)" /><g
       id="g3765"
       transform="translate(403.8335,199.833)" /><g
       id="g3773"
       transform="translate(413,208)" /><g
       id="g3785"
       transform="translate(397.8335,203.833)" /><g
       id="g3793"
       transform="translate(388.1665,236.167)" /><g
       id="g3797"
       transform="translate(857,74)" /><g
       id="g4289"
       transform="translate(561,377)" /><g
       id="g4297"
       transform="translate(588,343)" /><g
       id="g4329"
       transform="translate(425.5,227)" /><g
       id="g4333"
       transform="translate(460.5,235.5)" /><g
       id="g4337"
       transform="translate(464,235)" /><g
       id="g4341"
       transform="translate(429.5,220.5)" /><g
       id="g4369"
       transform="translate(461,234)" /><g
       id="g4373"
       transform="translate(458,226)" /><g
       id="g4377"
       transform="translate(449,215.25)" /><g
       id="g4381"
       transform="translate(471,227)" /><g
       id="g4389"
       transform="translate(464,234.75)" /></g><g
     inkscape:groupmode="layer"
     id="layer1"
     inkscape:label="Livello-2"><g
       transform="matrix(1.25,0,0,-1.25,976.62166,327.87444)"
       id="g6887"
       style="stroke-width:4.80000019;stroke-miterlimit:4;stroke-dasharray:none" /><g
       id="g3165"
       transform="matrix(1.25,0,0,-1.25,478.75,792.3625)"
       style="stroke-width:4.80000019;stroke-miterlimit:4;stroke-dasharray:none"><path
         id="path3167"
         style="fill:none;stroke:#00103f;stroke-width:4.80000019;stroke-linecap:round;stroke-linejoin:miter;stroke-miterlimit:4;stroke-opacity:1;stroke-dasharray:none"
         d="M 7.5,-0.05803482 C 13.95222,-46.722296 23.369531,-70.635245 25.388829,-78.02851 c 0.486009,-1.779425 -0.989451,-3.291833 -3.620988,5.483924 C 17.97845,-59.907572 2.0727513,-12.048144 -0.78124875,0.89285571"
         sodipodi:nodetypes="cssc" /></g><g
       id="g3169"
       transform="matrix(1.25,0,0,-1.25,456.25,759.8625)"
       style="stroke-width:4.80000019;stroke-miterlimit:4;stroke-dasharray:none"><path
         style="fill:none;stroke:#00103f;stroke-width:4.80000019;stroke-linecap:round;stroke-linejoin:miter;stroke-miterlimit:4;stroke-opacity:1;stroke-dasharray:none"
         d="m 0,0 c -16.281245,9.4538965 -29.541179,15.996914 -41.125082,28.837402 -1.521369,1.686402 -4.974551,4.938036 -3.277874,6.882488 1.841502,2.110427 4.831903,2.376571 8.644742,1.238429 8.514623,-2.541636 16.950347,-8.583648 22.972696,-14.051255 C -6.7631692,17.439457 -2.1929763,11.088952 5.9553532,5.8169702"
         id="path3171"
         sodipodi:nodetypes="cssszc" /></g><g
       id="g3349"
       transform="matrix(1.25,0,0,-1.25,1073.125,955.4875)"
       style="stroke-width:3.2;stroke-miterlimit:4;stroke-dasharray:none"><path
         d="M -1.7857115,-3.4598159 C -1.4004577,3.212 3.3911793,6.9039434 7.7956816,9.1118557 12.672786,11.556677 17.874955,13.98023 20.82407,12.793607 24.857834,11.170558 17.89948,9.4847832 13.470118,6.6838847 8.9335428,3.8151905 5.0771497,2.4610921 4,-7"
         style="fill:none;stroke:#00103f;stroke-width:3.2;stroke-linecap:round;stroke-linejoin:miter;stroke-miterlimit:4;stroke-opacity:1;stroke-dasharray:none"
         id="path3351"
         sodipodi:nodetypes="csssc" /></g><path
       sodipodi:nodetypes="csc"
       id="path3359"
       style="fill:none;stroke:#00103f;stroke-width:4;stroke-linecap:round;stroke-linejoin:miter;stroke-miterlimit:4;stroke-opacity:1;stroke-dasharray:none"
       d="m 1088.75,968.6125 c -0.4153,-6.41088 1.3475,-11.56734 6.8588,-14.89337 10.802,-6.51888 24.4048,-6.93745 35.9481,-12.55082" /><path
       d="m 152.91797,258.38961 c -0.38716,-11.10848 32.31418,-9.52646 44.366,-11.42966"
       style="fill:none;stroke:#00103f;stroke-width:4;stroke-linecap:round;stroke-linejoin:miter;stroke-miterlimit:4;stroke-opacity:1;stroke-dasharray:none"
       id="path7065"
       sodipodi:nodetypes="cc" /><g
       id="g3429"
       transform="matrix(1.25,0,0,-1.25,643.125,676.1125)"
       style="stroke-width:4.80000019;stroke-miterlimit:4;stroke-dasharray:none"><path
         d="M 0,0 C -0.057,2.07 -0.846,2.802 -2,4.5"
         style="fill:none;stroke:#00103f;stroke-width:4.80000019;stroke-linecap:round;stroke-linejoin:miter;stroke-miterlimit:4;stroke-opacity:1;stroke-dasharray:none"
         id="path3431" /></g><g
       id="g3445"
       transform="matrix(1.103176,0,0,-1.084008,775.55976,667.51757)"
       style="stroke:#00103f;stroke-width:5.4867177;stroke-miterlimit:4;stroke-opacity:1;stroke-dasharray:none"><path
         d="M 0,0 C -4.365,2.489 -8.298,6.015 -13.545,6.637"
         style="fill:none;stroke:#00103f;stroke-width:5.4867177;stroke-linecap:round;stroke-linejoin:miter;stroke-miterlimit:4;stroke-opacity:1;stroke-dasharray:none"
         id="path3447" /></g><g
       id="g3581"
       transform="matrix(1.25,0,0,-1.25,521.59599,714.09799)"
       style="stroke-width:4.80000019;stroke-miterlimit:4;stroke-dasharray:none"><path
         id="path3583"
         style="fill:none;stroke:#00103f;stroke-width:4.80000019;stroke-linecap:round;stroke-linejoin:miter;stroke-miterlimit:4;stroke-opacity:1;stroke-dasharray:none"
         d="M 209.56386,25.536997 C 196.07333,33.823594 179.04988,32.705425 162.78203,33.39168 139.69869,34.365445 93.718348,30.330175 55.473895,20.496586 35.410471,15.337786 15.853985,6.3959179 3.3494775,0.52202483 -3.3352091,-2.6180536 -16.865033,-9.780311 -21.949744,-13.253022"
         sodipodi:nodetypes="csssc" /></g><g
       id="g3593"
       transform="matrix(1.25,0,0,-1.25,493.125,755.4875)"
       style="stroke-width:4.80000019;stroke-miterlimit:4;stroke-dasharray:none"><path
         id="path3595"
         style="fill:none;stroke:#00103f;stroke-width:4.80000019;stroke-linecap:round;stroke-linejoin:miter;stroke-miterlimit:4;stroke-opacity:1;stroke-dasharray:none"
         d="m -13.6665,9.333 c -0.125,0.038 -0.260213,0.170388 -0.376,0.112 -5.968213,-3.0096117 -11.491323,-8.2427808 -15.45725,-12.945 -1.401573,-1.6617808 -4.721895,-6.0212022 -6.25725,-8.717 -2.678645,-4.703202 -4.197946,-8.71764 0.909,-11.631 1.85882,-1.060401 5.051008,-1.635179 6.800689,-2.093344 7.322627,-1.917477 24.5370044,-2.9911 30.8494458,-3.672395 2.2352368,6.583916 2.8169655,13.44006 1.7280791,20.038346 C 3.8955811,-5.7297311 0.85514428,0.81106965 -3.236602,5.5803482"
         sodipodi:nodetypes="cssssscsc" /></g><g
       id="g3769"
       transform="matrix(1.25,0,0,-1.25,512.5,792.3625)"
       style="stroke-width:4.80000019;stroke-miterlimit:4;stroke-dasharray:none"><path
         id="path3771"
         style="fill:none;stroke:#00103f;stroke-width:3.2;stroke-linecap:round;stroke-linejoin:miter;stroke-miterlimit:4;stroke-opacity:1;stroke-dasharray:none"
         d="m -12.607267,0.01549652 c 2.288,2.12699998 9.3707803,4.46535338 12.48805008,0.08990473 C 2.7083295,-3.8633872 -0.88917911,-8.0598383 -5.8321791,-8.7808383"
         sodipodi:nodetypes="csc" /></g><g
       id="g3777"
       transform="matrix(1.25,0,0,-1.25,523.75,799.2375)"
       style="stroke-width:4.80000019;stroke-miterlimit:4;stroke-dasharray:none"><path
         id="path3779"
         style="fill:none;stroke:#00103f;stroke-width:3.2;stroke-linecap:round;stroke-linejoin:round;stroke-miterlimit:4;stroke-opacity:1;stroke-dasharray:none"
         d="m -4,-6.5 c 1.249,2.28 3.57423531,3.4822255 4.11160696,6.27678607 C 0.51723531,1.8862255 -0.05357214,4.9955373 -0.61160696,6.0837052 -3.4069222,5.7980792 -7.9134402,4.8748557 -9.8504402,6.3928557"
         sodipodi:nodetypes="cscc" /></g><g
       id="g3781"
       transform="matrix(1.25,0,0,-1.25,494.375,792.675)"
       style="stroke-width:4.80000019;stroke-miterlimit:4;stroke-dasharray:none"><path
         id="path3783"
         style="fill:none;stroke:#00103f;stroke-width:4.80000019;stroke-linecap:round;stroke-linejoin:miter;stroke-miterlimit:4;stroke-opacity:1;stroke-dasharray:none"
         d="m 19.5005,-11.75 c -3.834,-0.013 -8.567512,0.884228 -11.7118968,3.3218434 -1.1857052,0.919192 -6.1144987,6.7145496 -6.1144987,8.31654964 M 19.5,-11.75 c 18.503671,-5.602711 42.868266,-0.61337 66.893395,7.1569786 24.025135,7.7703487 65.863865,25.3001434 84.588035,32.7154934"
         sodipodi:nodetypes="csccsc" /></g><g
       id="g3789"
       transform="matrix(1.25,0,0,-1.25,488.75,748.6125)"
       style="stroke-width:4.80000019;stroke-miterlimit:4;stroke-dasharray:none"><path
         id="path3791"
         style="fill:none;stroke:#00103f;stroke-width:4.80000019;stroke-linecap:round;stroke-linejoin:round;stroke-miterlimit:4;stroke-opacity:1;stroke-dasharray:none"
         d="m -2.8335,-6.833 c -2.137,-2.609 -5.679,-3.925 -8.942,-2.882 0.052,0.537 -0.723,1.908 -0.116,3.256 1.373,3.048 1.976,6.677 1.765461,10.7460197 C -7.7070713,15.51347 -4.57,27.469551 -1.731839,35.93836 1.1063228,44.407169 6.0300764,61.31022 10.069775,53.379379 14.109473,45.448539 -0.1373122,-0.044833 -0.1373122,-0.044833 c 0,0 -4.0812744,-2.7056147 -2.6956878,-6.788167"
         sodipodi:nodetypes="ccscsscc" /></g><g
       id="g4349"
       transform="matrix(1.25,0,0,-1.25,531.875,768.6125)"
       style="stroke:#00103f;stroke-width:4.80000019;stroke-miterlimit:4;stroke-opacity:1;stroke-dasharray:none"><path
         d="M 0,0 C 2.515,0.033 5.281,1.491 6.701,0.195 9.185,-2.073 6.961,-4.529 4,-6.5"
         style="fill:none;stroke:#00103f;stroke-width:2.4;stroke-linecap:round;stroke-linejoin:miter;stroke-miterlimit:4;stroke-opacity:1;stroke-dasharray:none"
         id="path4351" /></g><g
       id="g4353"
       transform="matrix(1.25,0,0,-1.25,531.875,768.6125)"
       style="stroke:#00103f;stroke-width:4.80000019;stroke-miterlimit:4;stroke-opacity:1;stroke-dasharray:none"><path
         id="path4355"
         style="fill:none;stroke:#00103f;stroke-width:4.80000019;stroke-linecap:round;stroke-linejoin:miter;stroke-miterlimit:4;stroke-opacity:1;stroke-dasharray:none"
         d="M 44.233411,10.709705 C 32.495197,8.3459015 22.449377,7.8194263 17.684016,9.7774263 15.122784,10.82979 10.962,11.791 7.393,10.794 3.309,9.652 0.376,8.117 0,0 -1.357,-2.596 0.817,-6.69 3.7632459,-6.539459 4.8190165,-9.0605247 8.4431886,-10.19625 10.549607,-10.291 c 6.53905,-0.294138 10.226895,-2.164153 16.107115,-2.958443"
         sodipodi:nodetypes="cssccsc" /></g><g
       id="g4393"
       transform="matrix(1.25,0,0,-1.25,567.29187,767.15375)"
       style="stroke:#00103f;stroke-width:4.80000019;stroke-miterlimit:4;stroke-opacity:1;stroke-dasharray:none"><path
         id="path4395"
         style="fill:none;stroke:#00103f;stroke-width:4.80000019;stroke-linecap:round;stroke-linejoin:miter;stroke-miterlimit:4;stroke-opacity:1;stroke-dasharray:none"
         d="m 14.215385,-2.1983034 c 3.173963,2.3417305 7.23446,6.7537139 6.924066,10.3340083 C 20.838993,11.601383 12.18433,8.733613 9.1005492,7.2405575 6.1199345,5.797451 1.3048486,2.63584 -1.0261845,0.78918041 -3.6736514,-1.30816 -8.9134263,-7.9920192 -4.872709,-12.756566 c 2.1628515,-2.550291 6.1101205,-1.613902 7.9365368,-0.887123 3.0308845,1.20607 4.6927017,6.6800812 11.1515572,11.4453856 z"
         sodipodi:nodetypes="cssssss" /></g><g
       id="g4397"
       transform="matrix(1.25,0,0,-1.25,561.25,779.44625)"
       style="stroke:#00103f;stroke-width:4.80000019;stroke-miterlimit:4;stroke-opacity:1;stroke-dasharray:none"><path
         id="path4399"
         style="fill:none;stroke:#00103f;stroke-width:2.4;stroke-linecap:round;stroke-linejoin:miter;stroke-miterlimit:4;stroke-opacity:1;stroke-dasharray:none"
         d="M 14.526492,17.20618 C 11.970606,12.293164 8.7719753,10.439246 7.5066229,7.2323936 6.2412706,4.0255412 2.4158196,-0.43716392 -0.78918041,0.15783608"
         sodipodi:nodetypes="csc" /></g><g
       id="g4409"
       transform="matrix(1.25,0,0,-1.25,1106.875,909.2375)"
       style="stroke-width:3.2;stroke-miterlimit:4;stroke-dasharray:none"><path
         d="M -215.17823,175.89258 29,-21"
         style="fill:none;stroke:#00103f;stroke-width:3.2;stroke-linecap:round;stroke-linejoin:miter;stroke-miterlimit:4;stroke-opacity:1;stroke-dasharray:none"
         id="path4411"
         sodipodi:nodetypes="cc" /><path
         sodipodi:nodetypes="cc"
         id="path7057"
         style="fill:none;stroke:#00103f;stroke-width:3.2;stroke-linecap:round;stroke-linejoin:miter;stroke-miterlimit:4;stroke-opacity:1;stroke-dasharray:none"
         d="M -215.17823,175.89258 29,-21" /></g><path
       sodipodi:nodetypes="cscccccscccccc"
       d="m 1088.0595,968.21791 c 21.5336,15.69991 44.5551,-0.22429 61.1835,-10.95311 4.822,-3.1112 14.6668,-9.07211 24.2263,-14.75406 C 1100.7802,883.95979 922.17981,738.74659 851.8662,680.36228 848.88473,678.53263 716.835,597.045 716.5625,594.81875 c 2.6925,-9.70125 9.97248,-15.89039 18.50373,-20.87789 m 48.55927,115.29872 c -41.20204,12.54987 -65.38807,25.44968 -82.78418,37.50816 -9.75807,6.76401 -20.40209,19.2247 -16.1082,27.22976 1.95563,0.59 15.84059,-4.01745 30.14371,4.1198 l 355.55047,202.32922 c 0.4009,3.78777 4.3502,4.49723 7.6977,3.81098 m 0,0 c 3.4113,1.655 6.79,3.575 10.625,4.375"
       style="fill:none;stroke:#00103f;stroke-width:6;stroke-linecap:round;stroke-linejoin:round;stroke-miterlimit:4;stroke-opacity:1;stroke-dasharray:none"
       id="path3815" /><g
       id="g3369"
       transform="matrix(1.25,0,0,-1.25,830.9375,684.8625)"
       style="stroke-width:3.2;stroke-miterlimit:4;stroke-dasharray:none"><path
         id="path3371"
         style="fill:none;stroke:#00103f;stroke-width:3.2;stroke-linecap:round;stroke-linejoin:round;stroke-miterlimit:4;stroke-opacity:1;stroke-dasharray:none"
         d="M 15.25,3.25 -1.5071766,0.19889303 -100.18116,60.969252 l 16.372859,2.565901"
         sodipodi:nodetypes="cccc" /></g><path
       sodipodi:nodetypes="csssc"
       d="m 596.65175,630.38702 c 82.19513,-27.45675 97.73245,-39.32367 134.25315,-54.36681 79.6122,-32.79288 204.00875,-120.92508 305.9527,-207.44449 8.1617,-6.92686 28.1795,-19.38758 25.3473,-27.87184 -0.314,-0.94074 -1.7114,-1.18189 -2.5364,-1.60689"
       style="fill:none;stroke:#00103f;stroke-width:6;stroke-linecap:round;stroke-linejoin:miter;stroke-miterlimit:4;stroke-opacity:1;stroke-dasharray:none"
       id="path3131" /><path
       id="path6952"
       style="fill:none;stroke:#00103f;stroke-width:6;stroke-linecap:round;stroke-linejoin:miter;stroke-miterlimit:4;stroke-opacity:1;stroke-dasharray:none"
       d="m 1010.7504,352.65536 76.9807,-138.28923"
       sodipodi:nodetypes="cs" /><path
       transform="matrix(1.25,0,0,-1.25,0,1052.3625)"
       sodipodi:nodetypes="ccscc"
       d="m 922.89286,710.44643 c 58.91077,-28.53817 102.38494,-48.02066 160.92654,-77.09397 -7.5405,-3.41555 -16.6085,-6.41345 -23.6284,-8.53846 -8.5958,-2.60207 -18.549,-2.34172 -28.0187,-0.2778 l -196.50755,57.71894"
       style="fill:none;stroke:#00103f;stroke-width:4.80000019;stroke-linecap:round;stroke-linejoin:round;stroke-miterlimit:4;stroke-opacity:1;stroke-dasharray:none"
       id="path6818" /><g
       id="g3853"
       transform="matrix(1.25,0,0,-1.25,1060,338.6125)"
       style="stroke-width:4.80000019;stroke-miterlimit:4;stroke-dasharray:none"><path
         id="path3855"
         style="fill:none;stroke:#00103f;stroke-width:4.80000019000000044;stroke-linecap:round;stroke-linejoin:round;stroke-miterlimit:4;stroke-opacity:1;stroke-dasharray:none"
         d="m -27.015892,108.42691 c 0.592053,-4.42143 -0.752758,-6.11533 -4.882156,-11.597423 L -93.488343,15.063652 -221.67793,-45.218114 -120.856,-22.077648 c 7.51433,-8.854931 57.052215,3.739154 80.906098,9.835981 L 0,0 45.013016,93.352536 M -392.11126,-239.80849 c -36.62572,-11.74645 -81.49704,-25.94602 -110.39529,-33.53511 -28.89824,-7.58909 -53.90681,-11.26843 -71.93523,-14.30248 -18.02841,-3.03405 -38.52874,-5.86272 -57.91315,-6.75595 -19.3844,-0.89324 -40.55408,-1.00641 -49.35319,1.09606 -8.58007,2.05014 -20.57998,9.85411 -12.26977,23.92618 8.31021,14.07207 28.86442,36.24179 43.36758,48.31241 14.50316,12.07062 24.61418,20.43324 38.06206,29.72933 13.44788,9.29608 25.79974,20.98622 39.54825,30.33805 l 27.5,27.5 c 3.2139,5.36246 9.36072,8.65681 14.72504,11.34986 6.809,3.41832 19.5785,7.8382 26.98434,10.10973 26.12247,8.01235 83.81375,26.923416 160.07789,49.441682 49.79962,14.704171 93.15488,25.391904 168.50076,39.754019 M -376.10824,-279.83329 c -9.8652,6.2759 -27.63018,17.6034 -35.68486,22.03769 -8.05468,4.43429 -8.87463,7.43327 -22.25445,4.74407"
         sodipodi:nodetypes="cccccccccsssssssccsssccsc" /><path
         sodipodi:nodetypes="cc"
         d="M -99.797276,7.5445559 -120.8326,-20.530224"
         style="fill:none;stroke:#00103f;stroke-width:3.2;stroke-linecap:round;stroke-linejoin:miter;stroke-miterlimit:4;stroke-opacity:1;stroke-dasharray:none"
         id="path7084" /></g><path
       transform="matrix(1.25,0,0,-1.25,0,1052.3625)"
       id="path6828"
       style="fill:none;stroke:#00103f;stroke-width:4.80000019;stroke-linecap:round;stroke-linejoin:round;stroke-miterlimit:4;stroke-opacity:1;stroke-dasharray:none"
       d="m 922.63868,710.80745 c 4.02181,2.38342 3.32226,2.58222 6.56771,5.59512 3.1054,2.88289 8.04772,6.13984 6.28783,8.42046 -2.12911,2.75907 -48.61933,-2.0576 -74.85371,-10.8952 -24.56759,-8.2761 -53.17962,-15.50903 -61.1606,-32.0643 -2.52442,-5.2365 17.26182,-3.94111 35.49009,0.42325 -3.20027,7.26614 81.24642,30.63307 87.66868,28.52067 z"
       sodipodi:nodetypes="csssscc" /><path
       transform="matrix(1.25,0,0,-1.25,378.125,505.4875)"
       d="M 0,-0.89285572 16.57498,-15.035589 -9.1959402,-43.49228 -27.824015,-28.645468"
       style="fill:none;stroke:#00103f;stroke-width:3.2;stroke-linecap:round;stroke-linejoin:round;stroke-miterlimit:4;stroke-opacity:1;stroke-dasharray:none"
       id="path3375"
       sodipodi:nodetypes="cccc" /><path
       sodipodi:nodetypes="ccccc"
       id="path6946"
       style="fill:none;stroke:#00103f;stroke-width:4;stroke-linecap:round;stroke-linejoin:round;stroke-miterlimit:4;stroke-opacity:1;stroke-dasharray:none"
       d="m 373.29077,565.24353 31.09758,-33.89676 41.60931,31.71863 -28.58642,39.1981 -44.12047,-37.01997 z" /><path
       d="m 433.00049,607.09615 20.2159,-33.89677 5.61607,24.46419 -25.83197,9.43258 z"
       style="fill:none;stroke:#00103f;stroke-width:4;stroke-linecap:round;stroke-linejoin:round;stroke-miterlimit:4;stroke-opacity:1;stroke-dasharray:none"
       id="path6948"
       sodipodi:nodetypes="cccc" /><path
       d="m 472.62097,593.98232 -4.33764,-25.80525 c 0,0 12.51083,-5.84676 17.61382,-2.87953 7.41075,4.30913 12.12627,19.55865 4.05862,22.45705 l -17.3348,6.22773 z"
       style="fill:none;stroke:#00103f;stroke-width:4;stroke-linecap:round;stroke-linejoin:round;stroke-miterlimit:4;stroke-opacity:1;stroke-dasharray:none"
       id="path6950"
       sodipodi:nodetypes="ccssc" /><path
       sodipodi:nodetypes="cssss"
       id="path6954"
       style="fill:none;stroke:#00103f;stroke-width:4;stroke-linecap:round;stroke-linejoin:round;stroke-miterlimit:4;stroke-opacity:1;stroke-dasharray:none"
       d="m 546.79994,566.22759 c -5.94882,-4.40707 -8.42143,-18.71487 -3.94305,-26.19984 3.03078,-5.06551 12.0009,-7.00037 16.38218,-3.69675 4.38128,3.30362 8.23869,16.71841 4.89567,23.66886 -2.66131,5.5331 -12.40129,9.88263 -17.3348,6.22773 z" /><path
       d="m 581.81983,553.99529 c -5.94882,-4.40707 -8.42143,-18.71487 -3.94305,-26.19984 3.03078,-5.06551 12.0009,-7.00037 16.38218,-3.69675 4.38128,3.30362 8.23869,16.71841 4.89567,23.66886 -2.66131,5.5331 -12.40129,9.88263 -17.3348,6.22773 z"
       style="fill:none;stroke:#00103f;stroke-width:4;stroke-linecap:round;stroke-linejoin:round;stroke-miterlimit:4;stroke-opacity:1;stroke-dasharray:none"
       id="path6956"
       sodipodi:nodetypes="cssss" /><path
       sodipodi:nodetypes="cssss"
       id="path6958"
       style="fill:none;stroke:#00103f;stroke-width:4;stroke-linecap:round;stroke-linejoin:round;stroke-miterlimit:4;stroke-opacity:1;stroke-dasharray:none"
       d="m 616.83966,542.55217 c -5.94882,-4.40707 -8.42143,-18.71487 -3.94305,-26.19984 3.03078,-5.06551 12.0009,-7.00037 16.38218,-3.69675 4.38128,3.30362 8.23869,16.71841 4.89567,23.66886 -2.66131,5.5331 -12.40129,9.88263 -17.3348,6.22773 z" /><path
       d="m 651.85958,530.31987 c -5.94882,-4.40707 -8.42143,-18.71487 -3.94305,-26.19984 3.03078,-5.06551 12.0009,-7.00037 16.38218,-3.69675 4.38128,3.30362 8.23869,16.71841 4.89567,23.66886 -2.66131,5.5331 -12.40129,9.88263 -17.3348,6.22773 z"
       style="fill:none;stroke:#00103f;stroke-width:4;stroke-linecap:round;stroke-linejoin:round;stroke-miterlimit:4;stroke-opacity:1;stroke-dasharray:none"
       id="path6960"
       sodipodi:nodetypes="cssss" /><path
       sodipodi:nodetypes="cssss"
       id="path6962"
       style="fill:none;stroke:#00103f;stroke-width:4;stroke-linecap:round;stroke-linejoin:round;stroke-miterlimit:4;stroke-opacity:1;stroke-dasharray:none"
       d="m 687.15849,516.83609 c -5.94882,-4.40707 -8.42143,-18.71487 -3.94305,-26.19984 3.03078,-5.06551 12.0009,-7.00037 16.38218,-3.69675 4.38128,3.30362 8.23869,16.71841 4.89567,23.66886 -2.66131,5.5331 -12.40129,9.88263 -17.3348,6.22773 z" /><path
       d="m 804.74039,476.33069 c -3.58128,-2.43412 -4.47553,-10.03388 -2.36469,-15.15131 2.25089,-5.45697 12.73665,-9.37775 16.77548,-5.66327 3.5921,3.30362 5.52091,10.81137 3.71062,14.98401 -1.80018,4.14934 -13.04344,9.28196 -18.12141,5.83057 z"
       style="fill:none;stroke:#00103f;stroke-width:4;stroke-linecap:round;stroke-linejoin:round;stroke-miterlimit:4;stroke-opacity:1;stroke-dasharray:none"
       id="path6974"
       sodipodi:nodetypes="cssss" /><path
       sodipodi:nodetypes="ccssc"
       d="m 781.5226,540.35724 -35.9713,18.07813 c 3.89911,-44.93483 -2.96067,-73.13154 2.22337,-83.83829 3.28521,-6.78505 24.32285,-15.59105 29.48489,-9.95964 3.49974,3.81796 7.67915,40.55274 4.26304,75.7198 z"
       style="fill:none;stroke:#00103f;stroke-width:4;stroke-linecap:round;stroke-linejoin:round;stroke-miterlimit:4;stroke-opacity:1;stroke-dasharray:none"
       id="path6976" /><path
       d="m 195.02322,528.81131 c 4.48384,9.70779 10.03587,13.07313 15.80162,16.44088 10.76851,6.28984 57.71918,3.05286 80.5445,-3.32304 l 68.75155,-19.20468"
       style="fill:none;stroke:#00103f;stroke-width:6;stroke-linecap:round;stroke-linejoin:round;stroke-miterlimit:4;stroke-opacity:1;stroke-dasharray:none"
       id="path6978"
       sodipodi:nodetypes="cssc" /><g
       style="stroke-width:4.80000019;stroke-miterlimit:4;stroke-dasharray:none"
       transform="matrix(0.92918627,0.03254547,0.0327095,-0.92452657,182.92528,528.43687)"
       id="g6980"><path
         sodipodi:nodetypes="cssc"
         d="M 7.5,-0.05803482 C 13.95222,-46.722296 23.369531,-70.635245 25.388829,-78.02851 c 0.486009,-1.779425 -0.989451,-3.291833 -3.620988,5.483924 C 17.97845,-59.907572 2.0727513,-12.048144 -0.78124875,0.89285571"
         style="fill:none;stroke:#00103f;stroke-width:6.46950775;stroke-linecap:round;stroke-linejoin:miter;stroke-miterlimit:4;stroke-opacity:1;stroke-dasharray:none"
         id="path6982" /></g><g
       style="stroke-width:4.80000019;stroke-miterlimit:4;stroke-dasharray:none"
       transform="matrix(0.83955849,0,0,-0.81426526,162.7265,498.96726)"
       id="g6984"><path
         sodipodi:nodetypes="cssszc"
         id="path6986"
         d="m 0,0 c -16.281245,9.4538965 -29.541179,15.996914 -41.125082,28.837402 -1.521369,1.686402 -4.974551,4.938036 -3.277874,6.882488 1.841502,2.110427 4.831903,2.376571 8.644742,1.238429 8.514623,-2.541636 16.950347,-8.583648 22.972696,-14.051255 C -6.7631692,17.439457 -2.1929763,11.088952 5.9553532,5.8169702"
         style="fill:none;stroke:#00103f;stroke-width:7.25676097;stroke-linecap:round;stroke-linejoin:miter;stroke-miterlimit:4;stroke-opacity:1;stroke-dasharray:none" /></g><g
       style="stroke-width:4.80000019;stroke-miterlimit:4;stroke-dasharray:none"
       transform="matrix(1.13491,0,0,-1.0262263,193.87818,497.17803)"
       id="g6988"><path
         sodipodi:nodetypes="cssssscsc"
         d="m -13.6665,9.333 c -0.125,0.038 -0.260213,0.170388 -0.376,0.112 -5.968213,-3.0096117 -11.491323,-8.2427808 -15.45725,-12.945 -1.401573,-1.6617808 -4.721895,-6.0212022 -6.25725,-8.717 -2.678645,-4.703202 -4.197946,-8.71764 0.909,-11.631 1.85882,-1.060401 5.051008,-1.635179 6.800689,-2.093344 7.322627,-1.917477 24.5370044,-2.9911 30.8494458,-3.672395 2.2352368,6.583916 2.8169655,13.44006 1.7280791,20.038346 C 3.8955811,-5.7297311 0.85514428,0.81106965 -3.236602,5.5803482"
         style="fill:none;stroke:#00103f;stroke-width:5.55966942;stroke-linecap:round;stroke-linejoin:miter;stroke-miterlimit:4;stroke-opacity:1;stroke-dasharray:none"
         id="path6990" /></g><g
       style="stroke-width:4.80000019;stroke-miterlimit:4;stroke-dasharray:none"
       transform="matrix(0.92733764,0,0,-1.0309536,207.17285,529.72418)"
       id="g6992"><path
         sodipodi:nodetypes="csc"
         d="m -12.607267,0.01549652 c 2.288,2.12699998 9.3707803,4.46535338 12.48805008,0.08990473 C 2.7083295,-3.8633872 -0.88917911,-8.0598383 -5.8321791,-8.7808383"
         style="fill:none;stroke:#00103f;stroke-width:4.09092472;stroke-linecap:round;stroke-linejoin:miter;stroke-miterlimit:4;stroke-opacity:1;stroke-dasharray:none"
         id="path6994" /></g><g
       style="stroke-width:4.80000019;stroke-miterlimit:4;stroke-dasharray:none"
       transform="matrix(1.0797131,0,0,-1.1325384,190.5114,489.31655)"
       id="g7000"><path
         sodipodi:nodetypes="ccscsscc"
         d="m -2.8335,-6.833 c -2.137,-2.609 -5.679,-3.925 -8.942,-2.882 0.052,0.537 -0.723,1.908 -0.116,3.256 1.373,3.048 1.976,6.677 1.765461,10.7460197 C -7.7070713,15.51347 -4.57,27.469551 -1.731839,35.93836 1.1063228,44.407169 6.0300764,61.31022 10.069775,53.379379 14.109473,45.448539 -0.1373122,-0.044833 -0.1373122,-0.044833 c 0,0 -4.0812744,-2.7056147 -2.6956878,-6.788167"
         style="fill:none;stroke:#00103f;stroke-width:5.42588515;stroke-linecap:round;stroke-linejoin:round;stroke-miterlimit:4;stroke-opacity:1;stroke-dasharray:none"
         id="path7002" /></g><g
       style="stroke:#00103f;stroke-width:4.80000019;stroke-miterlimit:4;stroke-opacity:1;stroke-dasharray:none"
       transform="matrix(1.1195182,0.10203107,0.09944665,-1.0911612,227.24487,511.36093)"
       id="g7024"><path
         id="path7026"
         style="fill:none;stroke:#00103f;stroke-width:3.60415729;stroke-linecap:round;stroke-linejoin:miter;stroke-miterlimit:4;stroke-opacity:1;stroke-dasharray:none"
         d="M 0,0 C 2.515,0.033 5.281,1.491 6.701,0.195 9.185,-2.073 6.961,-4.529 4,-6.5" /></g><g
       style="stroke:#00103f;stroke-width:4.80000019;stroke-miterlimit:4;stroke-opacity:1;stroke-dasharray:none"
       transform="matrix(1.1195182,0.10203107,0.09944665,-1.0911612,227.24487,511.36093)"
       id="g7028"><path
         sodipodi:nodetypes="cssccsc"
         d="M 44.233411,10.709705 C 32.495197,8.3459015 22.449377,7.8194263 17.684016,9.7774263 15.122784,10.82979 10.962,11.791 7.393,10.794 3.309,9.652 0.376,8.117 0,0 -1.357,-2.596 0.817,-6.69 3.7632459,-6.539459 4.8190165,-9.0605247 8.4431886,-10.19625 10.549607,-10.291 c 6.53905,-0.294138 10.226895,-2.164153 16.107115,-2.958443"
         style="fill:none;stroke:#00103f;stroke-width:4.80000019;stroke-linecap:round;stroke-linejoin:miter;stroke-miterlimit:4;stroke-opacity:1;stroke-dasharray:none"
         id="path7030" /></g><g
       style="stroke:#00103f;stroke-width:4.80000019;stroke-miterlimit:4;stroke-opacity:1;stroke-dasharray:none"
       transform="matrix(1.1195182,0.10203107,0.09944665,-1.0911612,259.08079,512.97845)"
       id="g7032"><path
         sodipodi:nodetypes="cssssss"
         d="m 14.215385,-2.1983034 c 3.173963,2.3417305 7.23446,6.7537139 6.924066,10.3340083 C 20.838993,11.601383 12.18433,8.733613 9.1005492,7.2405575 6.1199345,5.797451 1.3048486,2.63584 -1.0261845,0.78918041 -3.6736514,-1.30816 -8.9134263,-7.9920192 -4.872709,-12.756566 c 2.1628515,-2.550291 6.1101205,-1.613902 7.9365368,-0.887123 3.0308845,1.20607 4.6927017,6.6800812 11.1515572,11.4453856 z"
         style="fill:none;stroke:#00103f;stroke-width:4.80000019;stroke-linecap:round;stroke-linejoin:miter;stroke-miterlimit:4;stroke-opacity:1;stroke-dasharray:none"
         id="path7034" /></g><g
       style="stroke:#00103f;stroke-width:4.80000019;stroke-miterlimit:4;stroke-opacity:1;stroke-dasharray:none"
       transform="matrix(1.1195182,0.10203107,0.09944665,-1.0911612,252.69164,523.21576)"
       id="g7036"><path
         sodipodi:nodetypes="csc"
         d="M 14.526492,17.20618 C 11.970606,12.293164 8.7719753,10.439246 7.5066229,7.2323936 6.2412706,4.0255412 2.4158196,-0.43716392 -0.78918041,0.15783608"
         style="fill:none;stroke:#00103f;stroke-width:3.60415729;stroke-linecap:round;stroke-linejoin:miter;stroke-miterlimit:4;stroke-opacity:1;stroke-dasharray:none"
         id="path7038" /></g><g
       style="stroke-width:4.80000019;stroke-miterlimit:4;stroke-dasharray:none"
       transform="matrix(1.248057,0.06966935,0.06966935,-1.248057,225.09667,461.72599)"
       id="g7040"><path
         sodipodi:nodetypes="csssc"
         d="m 181.6865,30.656158 c -2.90219,3.262081 -21.43891,3.834283 -29.54443,3.406162 C 127.23399,32.746711 96.545741,30.488007 58.301288,20.654417 38.237864,15.495618 15.853985,6.3959179 3.3494775,0.52202483 -3.3352091,-2.6180536 -16.865033,-9.780311 -21.949744,-13.253022"
         style="fill:none;stroke:#00103f;stroke-width:4.80000019;stroke-linecap:round;stroke-linejoin:miter;stroke-miterlimit:4;stroke-opacity:1;stroke-dasharray:none"
         id="path7042" /></g><g
       id="g7044"
       transform="matrix(1.248057,0.06966935,0.06966935,-1.248057,269.59403,482.86224)"
       style="stroke-width:4.80000019;stroke-miterlimit:4;stroke-dasharray:none"><path
         id="path7046"
         style="fill:none;stroke:#00103f;stroke-width:4.80000019;stroke-linecap:round;stroke-linejoin:miter;stroke-miterlimit:4;stroke-opacity:1;stroke-dasharray:none"
         d="M 143.16487,36.81139 C 121.73462,29.6522 102.50975,17.445852 85.519234,1.9575886 80.613345,-2.5145355 79.267827,-10.086365 87.395152,-13.136684"
         sodipodi:nodetypes="csc" /><path
         sodipodi:nodetypes="cccc"
         d="m 187.86587,34.404371 -30.21429,24.614101 -55.99039,30.276299 13.6712,3.859654"
         style="fill:none;stroke:#00103f;stroke-width:3.1999999;stroke-linecap:round;stroke-linejoin:round;stroke-miterlimit:4;stroke-opacity:1;stroke-dasharray:none"
         id="path7053" /></g><path
       transform="matrix(1.25,0,0,-1.25,0,1052.3625)"
       sodipodi:nodetypes="ccc"
       id="path3851"
       style="fill:none;stroke:#00103f;stroke-width:4;stroke-linecap:round;stroke-linejoin:round;stroke-miterlimit:4;stroke-opacity:1;stroke-dasharray:none"
       d="m 802,524.25 27.43,11.32 9.43866,18.82515" /><g
       style="stroke-width:4.80000019;stroke-miterlimit:4;stroke-dasharray:none"
       transform="matrix(-0.47297651,-1.1570623,1.1570623,-0.47297651,711.32737,497.74081)"
       id="g7049"><path
         sodipodi:nodetypes="ccsscss"
         d="m 166.4947,-274.34915 c 3.84549,1.46822 12.58821,0.30821 18.73296,-2.36468 25.25786,-9.15256 151.1451,-62.40136 154.401,-63.61865 20.28299,-7.58325 23.22682,-2.69259 20.14292,9.38953 -1.13539,4.44824 -7.20116,24.68988 -9.99614,34.82436 l -211.37892,148.77746 c -9.87616,6.95126 -29.39351,19.14805 -45.259671,24.32285"
         style="fill:none;stroke:#00103f;stroke-width:4.80000019;stroke-linecap:round;stroke-linejoin:round;stroke-miterlimit:4;stroke-opacity:1;stroke-dasharray:none"
         id="path7051" /></g><path
       id="path7055"
       style="fill:none;stroke:#00103f;stroke-width:6;stroke-linecap:round;stroke-linejoin:round;stroke-miterlimit:4;stroke-opacity:1;stroke-dasharray:none"
       d="M 1123.2305,148.04488 976.59743,59.562861 c -13.24719,1.806435 -42.85724,10.267406 -34.24217,19.573741 l 82.25114,96.500038"
       sodipodi:nodetypes="cccc" /><g
       style="stroke-width:4.80000019;stroke-miterlimit:4;stroke-dasharray:none"
       transform="matrix(1.25,0,0,-1.25,473.93048,467.0071)"
       id="g7059"><path
         d="M -203.45622,177.91077 -216.16889,176.53733 -64.134578,75.910304"
         style="fill:none;stroke:#00103f;stroke-width:3.2;stroke-linecap:round;stroke-linejoin:round;stroke-miterlimit:4;stroke-opacity:1;stroke-dasharray:none"
         id="path7063"
         sodipodi:nodetypes="ccc" /></g><path
       sodipodi:nodetypes="cccs"
       d="m 1328.1096,271.5613 c -0.4419,-7.32492 -12.9429,-11.29014 -19.6049,-14.08275 l 7.1554,-1.99127 -191.2678,-84.11476"
       style="fill:none;stroke:#00103f;stroke-width:4;stroke-linecap:round;stroke-linejoin:round;stroke-miterlimit:4;stroke-opacity:1;stroke-dasharray:none"
       id="path7076" /><path
       style="fill:none;stroke:#00103f;stroke-width:4;stroke-linecap:round;stroke-linejoin:round;stroke-opacity:1;stroke-miterlimit:4;stroke-dasharray:none"
       d="m 1284.9268,269.29268 c -1.6715,-7.27614 8.5052,-8.89852 18.8541,-10.61923"
       id="path7078"
       sodipodi:nodetypes="cs" /><path
       id="path7080"
       style="fill:none;stroke:#00103f;stroke-width:4;stroke-linecap:round;stroke-linejoin:round;stroke-miterlimit:4;stroke-opacity:1;stroke-dasharray:none"
       d="m 963.82488,63.494375 12.52541,9.756398 3.46383,-0.761863 117.46548,78.92952"
       sodipodi:nodetypes="cccs" /><path
       sodipodi:nodetypes="cs"
       id="path7082"
       d="m 949.29177,87.634327 c -0.29493,-7.866097 11.84829,-9.68513 20.82063,-12.389102"
       style="fill:none;stroke:#00103f;stroke-width:4;stroke-linecap:round;stroke-linejoin:round;stroke-miterlimit:4;stroke-opacity:1;stroke-dasharray:none" /></g></svg>