<?xml version="1.0" encoding="UTF-8" standalone="no"?>
<!-- Created with Inkscape (http://www.inkscape.org/) -->

<svg
   xmlns:dc="http://purl.org/dc/elements/1.1/"
   xmlns:cc="http://creativecommons.org/ns#"
   xmlns:rdf="http://www.w3.org/1999/02/22-rdf-syntax-ns#"
   xmlns:svg="http://www.w3.org/2000/svg"
   xmlns="http://www.w3.org/2000/svg"
   xmlns:sodipodi="http://sodipodi.sourceforge.net/DTD/sodipodi-0.dtd"
   xmlns:inkscape="http://www.inkscape.org/namespaces/inkscape"
   version="1.1"
   id="svg2"
   xml:space="preserve"
   width="486.39999"
   height="387.19998"
   viewBox="0 0 486.39999 387.19998"
   sodipodi:docname="Boeing-727-topview.svg"
   inkscape:version="0.92.4 (5da689c313, 2019-01-14)"><metadata
     id="metadata8"><rdf:RDF><cc:Work
         rdf:about=""><dc:format>image/svg+xml</dc:format><dc:type
           rdf:resource="http://purl.org/dc/dcmitype/StillImage" /><dc:title></dc:title></cc:Work></rdf:RDF></metadata><defs
     id="defs6" /><sodipodi:namedview
     pagecolor="#ffffff"
     bordercolor="#666666"
     borderopacity="1"
     objecttolerance="10"
     gridtolerance="10"
     guidetolerance="10"
     inkscape:pageopacity="0"
     inkscape:pageshadow="2"
     inkscape:window-width="3440"
     inkscape:window-height="1346"
     id="namedview4"
     showgrid="false"
     inkscape:zoom="2.8303737"
     inkscape:cx="242.91285"
     inkscape:cy="194.11664"
     inkscape:window-x="-11"
     inkscape:window-y="-11"
     inkscape:window-maximized="1"
     inkscape:current-layer="g10" /><g
     id="g10"
     inkscape:groupmode="layer"
     inkscape:label="Boeing-727-topview"
     transform="matrix(1.3333333,0,0,-1.3333333,0,387.19999)"><g
       id="g12"><g
         id="g14"
         transform="matrix(1,0,0,-1,0,290.39999)"><path
           d="m 130.344,140.637 0.051,8.504"
           style="fill:none;stroke:#000000;stroke-width:0.60000002;stroke-linecap:round;stroke-linejoin:miter;stroke-miterlimit:4;stroke-dasharray:none;stroke-opacity:1"
           id="path16"
           inkscape:connector-curvature="0" /></g><g
         id="g18"
         transform="matrix(1,0,0,-1,0,290.39999)"><path
           d="m 351.684,136.629 c -0.641,5.922 -0.563,10.262 0.179,16.367"
           style="fill:none;stroke:#000000;stroke-width:0.60000002;stroke-linecap:round;stroke-linejoin:miter;stroke-miterlimit:4;stroke-dasharray:none;stroke-opacity:1"
           id="path20"
           inkscape:connector-curvature="0" /></g><g
         id="g22"
         transform="matrix(1,0,0,-1,0,290.39999)"><path
           d="m 359.746,140.246 c -0.723,3.035 -0.695,6.57 0,9.602"
           style="fill:none;stroke:#000000;stroke-width:0.60000002;stroke-linecap:round;stroke-linejoin:miter;stroke-miterlimit:4;stroke-dasharray:none;stroke-opacity:1"
           id="path24"
           inkscape:connector-curvature="0" /></g><g
         id="g26"
         transform="matrix(1,0,0,-1,0,290.39999)"><path
           d="M 27.312,141.109 12.559,96.484 22.602,96.359"
           style="fill:none;stroke:#000000;stroke-width:1.39999998;stroke-linecap:round;stroke-linejoin:miter;stroke-miterlimit:4;stroke-dasharray:none;stroke-opacity:1"
           id="path28"
           inkscape:connector-curvature="0" /></g><g
         id="g30"
         transform="matrix(1,0,0,-1,0,290.39999)"><path
           d="m 22.602,96.359 c 2.89,-0.082 4.875,-0.156 6.171,1.329 4.165,4.753 8.434,10.05 12.442,14.839 7.68,9.184 16.687,18.895 22.394,26.754 0.289,0.403 0.391,0.723 0.496,0.949"
           style="fill:none;stroke:#000000;stroke-width:1.39999998;stroke-linecap:round;stroke-linejoin:miter;stroke-miterlimit:4;stroke-dasharray:none;stroke-opacity:1"
           id="path32"
           inkscape:connector-curvature="0" /></g><g
         id="g34"
         transform="matrix(1,0,0,-1,0,290.39999)"><path
           d="m 98.539,132.777 c 1.27,-3.043 3.695,-5.578 5.234,-8.519"
           style="fill:none;stroke:#000000;stroke-width:1.39999998;stroke-linecap:round;stroke-linejoin:miter;stroke-miterlimit:4;stroke-dasharray:none;stroke-opacity:1"
           id="path36"
           inkscape:connector-curvature="0" /></g><g
         id="g38"
         transform="matrix(1,0,0,-1,0,290.39999)"><path
           d="m 103.773,124.258 c -1.289,-0.86 -1.921,-0.934 -2.16,-3.465 -0.238,-2.527 3.973,-4.27 7.043,-4.695"
           style="fill:none;stroke:#000000;stroke-width:1.39999998;stroke-linecap:round;stroke-linejoin:miter;stroke-miterlimit:4;stroke-dasharray:none;stroke-opacity:1"
           id="path40"
           inkscape:connector-curvature="0" /></g><g
         id="g42"
         transform="matrix(1,0,0,-1,0,290.39999)"><path
           d="m 130.75,12.441 7.184,-0.183 6.91,-3.102 3.406,-4.539"
           style="fill:none;stroke:#000000;stroke-width:0.60000002;stroke-linecap:round;stroke-linejoin:miter;stroke-miterlimit:4;stroke-dasharray:none;stroke-opacity:1"
           id="path44"
           inkscape:connector-curvature="0" /></g><g
         id="g46"
         transform="matrix(1,0,0,-1,0,290.39999)"><path
           d="M 225.957,126.035 144.844,9.156"
           style="fill:none;stroke:#000000;stroke-width:0.60000002;stroke-linecap:round;stroke-linejoin:miter;stroke-miterlimit:4;stroke-dasharray:none;stroke-opacity:1"
           id="path48"
           inkscape:connector-curvature="0" /></g><g
         id="g50"
         transform="matrix(1,0,0,-1,0,290.39999)"><path
           d="m 141.914,38.328 6.895,-1.156"
           style="fill:none;stroke:#000000;stroke-width:0.60000002;stroke-linecap:round;stroke-linejoin:miter;stroke-miterlimit:4;stroke-dasharray:none;stroke-opacity:1"
           id="path52"
           inkscape:connector-curvature="0" /></g><g
         id="g54"
         transform="matrix(1,0,0,-1,0,290.39999)"><path
           d="m 159.516,79.027 7.089,-1.359"
           style="fill:none;stroke:#000000;stroke-width:0.60000002;stroke-linecap:round;stroke-linejoin:miter;stroke-miterlimit:4;stroke-dasharray:none;stroke-opacity:1"
           id="path56"
           inkscape:connector-curvature="0" /></g><g
         id="g58"
         transform="matrix(1,0,0,-1,0,290.39999)"><path
           d="m 164.02,89.828 7.382,-0.168"
           style="fill:none;stroke:#000000;stroke-width:0.60000002;stroke-linecap:round;stroke-linejoin:miter;stroke-miterlimit:4;stroke-dasharray:none;stroke-opacity:1"
           id="path60"
           inkscape:connector-curvature="0" /></g><g
         id="g62"
         transform="matrix(1,0,0,-1,0,290.39999)"><path
           d="M 168.965,125.93 163.816,89.777 125.801,0.754 c 7.519,-0.231 15.711,0.148 22.449,3.863 l 89.707,121.266"
           style="fill:none;stroke:#000000;stroke-width:1.39999998;stroke-linecap:round;stroke-linejoin:round;stroke-miterlimit:4;stroke-dasharray:none;stroke-opacity:1"
           id="path64"
           inkscape:connector-curvature="0" /></g><g
         id="g66"
         transform="matrix(1,0,0,-1,0,290.39999)"><path
           d="m 137.934,12.258 33.964,77.226 7.227,35.993"
           style="fill:none;stroke:#000000;stroke-width:0.60000002;stroke-linecap:round;stroke-linejoin:miter;stroke-miterlimit:4;stroke-dasharray:none;stroke-opacity:1"
           id="path68"
           inkscape:connector-curvature="0" /></g><g
         id="g70"
         transform="matrix(1,0,0,-1,0,290.39999)"><path
           d="m 22.602,96.359 -0.141,2.075 -3.434,2.062 19.887,40.434"
           style="fill:none;stroke:#000000;stroke-width:0.80000001;stroke-linecap:round;stroke-linejoin:round;stroke-miterlimit:4;stroke-dasharray:none;stroke-opacity:1"
           id="path72"
           inkscape:connector-curvature="0" /></g><g
         id="g74"
         transform="matrix(1,0,0,-1,0,290.39999)"><path
           d="m 114.559,123.984 -0.168,-9.543"
           style="fill:none;stroke:#000000;stroke-width:1.39999998;stroke-linecap:round;stroke-linejoin:miter;stroke-miterlimit:4;stroke-dasharray:none;stroke-opacity:1"
           id="path76"
           inkscape:connector-curvature="0" /></g><g
         id="g78"
         transform="matrix(1,0,0,-1,0,290.39999)"><path
           d="m 103.773,124.258 c 1.649,0.008 3.383,0.054 5.079,-0.047"
           style="fill:none;stroke:#000000;stroke-width:1.39999998;stroke-linecap:round;stroke-linejoin:miter;stroke-miterlimit:4;stroke-dasharray:none;stroke-opacity:1"
           id="path80"
           inkscape:connector-curvature="0" /></g><g
         id="g82"
         transform="matrix(1,0,0,-1,0,290.39999)"><path
           d="m 139.488,126.195 c -0.086,-0.894 0.262,-1.722 0.262,-2.613"
           style="fill:none;stroke:#000000;stroke-width:1.39999998;stroke-linecap:round;stroke-linejoin:miter;stroke-miterlimit:4;stroke-dasharray:none;stroke-opacity:1"
           id="path84"
           inkscape:connector-curvature="0" /></g><g
         id="g86"
         transform="matrix(1,0,0,-1,0,290.39999)"><path
           d="m 114.391,114.441 c -3.457,0.254 -5.563,-0.671 -5.559,1.567 l 0.023,8.246 c 8.364,-0.035 24.54,-0.524 30.895,-0.672 6.352,-0.144 8.816,-0.32 8.816,-2.52 v -7.289 c 0,-1.972 -1.699,-2.007 -3.144,-2.093 -6.813,-0.418 -18.293,0.558 -22.938,0.925 -4.648,0.368 -8.211,0.032 -8.093,1.836 z"
           style="fill:none;stroke:#000000;stroke-width:1.39999998;stroke-linecap:round;stroke-linejoin:miter;stroke-miterlimit:4;stroke-dasharray:none;stroke-opacity:1"
           id="path88"
           inkscape:connector-curvature="0" /></g><g
         id="g90"
         transform="matrix(1,0,0,-1,0,290.39999)"><path
           d="m 340.414,135.414 -4.043,0.184 c -1.137,-0.653 -2.383,-0.606 -3.797,-0.996 l 3.766,-0.239 c 0.808,-0.051 3.199,0.289 4.074,1.051 z m 8.207,7.488 -3.062,0.141 c -0.649,-0.965 -1.606,-2.457 -2.817,-3.199 l 3.676,-0.086 c 1.332,0.617 2.086,2.383 2.203,3.144 z m -2.953,-4.129 -3.953,0.141 c -1.141,-0.652 -2.809,-2.012 -3.977,-2.484 l 4.168,-0.266 c 2.121,0.637 3.055,1.973 3.762,2.609 z"
           style="fill:#b4d6db;fill-opacity:1;fill-rule:evenodd;stroke:#000000;stroke-width:0.60000002;stroke-linecap:round;stroke-linejoin:round;stroke-miterlimit:4;stroke-dasharray:none;stroke-opacity:1"
           id="path92"
           inkscape:connector-curvature="0" /></g><g
         id="g94"
         transform="matrix(1,0,0,-1,0,290.39999)"><path
           d="m 103.117,140.91 c 8.906,-0.844 20.633,-0.734 27.352,-0.527 6.722,0.207 17.496,-0.5 20.043,1.168 0.258,0.398 0.136,2.433 0.136,3.261 0,0.829 0.122,2.864 -0.136,3.262 -2.547,1.668 -13.321,0.961 -20.043,1.168 -6.719,0.207 -18.446,0.317 -27.352,-0.527"
           style="fill:none;stroke:#000000;stroke-width:1.39999998;stroke-linecap:round;stroke-linejoin:miter;stroke-miterlimit:4;stroke-dasharray:none;stroke-opacity:1"
           id="path96"
           inkscape:connector-curvature="0" /></g><g
         id="g98"
         transform="matrix(1,0,0,-1,0,290.39999)"><path
           d="m 27.312,148.516 -14.753,44.625 10.043,0.125"
           style="fill:none;stroke:#000000;stroke-width:1.39999998;stroke-linecap:round;stroke-linejoin:miter;stroke-miterlimit:4;stroke-dasharray:none;stroke-opacity:1"
           id="path100"
           inkscape:connector-curvature="0" /></g><g
         id="g102"
         transform="matrix(1,0,0,-1,0,290.39999)"><path
           d="m 22.602,193.266 c 2.89,0.082 4.875,0.156 6.171,-1.328 4.165,-4.754 8.434,-10.051 12.442,-14.84 7.68,-9.184 16.687,-18.895 22.394,-26.754 0.289,-0.399 0.391,-0.719 0.496,-0.946"
           style="fill:none;stroke:#000000;stroke-width:1.39999998;stroke-linecap:round;stroke-linejoin:miter;stroke-miterlimit:4;stroke-dasharray:none;stroke-opacity:1"
           id="path104"
           inkscape:connector-curvature="0" /></g><g
         id="g106"
         transform="matrix(1,0,0,-1,0,290.39999)"><path
           d="m 98.539,156.852 c 1.27,3.043 3.695,5.574 5.234,8.515"
           style="fill:none;stroke:#000000;stroke-width:1.39999998;stroke-linecap:round;stroke-linejoin:miter;stroke-miterlimit:4;stroke-dasharray:none;stroke-opacity:1"
           id="path108"
           inkscape:connector-curvature="0" /></g><g
         id="g110"
         transform="matrix(1,0,0,-1,0,290.39999)"><path
           d="m 103.773,165.367 c -1.289,0.86 -1.921,0.934 -2.16,3.465 -0.238,2.531 3.973,4.273 7.043,4.699"
           style="fill:none;stroke:#000000;stroke-width:1.39999998;stroke-linecap:round;stroke-linejoin:miter;stroke-miterlimit:4;stroke-dasharray:none;stroke-opacity:1"
           id="path112"
           inkscape:connector-curvature="0" /></g><g
         id="g114"
         transform="matrix(1,0,0,-1,0,290.39999)"><path
           d="m 130.75,277.184 7.184,0.183 6.91,3.106 3.406,4.535"
           style="fill:none;stroke:#000000;stroke-width:0.60000002;stroke-linecap:round;stroke-linejoin:miter;stroke-miterlimit:4;stroke-dasharray:none;stroke-opacity:1"
           id="path116"
           inkscape:connector-curvature="0" /></g><g
         id="g118"
         transform="matrix(1,0,0,-1,0,290.39999)"><path
           d="M 225.957,163.59 144.844,280.473"
           style="fill:none;stroke:#000000;stroke-width:0.60000002;stroke-linecap:round;stroke-linejoin:miter;stroke-miterlimit:4;stroke-dasharray:none;stroke-opacity:1"
           id="path120"
           inkscape:connector-curvature="0" /></g><g
         id="g122"
         transform="matrix(1,0,0,-1,0,290.39999)"><path
           d="m 141.914,251.301 6.895,1.152"
           style="fill:none;stroke:#000000;stroke-width:0.60000002;stroke-linecap:round;stroke-linejoin:miter;stroke-miterlimit:4;stroke-dasharray:none;stroke-opacity:1"
           id="path124"
           inkscape:connector-curvature="0" /></g><g
         id="g126"
         transform="matrix(1,0,0,-1,0,290.39999)"><path
           d="m 159.516,210.598 7.089,1.359"
           style="fill:none;stroke:#000000;stroke-width:0.60000002;stroke-linecap:round;stroke-linejoin:miter;stroke-miterlimit:4;stroke-dasharray:none;stroke-opacity:1"
           id="path128"
           inkscape:connector-curvature="0" /></g><g
         id="g130"
         transform="matrix(1,0,0,-1,0,290.39999)"><path
           d="m 164.02,199.797 7.382,0.168"
           style="fill:none;stroke:#000000;stroke-width:0.60000002;stroke-linecap:round;stroke-linejoin:miter;stroke-miterlimit:4;stroke-dasharray:none;stroke-opacity:1"
           id="path132"
           inkscape:connector-curvature="0" /></g><g
         id="g134"
         transform="matrix(1,0,0,-1,0,290.39999)"><path
           d="m 168.965,163.695 -5.149,36.157 -38.015,89.019 c 7.519,0.231 15.711,-0.148 22.449,-3.863 l 89.707,-121.266"
           style="fill:none;stroke:#000000;stroke-width:1.39999998;stroke-linecap:round;stroke-linejoin:round;stroke-miterlimit:4;stroke-dasharray:none;stroke-opacity:1"
           id="path136"
           inkscape:connector-curvature="0" /></g><g
         id="g138"
         transform="matrix(1,0,0,-1,0,290.39999)"><path
           d="m 137.934,277.367 33.964,-77.226 7.227,-35.989"
           style="fill:none;stroke:#000000;stroke-width:0.60000002;stroke-linecap:round;stroke-linejoin:miter;stroke-miterlimit:4;stroke-dasharray:none;stroke-opacity:1"
           id="path140"
           inkscape:connector-curvature="0" /></g><g
         id="g142"
         transform="matrix(1,0,0,-1,0,290.39999)"><path
           d="m 22.602,193.266 -0.141,-2.075 -3.434,-2.058 19.887,-40.434"
           style="fill:none;stroke:#000000;stroke-width:0.80000001;stroke-linecap:round;stroke-linejoin:round;stroke-miterlimit:4;stroke-dasharray:none;stroke-opacity:1"
           id="path144"
           inkscape:connector-curvature="0" /></g><g
         id="g146"
         transform="matrix(1,0,0,-1,0,290.39999)"><path
           d="m 114.559,165.641 -0.168,9.543"
           style="fill:none;stroke:#000000;stroke-width:1.39999998;stroke-linecap:round;stroke-linejoin:miter;stroke-miterlimit:4;stroke-dasharray:none;stroke-opacity:1"
           id="path148"
           inkscape:connector-curvature="0" /></g><g
         id="g150"
         transform="matrix(1,0,0,-1,0,290.39999)"><path
           d="m 103.773,165.367 c 1.649,-0.008 3.383,-0.055 5.079,0.051"
           style="fill:none;stroke:#000000;stroke-width:1.39999998;stroke-linecap:round;stroke-linejoin:miter;stroke-miterlimit:4;stroke-dasharray:none;stroke-opacity:1"
           id="path152"
           inkscape:connector-curvature="0" /></g><g
         id="g154"
         transform="matrix(1,0,0,-1,0,290.39999)"><path
           d="m 237.957,163.742 c 60.152,-0.394 53.691,0.254 72.043,-1.535 18.352,-1.789 35.004,-5.973 41.863,-8.918 6.86,-2.949 6.262,-2.644 8.043,-3.766 5.055,-3.175 5.035,-5.777 -0.16,-9.277 -1.234,-0.832 -2.18,-1.586 -7.883,-3.906 -5.07,-2.07 -23.511,-7.133 -41.863,-8.922 -18.352,-1.789 -11.891,-1.137 -72.043,-1.535 m 0,37.859 -68.34,-0.113 c -13.558,0.004 -22.152,0.168 -30.129,-0.195 -13.687,-1.969 -29.281,-4.329 -40.949,-6.582 -11.664,-2.254 -19.176,-4.243 -28.613,-7.227 m 168.031,-23.742 -68.34,0.113 c -13.558,-0.004 -22.152,-0.164 -30.129,0.199 -13.687,1.965 -29.281,4.328 -40.949,6.582 -11.664,2.254 -19.176,4.239 -28.613,7.227"
           style="fill:none;stroke:#000000;stroke-width:1.39999998;stroke-linecap:round;stroke-linejoin:miter;stroke-miterlimit:4;stroke-dasharray:none;stroke-opacity:1"
           id="path156"
           inkscape:connector-curvature="0" /></g><g
         id="g158"
         transform="matrix(1,0,0,-1,0,290.39999)"><path
           d="m 139.488,163.434 c -0.086,0.89 0.262,1.718 0.262,2.609"
           style="fill:none;stroke:#000000;stroke-width:1.39999998;stroke-linecap:round;stroke-linejoin:miter;stroke-miterlimit:4;stroke-dasharray:none;stroke-opacity:1"
           id="path160"
           inkscape:connector-curvature="0" /></g><g
         id="g162"
         transform="matrix(1,0,0,-1,0,290.39999)"><path
           d="m 114.391,175.184 c -3.457,-0.254 -5.563,0.671 -5.559,-1.567 l 0.023,-8.246 c 8.364,0.035 24.54,0.524 30.895,0.672 6.352,0.148 8.816,0.324 8.816,2.519 v 7.29 c 0,1.972 -1.699,2.007 -3.144,2.093 -6.813,0.418 -18.293,-0.558 -22.938,-0.922 -4.648,-0.367 -8.211,-0.031 -8.093,-1.839 z"
           style="fill:none;stroke:#000000;stroke-width:1.39999998;stroke-linecap:round;stroke-linejoin:miter;stroke-miterlimit:4;stroke-dasharray:none;stroke-opacity:1"
           id="path164"
           inkscape:connector-curvature="0" /></g><g
         id="g166"
         transform="matrix(1,0,0,-1,0,290.39999)"><path
           d="m 109.25,144.812 c 0,-2.082 -1.805,-2.902 -6.227,-3.91 -4.418,-1.007 -20.816,-0.675 -32.085,-0.714 -13.981,0.074 -32.368,0.367 -43.575,0.921 -11.203,0.551 -17.66,1.618 -26.664,3.684 8.801,1.988 15.317,2.988 26.664,3.707 11.352,0.715 29.594,0.863 43.575,0.938 11.269,-0.036 27.667,0.292 32.085,-0.715 4.422,-1.004 6.227,-1.825 6.227,-3.911 z"
           style="fill:none;stroke:#000000;stroke-width:1.39999998;stroke-linecap:round;stroke-linejoin:round;stroke-miterlimit:4;stroke-dasharray:none;stroke-opacity:1"
           id="path168"
           inkscape:connector-curvature="0" /></g><g
         id="g170"
         transform="matrix(1,0,0,-1,0,290.39999)"><path
           d="m 340.414,154.215 -4.043,-0.188 c -1.137,0.653 -2.383,0.606 -3.797,0.996 l 3.766,0.239 c 0.808,0.05 3.199,-0.289 4.074,-1.047 z m 8.207,-7.492 -3.062,-0.141 c -0.649,0.965 -1.606,2.457 -2.817,3.199 l 3.676,0.086 c 1.332,-0.617 2.086,-2.383 2.203,-3.144 z m -2.953,4.129 -3.953,-0.141 c -1.141,0.656 -2.809,2.012 -3.977,2.488 l 4.168,0.266 c 2.121,-0.641 3.055,-1.977 3.762,-2.613 z"
           style="fill:#b4d6db;fill-opacity:1;fill-rule:evenodd;stroke:#000000;stroke-width:0.60000002;stroke-linecap:round;stroke-linejoin:round;stroke-miterlimit:4;stroke-dasharray:none;stroke-opacity:1"
           id="path172"
           inkscape:connector-curvature="0" /></g></g></g></svg>