<?xml version="1.0" encoding="UTF-8"?>
<svg xmlns="http://www.w3.org/2000/svg" xmlns:xlink="http://www.w3.org/1999/xlink" width="364.799988pt" height="290.399994pt" viewBox="0 0 364.799988 290.399994" version="1.1">
<defs>
<clipPath id="clip1">
  <path d="M 62 117 L 364.800781 117 L 364.800781 172 L 62 172 Z M 62 117 "/>
</clipPath>
</defs>
<g id="surface1">
<path style="fill:none;stroke-width:0.6;stroke-linecap:round;stroke-linejoin:miter;stroke:rgb(0%,0%,0%);stroke-opacity:1;stroke-miterlimit:4;" d="M 130.34375 140.636719 L 130.394531 149.140625 "/>
<path style="fill:none;stroke-width:0.6;stroke-linecap:round;stroke-linejoin:miter;stroke:rgb(0%,0%,0%);stroke-opacity:1;stroke-miterlimit:4;" d="M 351.683594 136.628906 C 351.042969 142.550781 351.121094 146.890625 351.863281 152.996094 "/>
<path style="fill:none;stroke-width:0.6;stroke-linecap:round;stroke-linejoin:miter;stroke:rgb(0%,0%,0%);stroke-opacity:1;stroke-miterlimit:4;" d="M 359.746094 140.246094 C 359.023438 143.28125 359.050781 146.816406 359.746094 149.847656 "/>
<path style="fill:none;stroke-width:1.4;stroke-linecap:round;stroke-linejoin:miter;stroke:rgb(0%,0%,0%);stroke-opacity:1;stroke-miterlimit:4;" d="M 27.3125 141.109375 L 12.558594 96.484375 L 22.601563 96.359375 "/>
<path style="fill:none;stroke-width:1.4;stroke-linecap:round;stroke-linejoin:miter;stroke:rgb(0%,0%,0%);stroke-opacity:1;stroke-miterlimit:4;" d="M 22.601563 96.359375 C 25.492188 96.277344 27.476563 96.203125 28.773438 97.6875 C 32.9375 102.441406 37.207031 107.738281 41.214844 112.527344 C 48.894531 121.710938 57.902344 131.421875 63.609375 139.28125 C 63.898438 139.683594 64 140.003906 64.105469 140.230469 "/>
<path style="fill:none;stroke-width:1.4;stroke-linecap:round;stroke-linejoin:miter;stroke:rgb(0%,0%,0%);stroke-opacity:1;stroke-miterlimit:4;" d="M 98.539063 132.777344 C 99.808594 129.734375 102.234375 127.199219 103.773438 124.257813 "/>
<path style="fill:none;stroke-width:1.4;stroke-linecap:round;stroke-linejoin:miter;stroke:rgb(0%,0%,0%);stroke-opacity:1;stroke-miterlimit:4;" d="M 103.773438 124.257813 C 102.484375 123.398438 101.851563 123.324219 101.613281 120.792969 C 101.375 118.265625 105.585938 116.523438 108.65625 116.097656 "/>
<path style="fill:none;stroke-width:0.6;stroke-linecap:round;stroke-linejoin:miter;stroke:rgb(0%,0%,0%);stroke-opacity:1;stroke-miterlimit:4;" d="M 130.75 12.441406 L 137.933594 12.257813 L 144.84375 9.15625 L 148.25 4.617188 "/>
<path style="fill:none;stroke-width:0.6;stroke-linecap:round;stroke-linejoin:miter;stroke:rgb(0%,0%,0%);stroke-opacity:1;stroke-miterlimit:4;" d="M 225.957031 126.035156 L 144.84375 9.15625 "/>
<path style="fill:none;stroke-width:0.6;stroke-linecap:round;stroke-linejoin:miter;stroke:rgb(0%,0%,0%);stroke-opacity:1;stroke-miterlimit:4;" d="M 141.914063 38.328125 L 148.808594 37.171875 "/>
<path style="fill:none;stroke-width:0.6;stroke-linecap:round;stroke-linejoin:miter;stroke:rgb(0%,0%,0%);stroke-opacity:1;stroke-miterlimit:4;" d="M 159.515625 79.027344 L 166.605469 77.667969 "/>
<path style="fill:none;stroke-width:0.6;stroke-linecap:round;stroke-linejoin:miter;stroke:rgb(0%,0%,0%);stroke-opacity:1;stroke-miterlimit:4;" d="M 164.019531 89.828125 L 171.402344 89.660156 "/>
<path style="fill:none;stroke-width:1.4;stroke-linecap:round;stroke-linejoin:round;stroke:rgb(0%,0%,0%);stroke-opacity:1;stroke-miterlimit:4;" d="M 168.964844 125.929688 L 163.816406 89.777344 L 125.800781 0.753906 C 133.320313 0.523438 141.511719 0.902344 148.25 4.617188 L 237.957031 125.882813 "/>
<path style="fill:none;stroke-width:0.6;stroke-linecap:round;stroke-linejoin:miter;stroke:rgb(0%,0%,0%);stroke-opacity:1;stroke-miterlimit:4;" d="M 137.933594 12.257813 L 171.898438 89.484375 L 179.125 125.476563 "/>
<path style="fill:none;stroke-width:0.8;stroke-linecap:round;stroke-linejoin:round;stroke:rgb(0%,0%,0%);stroke-opacity:1;stroke-miterlimit:4;" d="M 22.601563 96.359375 L 22.460938 98.433594 L 19.027344 100.496094 L 38.914063 140.929688 "/>
<path style="fill:none;stroke-width:1.4;stroke-linecap:round;stroke-linejoin:miter;stroke:rgb(0%,0%,0%);stroke-opacity:1;stroke-miterlimit:4;" d="M 114.558594 123.984375 L 114.390625 114.441406 "/>
<path style="fill:none;stroke-width:1.4;stroke-linecap:round;stroke-linejoin:miter;stroke:rgb(0%,0%,0%);stroke-opacity:1;stroke-miterlimit:4;" d="M 103.773438 124.257813 C 105.421875 124.265625 107.15625 124.3125 108.851563 124.210938 "/>
<path style="fill:none;stroke-width:1.4;stroke-linecap:round;stroke-linejoin:miter;stroke:rgb(0%,0%,0%);stroke-opacity:1;stroke-miterlimit:4;" d="M 139.488281 126.195313 C 139.402344 125.300781 139.75 124.472656 139.75 123.582031 "/>
<path style="fill:none;stroke-width:1.4;stroke-linecap:round;stroke-linejoin:miter;stroke:rgb(0%,0%,0%);stroke-opacity:1;stroke-miterlimit:4;" d="M 114.390625 114.441406 C 110.933594 114.695313 108.828125 113.769531 108.832031 116.007813 L 108.855469 124.253906 C 117.21875 124.21875 133.394531 123.730469 139.75 123.582031 C 146.101563 123.4375 148.566406 123.261719 148.566406 121.0625 L 148.566406 113.773438 C 148.566406 111.800781 146.867188 111.765625 145.421875 111.679688 C 138.609375 111.261719 127.128906 112.238281 122.484375 112.605469 C 117.835938 112.972656 114.273438 112.636719 114.390625 114.441406 Z M 114.390625 114.441406 "/>
<path style="fill-rule:evenodd;fill:rgb(70.587158%,83.920288%,85.881042%);fill-opacity:1;stroke-width:0.6;stroke-linecap:round;stroke-linejoin:round;stroke:rgb(0%,0%,0%);stroke-opacity:1;stroke-miterlimit:4;" d="M 340.414063 135.414063 L 336.371094 135.597656 C 335.234375 134.945313 333.988281 134.992188 332.574219 134.601563 L 336.339844 134.363281 C 337.148438 134.3125 339.539063 134.652344 340.414063 135.414063 Z M 348.621094 142.902344 L 345.558594 143.042969 C 344.910156 142.078125 343.953125 140.585938 342.742188 139.84375 L 346.417969 139.757813 C 347.75 140.375 348.503906 142.140625 348.621094 142.902344 Z M 345.667969 138.773438 L 341.714844 138.914063 C 340.574219 138.261719 338.90625 136.902344 337.738281 136.429688 L 341.90625 136.164063 C 344.027344 136.800781 344.960938 138.136719 345.667969 138.773438 Z M 345.667969 138.773438 "/>
<path style="fill:none;stroke-width:1.4;stroke-linecap:round;stroke-linejoin:miter;stroke:rgb(0%,0%,0%);stroke-opacity:1;stroke-miterlimit:4;" d="M 103.117188 140.910156 C 112.023438 140.066406 123.75 140.175781 130.46875 140.382813 C 137.191406 140.589844 147.964844 139.882813 150.511719 141.550781 C 150.769531 141.949219 150.648438 143.984375 150.648438 144.8125 C 150.648438 145.640625 150.769531 147.675781 150.511719 148.074219 C 147.964844 149.742188 137.191406 149.035156 130.46875 149.242188 C 123.75 149.449219 112.023438 149.558594 103.117188 148.714844 "/>
<path style="fill:none;stroke-width:1.4;stroke-linecap:round;stroke-linejoin:miter;stroke:rgb(0%,0%,0%);stroke-opacity:1;stroke-miterlimit:4;" d="M 27.3125 148.515625 L 12.558594 193.140625 L 22.601563 193.265625 "/>
<path style="fill:none;stroke-width:1.4;stroke-linecap:round;stroke-linejoin:miter;stroke:rgb(0%,0%,0%);stroke-opacity:1;stroke-miterlimit:4;" d="M 22.601563 193.265625 C 25.492188 193.347656 27.476563 193.421875 28.773438 191.9375 C 32.9375 187.183594 37.207031 181.886719 41.214844 177.097656 C 48.894531 167.914063 57.902344 158.203125 63.609375 150.34375 C 63.898438 149.945313 64 149.625 64.105469 149.398438 "/>
<path style="fill:none;stroke-width:1.4;stroke-linecap:round;stroke-linejoin:miter;stroke:rgb(0%,0%,0%);stroke-opacity:1;stroke-miterlimit:4;" d="M 98.539063 156.851563 C 99.808594 159.894531 102.234375 162.425781 103.773438 165.367188 "/>
<path style="fill:none;stroke-width:1.4;stroke-linecap:round;stroke-linejoin:miter;stroke:rgb(0%,0%,0%);stroke-opacity:1;stroke-miterlimit:4;" d="M 103.773438 165.367188 C 102.484375 166.226563 101.851563 166.300781 101.613281 168.832031 C 101.375 171.363281 105.585938 173.105469 108.65625 173.53125 "/>
<path style="fill:none;stroke-width:0.6;stroke-linecap:round;stroke-linejoin:miter;stroke:rgb(0%,0%,0%);stroke-opacity:1;stroke-miterlimit:4;" d="M 130.75 277.183594 L 137.933594 277.367188 L 144.84375 280.472656 L 148.25 285.007813 "/>
<path style="fill:none;stroke-width:0.6;stroke-linecap:round;stroke-linejoin:miter;stroke:rgb(0%,0%,0%);stroke-opacity:1;stroke-miterlimit:4;" d="M 225.957031 163.589844 L 144.84375 280.472656 "/>
<path style="fill:none;stroke-width:0.6;stroke-linecap:round;stroke-linejoin:miter;stroke:rgb(0%,0%,0%);stroke-opacity:1;stroke-miterlimit:4;" d="M 141.914063 251.300781 L 148.808594 252.453125 "/>
<path style="fill:none;stroke-width:0.6;stroke-linecap:round;stroke-linejoin:miter;stroke:rgb(0%,0%,0%);stroke-opacity:1;stroke-miterlimit:4;" d="M 159.515625 210.597656 L 166.605469 211.957031 "/>
<path style="fill:none;stroke-width:0.6;stroke-linecap:round;stroke-linejoin:miter;stroke:rgb(0%,0%,0%);stroke-opacity:1;stroke-miterlimit:4;" d="M 164.019531 199.796875 L 171.402344 199.964844 "/>
<path style="fill:none;stroke-width:1.4;stroke-linecap:round;stroke-linejoin:round;stroke:rgb(0%,0%,0%);stroke-opacity:1;stroke-miterlimit:4;" d="M 168.964844 163.695313 L 163.816406 199.851563 L 125.800781 288.871094 C 133.320313 289.101563 141.511719 288.722656 148.25 285.007813 L 237.957031 163.742188 "/>
<path style="fill:none;stroke-width:0.6;stroke-linecap:round;stroke-linejoin:miter;stroke:rgb(0%,0%,0%);stroke-opacity:1;stroke-miterlimit:4;" d="M 137.933594 277.367188 L 171.898438 200.140625 L 179.125 164.152344 "/>
<path style="fill:none;stroke-width:0.8;stroke-linecap:round;stroke-linejoin:round;stroke:rgb(0%,0%,0%);stroke-opacity:1;stroke-miterlimit:4;" d="M 22.601563 193.265625 L 22.460938 191.191406 L 19.027344 189.132813 L 38.914063 148.699219 "/>
<path style="fill:none;stroke-width:1.4;stroke-linecap:round;stroke-linejoin:miter;stroke:rgb(0%,0%,0%);stroke-opacity:1;stroke-miterlimit:4;" d="M 114.558594 165.640625 L 114.390625 175.183594 "/>
<path style="fill:none;stroke-width:1.4;stroke-linecap:round;stroke-linejoin:miter;stroke:rgb(0%,0%,0%);stroke-opacity:1;stroke-miterlimit:4;" d="M 103.773438 165.367188 C 105.421875 165.359375 107.15625 165.3125 108.851563 165.417969 "/>
<g clip-path="url(#clip1)" clip-rule="nonzero">
<path style="fill:none;stroke-width:1.4;stroke-linecap:round;stroke-linejoin:miter;stroke:rgb(0%,0%,0%);stroke-opacity:1;stroke-miterlimit:4;" d="M 237.957031 163.742188 C 298.109375 163.347656 291.648438 163.996094 310 162.207031 C 328.351563 160.417969 345.003906 156.234375 351.863281 153.289063 C 358.722656 150.339844 358.125 150.644531 359.90625 149.523438 C 364.960938 146.347656 364.941406 143.746094 359.746094 140.246094 C 358.511719 139.414063 357.566406 138.660156 351.863281 136.339844 C 346.792969 134.269531 328.351563 129.207031 310 127.417969 C 291.648438 125.628906 298.109375 126.28125 237.957031 125.882813 M 237.957031 163.742188 L 169.617188 163.628906 C 156.058594 163.632813 147.464844 163.796875 139.488281 163.433594 C 125.800781 161.464844 110.207031 159.105469 98.539063 156.851563 C 86.875 154.597656 79.363281 152.609375 69.925781 149.625 M 237.957031 125.882813 L 169.617188 125.996094 C 156.058594 125.992188 147.464844 125.832031 139.488281 126.195313 C 125.800781 128.160156 110.207031 130.523438 98.539063 132.777344 C 86.875 135.03125 79.363281 137.015625 69.925781 140.003906 "/>
</g>
<path style="fill:none;stroke-width:1.4;stroke-linecap:round;stroke-linejoin:miter;stroke:rgb(0%,0%,0%);stroke-opacity:1;stroke-miterlimit:4;" d="M 139.488281 163.433594 C 139.402344 164.324219 139.75 165.152344 139.75 166.042969 "/>
<path style="fill:none;stroke-width:1.4;stroke-linecap:round;stroke-linejoin:miter;stroke:rgb(0%,0%,0%);stroke-opacity:1;stroke-miterlimit:4;" d="M 114.390625 175.183594 C 110.933594 174.929688 108.828125 175.855469 108.832031 173.617188 L 108.855469 165.371094 C 117.21875 165.40625 133.394531 165.894531 139.75 166.042969 C 146.101563 166.191406 148.566406 166.367188 148.566406 168.5625 L 148.566406 175.851563 C 148.566406 177.824219 146.867188 177.859375 145.421875 177.945313 C 138.609375 178.363281 127.128906 177.386719 122.484375 177.023438 C 117.835938 176.65625 114.273438 176.992188 114.390625 175.183594 Z M 114.390625 175.183594 "/>
<path style="fill:none;stroke-width:1.4;stroke-linecap:round;stroke-linejoin:round;stroke:rgb(0%,0%,0%);stroke-opacity:1;stroke-miterlimit:4;" d="M 109.25 144.8125 C 109.25 142.730469 107.445313 141.910156 103.023438 140.902344 C 98.605469 139.894531 82.207031 140.226563 70.9375 140.1875 C 56.957031 140.261719 38.570313 140.554688 27.363281 141.109375 C 16.160156 141.660156 9.703125 142.726563 0.699219 144.792969 C 9.5 146.78125 16.015625 147.78125 27.363281 148.5 C 38.714844 149.214844 56.957031 149.363281 70.9375 149.4375 C 82.207031 149.402344 98.605469 149.730469 103.023438 148.722656 C 107.445313 147.71875 109.25 146.898438 109.25 144.8125 Z M 109.25 144.8125 "/>
<path style="fill-rule:evenodd;fill:rgb(70.587158%,83.920288%,85.881042%);fill-opacity:1;stroke-width:0.6;stroke-linecap:round;stroke-linejoin:round;stroke:rgb(0%,0%,0%);stroke-opacity:1;stroke-miterlimit:4;" d="M 340.414063 154.214844 L 336.371094 154.027344 C 335.234375 154.679688 333.988281 154.632813 332.574219 155.023438 L 336.339844 155.261719 C 337.148438 155.3125 339.539063 154.972656 340.414063 154.214844 Z M 348.621094 146.722656 L 345.558594 146.582031 C 344.910156 147.546875 343.953125 149.039063 342.742188 149.78125 L 346.417969 149.867188 C 347.75 149.25 348.503906 147.484375 348.621094 146.722656 Z M 345.667969 150.851563 L 341.714844 150.710938 C 340.574219 151.367188 338.90625 152.722656 337.738281 153.199219 L 341.90625 153.464844 C 344.027344 152.824219 344.960938 151.488281 345.667969 150.851563 Z M 345.667969 150.851563 "/>
</g>
</svg>
