<?xml version="1.0" encoding="UTF-8" standalone="no"?>
<svg
   xmlns:dc="http://purl.org/dc/elements/1.1/"
   xmlns:cc="http://creativecommons.org/ns#"
   xmlns:rdf="http://www.w3.org/1999/02/22-rdf-syntax-ns#"
   xmlns:svg="http://www.w3.org/2000/svg"
   xmlns="http://www.w3.org/2000/svg"
   xmlns:sodipodi="http://sodipodi.sourceforge.net/DTD/sodipodi-0.dtd"
   xmlns:inkscape="http://www.inkscape.org/namespaces/inkscape"
   id="svg8"
   version="1.1"
   viewBox="0 0 116.5966 82.097324"
   height="232.71683pt"
   width="330.51004pt"
   sodipodi:docname="GuITmeeting_2019_logo.svg"
   inkscape:version="0.92.4 (5da689c313, 2019-01-14)">
  <defs
     id="defs79" />
  <sodipodi:namedview
     pagecolor="#ffffff"
     bordercolor="#666666"
     borderopacity="1"
     objecttolerance="10"
     gridtolerance="10"
     guidetolerance="10"
     inkscape:pageopacity="0"
     inkscape:pageshadow="2"
     inkscape:window-width="1280"
     inkscape:window-height="697"
     id="namedview77"
     showgrid="false"
     inkscape:zoom="0.72388119"
     inkscape:cx="220.34003"
     inkscape:cy="155.14455"
     inkscape:window-x="-8"
     inkscape:window-y="-8"
     inkscape:window-maximized="1"
     inkscape:current-layer="svg8" />
  <metadata
     id="metadata5">
    <rdf:RDF>
      <cc:Work
         rdf:about="">
        <dc:format>image/svg+xml</dc:format>
        <dc:type
           rdf:resource="http://purl.org/dc/dcmitype/StillImage" />
        <dc:title></dc:title>
      </cc:Work>
    </rdf:RDF>
  </metadata>
  <g
     style="fill:#004c1e;fill-opacity:1"
     id="g2456"
     transform="matrix(2.8782352,0,0,2.8782352,-427.74812,-359.5367)">
    <path
       id="path2454"
       transform="matrix(0.09192554,0,0,0.09192554,136.75854,66.686973)"
       d="m 165.89844,683.29688 c -16.31756,0 -30.25586,12.74679 -30.25586,29.40429 0,16.14758 13.42833,29.40625 30.42578,29.40625 3.39578,0 10.28726,-0.43446 14.70898,-4.9668 v 12.61133 c 0,2.7196 -1e-4,6.62844 0.33985,8.15821 0.84987,8.6687 9.5197,17.50781 21.58789,17.50781 12.57811,0 19.54682,-11.04831 19.7168,-19.03711 V 727.6543 c 0,-4.41934 2.88909,-6.79883 7.81835,-6.79883 v -2.71875 c -2.71959,0.16997 -8.49783,0.33984 -9.17773,0.33984 -3.05954,0 -6.12015,-0.16987 -9.17969,-0.33984 v 2.71875 c 7.81883,0 7.81836,5.77851 7.81836,8.32812 v 25.32618 c 0,12.57811 -9.34734,18.1875 -16.65625,18.1875 -3.39949,0 -14.44922,-1.36024 -14.44922,-17.50782 v -29.23437 c 0,-0.4937 0.0117,-0.92545 0.0332,-1.33008 0.0817,-0.73409 0.1686,-1.35167 0.31836,-1.83203 0.64919,-1.61726 2.46711,-1.9375 7.46875,-1.9375 v -2.71875 c -3.05955,0.16997 -9.34888,0.33984 -11.72852,0.33984 -0.13624,0 -0.28439,0.0189 -0.42578,0.0274 -0.16253,-0.004 -0.36145,-0.0234 -0.51563,-0.0234 -3.90941,0 -10.19806,10e-5 -13.9375,-0.33985 v 2.72071 h 2.20899 c 8.15878,0 8.66797,1.19009 8.66797,5.43945 v 3.39844 c 0,2.37964 0.001,5.09887 -4.41797,7.47851 -2.37965,1.52978 -5.95017,2.21094 -9.17969,2.21094 -6.62901,0 -22.26562,-3.57096 -22.26562,-26.6875 0,-23.79643 16.48664,-26.68555 21.75585,-26.68555 7.98881,0 16.99742,5.60902 19.03711,19.37696 0.33995,0.84987 0.34143,1.53125 1.53125,1.53125 1.3598,0 1.35938,-0.68101 1.35938,-2.72071 V 685.8457 c 0,-1.69974 3.2e-4,-2.54882 -1.01953,-2.54882 -0.6799,0 -0.8513,0.16955 -1.70117,1.35937 l -4.24805,5.43945 c -4.07939,-4.41933 -9.68956,-6.79882 -15.63867,-6.79882 z"
       style="fill:#004c1e;fill-opacity:1;stroke:none;stroke-width:0"
       inkscape:connector-curvature="0" />
  </g>
  <g
     style="fill:#004c1e;fill-opacity:1"
     id="g2460"
     transform="matrix(2.8782352,0,0,2.8782352,-427.74812,-359.5367)" />
  <g
     style="fill:#000000;fill-opacity:1"
     id="g2464"
     transform="matrix(2.8782352,0,0,2.8782352,-427.74812,-359.5367)" />
  <g
     style="fill:#004c1e;fill-opacity:1"
     id="g2468"
     transform="matrix(2.8782352,0,0,2.8782352,-427.74812,-359.5367)">
    <path
       style="stroke:none;stroke-width:0"
       d="M 5.390625,-5.0625 H 0.5 L 0.359375,-3.375 h 0.25 C 0.703125,-4.640625 0.890625,-4.8125 2,-4.8125 c 0.5625,0 0.59375,0 0.59375,0.421875 V -0.75 c 0,0.390625 -0.046875,0.5 -0.8125,0.5 H 1.578125 V 0 c 0.390625,-0.03125 0.96875,-0.03125 1.375,-0.03125 0.390625,0 0.984375,0 1.375,0.03125 V -0.25 H 4.109375 C 3.34375,-0.25 3.3125,-0.359375 3.3125,-0.75 v -3.640625 c 0,-0.421875 0.03125,-0.421875 0.578125,-0.421875 1.078125,0 1.296875,0.171875 1.390625,1.4375 h 0.25 z m 0,0"
       transform="translate(159.63499,134.765)"
       id="path2466"
       inkscape:connector-curvature="0" />
  </g>
  <path
     inkscape:connector-curvature="0"
     id="path2472"
     d="m 29.523786,1.7638899 -0.01241,2.2747975 -0.480074,0.4320143 0.0011,1.4019821 -0.289388,0.3358964 v 1.6247057 l 0.302307,0.199988 v 1.1043258 l -0.302307,0.5400199 0.04858,1.7807674 -0.420129,0.08423 v 0.54002 l 0.371552,0.05994 -0.06304,7.837249 -0.440799,0.153477 v 0.453202 l 0.440799,0.153998 v 0.723985 l -0.440799,0.112138 v 0.411861 l 0.440799,0.112138 v 1.305865 l -0.52663,0.27751 v 0.517797 l 0.326594,0.19327 v 2.330606 l -0.444934,0.10232 -0.03876,0.340029 -0.461471,0.100254 v 0.930177 l 0.326594,0.248562 0.04186,2.589507 -0.52348,1.992643 -0.643372,0.167947 0.03979,7.8388 -0.629936,0.239778 v 1.638141 l 0.528651,0.150898 v 2.537311 c -2.559754,4.76943 -4.986028,9.909792 -5.582089,16.642911 l -0.652675,0.09612 -0.09612,1.174088 0.460954,0.194821 -0.0987,2.820501 -1.353404,1.430403 0.08681,0.422196 0.648538,-0.01963 V 79.52866 H 39.535079 V 68.36344 l 0.648542,0.01963 0.08733,-0.422196 -1.353405,-1.430404 -0.0987,-2.8205 0.460955,-0.194821 -0.09612,-1.174089 -0.652674,-0.09612 C 37.934945,55.511826 35.508671,50.371464 32.94892,45.602035 v -2.537312 l 0.528648,-0.150897 v -1.638141 l -0.630452,-0.239779 0.03979,-7.8388 -0.643371,-0.167946 -0.522965,-1.992644 0.04186,-2.589506 0.326078,-0.248563 V 27.26827 l -0.460952,-0.100253 -0.03876,-0.340029 -0.444934,-0.10232 v -2.330606 l 0.326597,-0.19327 v -0.517798 l -0.526585,-0.277503 v -1.305864 l 0.440801,-0.112138 v -0.411861 l -0.440801,-0.112139 v -0.723984 l 0.440801,-0.153998 v -0.453202 l -0.440801,-0.153477 -0.06304,-7.83725 0.371555,-0.05994 v -0.540019 l -0.42013,-0.08423 0.04857,-1.7807677 -0.302307,-0.5400199 V 8.0332686 l 0.302307,-0.199988 V 6.2085749 L 30.59144,5.8726785 30.591969,4.4706964 30.111896,4.0386821 30.100016,1.7638846 Z"
     style="fill:#000004;fill-opacity:1;stroke:none;stroke-width:0.15910278;stroke-linecap:butt;stroke-linejoin:round;stroke-miterlimit:4;stroke-dasharray:none;stroke-opacity:1" />
  <path
     id="path2476"
     d="m 80.842911,13.746066 c 0.695863,-0.756373 0.877393,-0.907647 1.300962,-0.907647 0.151274,0 0.363058,0.03026 0.635353,0.12102 1.210196,0.272294 2.813706,0.574843 3.086,0.574843 0.12102,0 0.211785,-0.03025 0.393314,-0.09076 0.453824,-0.695863 0.937902,-1.421981 1.421981,-2.178353 l -0.12102,-0.363059 c -1.058921,1.331216 -1.179941,1.452235 -1.60351,1.452235 -0.09076,0 -0.211784,-0.03026 -0.363059,-0.06051 -1.119431,-0.211785 -2.117843,-0.332804 -2.934726,-0.484079 0.937902,-0.847137 1.421981,-1.331216 2.027079,-1.8758044 l 1.452236,-1.3614709 c 0.423568,-0.3630589 0.484078,-0.4235687 0.816882,-0.7563728 0.484079,-0.7261178 0.695863,-1.2707061 0.695863,-1.996824 0,-1.0589218 -0.695863,-1.7245298 -1.694275,-1.7245298 -0.847137,0 -1.72453,0.3025491 -2.390138,0.8773924 -0.574843,0.4538236 -0.907647,1.0286669 -0.907647,1.7245298 0,0.1210196 0.03025,0.2117844 0.06051,0.3933138 l 1.149686,0.1210197 c -0.121019,-0.4538237 -0.181529,-0.665608 -0.181529,-0.9681571 0,-0.9076473 0.544588,-1.4824906 1.361471,-1.4824906 0.756373,0 1.331216,0.665608 1.331216,1.6035102 0,0.5143335 -0.18153,1.0891767 -0.423569,1.4824906 -0.363059,0.5748432 -0.756373,0.998412 -2.027079,2.1783531 -2.117843,1.996824 -2.359883,2.238864 -3.176765,3.237276 z m 0,0"
     style="fill:#000000;fill-opacity:1;stroke:none;stroke-width:0"
     inkscape:connector-curvature="0" />
  <path
     id="path2478"
     d="m 93.443011,4.0342403 c -1.179941,0 -2.511157,0.8168825 -3.32804,2.0270789 -0.756372,1.1799415 -1.361471,3.2977851 -1.361471,4.8407858 0,1.754784 0.665608,2.692687 1.90606,2.692687 1.391725,0 2.692687,-0.877393 3.449059,-2.359883 0.635353,-1.2404516 1.119432,-3.2070207 1.119432,-4.5684916 0,-1.7547848 -0.605098,-2.6321771 -1.78504,-2.6321771 z m -0.816882,0.6958629 c 0.756373,0 1.179941,0.8471375 1.179941,2.4203927 0,1.3312161 -0.332804,3.0254911 -0.877392,4.2659421 -0.393314,0.998412 -0.937902,1.573255 -1.512746,1.573255 -0.726117,0 -1.240451,-0.937902 -1.240451,-2.269118 0,-0.8773921 0.302549,-2.7229416 0.635353,-3.7818634 0.453824,-1.4824906 1.058922,-2.2086084 1.815295,-2.2086084 z m 0,0"
     style="fill:#000000;fill-opacity:1;stroke:none;stroke-width:0"
     inkscape:connector-curvature="0" />
  <path
     id="path2480"
     d="m 95.756442,13.473772 h 1.058922 l 1.785039,-0.03026 1.875807,0.03026 h 0.66561 l 0.39331,-0.453824 c -0.48408,0 -1.36147,-0.09076 -1.694275,-0.181529 -0.242039,-0.06051 -0.423569,-0.242039 -0.423569,-0.484079 0,-0.181529 0.03025,-0.423568 0.12102,-0.695863 0.06051,-0.181529 0.211784,-0.937902 0.453823,-2.0875883 0.726121,-3.0860008 1.089181,-4.6592561 1.361471,-5.6274132 l -0.57484,0.2722942 c -1.119435,0.6050982 -1.14969,0.6353531 -1.694278,0.8773924 -0.302549,0.1512746 -0.847137,0.3933138 -1.60351,0.7261178 l 0.514333,0.2420393 c 0.393314,-0.1210196 0.574844,-0.2117844 0.877393,-0.332804 l 0.484078,-0.1815295 c 0.06051,-0.030255 0.211785,-0.090765 0.453824,-0.1815294 l -1.543001,6.7165897 c -0.181529,0.695863 -0.181529,0.726118 -0.695862,0.786628 -0.695863,0.09076 -1.149687,0.121019 -1.331216,0.151274 z m 0,0"
     style="fill:#000000;fill-opacity:1;stroke:none;stroke-width:0"
     inkscape:connector-curvature="0" />
  <path
     id="path2482"
     d="m 102.33583,13.231733 c 0.57485,0.272294 0.99841,0.363059 1.57326,0.363059 1.48249,0 3.23727,-1.028667 4.23569,-2.480903 0.78662,-1.1194316 1.36147,-3.1162556 1.36147,-4.6290011 0,-1.5430003 -0.63536,-2.4506476 -1.72453,-2.4506476 -0.81689,0 -1.8153,0.3630589 -2.69269,0.998412 -0.9379,0.6958629 -1.42198,1.5430004 -1.42198,2.4809026 0,1.1799414 0.78663,1.996824 1.90606,1.996824 0.57484,0 0.90765,-0.1512746 2.57167,-1.1496866 -0.21179,1.2404513 -0.39332,1.8758047 -0.72612,2.5111577 -0.66561,1.270706 -1.60351,1.996824 -2.60192,1.996824 -0.51434,0 -0.96816,-0.12102 -1.69428,-0.514334 z m 5.86946,-5.4761389 c -0.66561,0.5143335 -1.33122,0.8168826 -1.90606,0.8168826 -0.78663,0 -1.36147,-0.7261178 -1.36147,-1.6942749 0,-1.2101964 0.72611,-2.0875888 1.75478,-2.0875888 0.9379,0 1.543,0.8168826 1.543,2.1178437 0,0.2117843 0,0.4235687 -0.0302,0.8471374 z m 0,0"
     style="fill:#000000;fill-opacity:1;stroke:none;stroke-width:0"
     inkscape:connector-curvature="0" />
  <path
     id="path2486"
     d="m 54.161228,24.692776 c 0.09076,-0.423569 0.211784,-0.816882 0.302549,-1.240451 0.242039,-0.937902 0.242039,-0.998412 0.484078,-1.391726 0.544589,-0.968157 1.391726,-2.087589 2.722942,-2.087589 0.877393,0 0.877393,0.998412 0.877393,1.270706 0,0.514334 -0.12102,1.089177 -0.18153,1.270707 l -1.240451,4.99206 c -0.03026,0.121019 -0.06051,0.242039 -0.06051,0.272294 0,0.211784 0.151275,0.514333 0.544588,0.514333 0.24204,0 0.544589,-0.121019 0.695863,-0.514333 l 0.756373,-3.086001 c 0.12102,-0.423569 0.211784,-0.816882 0.332804,-1.240451 0.242039,-0.937902 0.242039,-0.998412 0.484079,-1.391726 0.544588,-0.968157 1.391725,-2.087589 2.722941,-2.087589 0.877393,0 0.877393,0.998412 0.877393,1.270706 0,1.210197 -0.847138,3.50957 -1.119432,4.265943 -0.242039,0.665608 -0.302549,0.847137 -0.302549,1.240451 0,0.847137 0.544588,1.543 1.452236,1.543 1.815294,0 2.450647,-2.874216 2.450647,-2.964981 0,-0.211784 -0.151274,-0.211784 -0.272294,-0.211784 -0.272294,0 -0.272294,0.06051 -0.332804,0.332804 -0.151274,0.514333 -0.695863,2.420393 -1.815294,2.420393 -0.393314,0 -0.423569,-0.302549 -0.423569,-0.574844 0,-0.453823 0.211784,-0.968157 0.363059,-1.42198 0.393314,-1.028667 1.179941,-3.207021 1.179941,-4.326452 0,-1.603511 -1.119431,-1.996824 -2.027079,-1.996824 -1.361471,0 -2.329628,0.847137 -2.904471,1.694274 -0.151275,-1.331216 -1.149687,-1.694274 -2.027079,-1.694274 -1.149686,0 -2.087589,0.635353 -2.753197,1.512745 -0.151274,-0.937902 -0.786627,-1.512745 -1.633765,-1.512745 -0.695863,0 -1.058922,0.453823 -1.391726,1.028666 -0.363059,0.756373 -0.605098,1.90606 -0.605098,1.936315 0,0.211784 0.18153,0.211784 0.302549,0.211784 0.24204,0 0.24204,-0.03026 0.363059,-0.453824 0.332804,-1.361471 0.695863,-2.299373 1.300961,-2.299373 0.514334,0 0.514334,0.574844 0.514334,0.786628 0,0.302549 -0.06051,0.665608 -0.151275,0.968157 l -1.452235,5.778688 c -0.03026,0.121019 -0.06051,0.242039 -0.06051,0.272294 0,0.211784 0.151274,0.514333 0.544588,0.514333 0.242039,0 0.574843,-0.121019 0.695863,-0.514333 z m 0,0"
     style="fill:#000000;fill-opacity:1;stroke:none;stroke-width:0"
     inkscape:connector-curvature="0" />
  <path
     id="path2488"
     d="m 70.088448,23.633854 c 0.605098,0 1.875805,-0.06051 2.813707,-0.423568 1.512745,-0.635354 1.512745,-1.875805 1.512745,-2.027079 0,-0.877393 -0.695863,-1.633765 -1.936314,-1.633765 -2.027079,0 -4.780276,1.936314 -4.780276,5.355119 0,1.754784 0.907648,3.388549 2.753197,3.388549 2.480903,0 4.084413,-1.936314 4.084413,-2.208608 0,-0.12102 -0.18153,-0.332804 -0.332804,-0.332804 -0.06051,0 -0.09076,0.03026 -0.242039,0.211784 -1.421981,1.815295 -3.146511,1.90606 -3.479315,1.90606 -1.240451,0 -1.452236,-1.361471 -1.452236,-2.117844 0,-0.726118 0.18153,-1.60351 0.332804,-2.117844 z m -0.635353,-0.423568 c 0.847138,-3.176766 2.843962,-3.237276 3.025491,-3.237276 0.756373,0 1.210196,0.514334 1.210196,1.179942 0,2.057334 -3.176765,2.057334 -3.812118,2.057334 z m 0,0"
     style="fill:#000000;fill-opacity:1;stroke:none;stroke-width:0"
     inkscape:connector-curvature="0" />
  <path
     id="path2492"
     d="m 77.978367,23.633854 c 0.605098,0 1.875805,-0.06051 2.813707,-0.423568 1.512745,-0.635354 1.512745,-1.875805 1.512745,-2.027079 0,-0.877393 -0.695863,-1.633765 -1.936314,-1.633765 -2.027079,0 -4.780276,1.936314 -4.780276,5.355119 0,1.754784 0.907648,3.388549 2.753197,3.388549 2.480903,0 4.084413,-1.936314 4.084413,-2.208608 0,-0.12102 -0.18153,-0.332804 -0.332804,-0.332804 -0.06051,0 -0.09077,0.03026 -0.242039,0.211784 -1.421981,1.815295 -3.146511,1.90606 -3.479315,1.90606 -1.240451,0 -1.452236,-1.361471 -1.452236,-2.117844 0,-0.726118 0.18153,-1.60351 0.332804,-2.117844 z m -0.635353,-0.423568 c 0.847138,-3.176766 2.843962,-3.237276 3.025491,-3.237276 0.756373,0 1.210196,0.514334 1.210196,1.179942 0,2.057334 -3.176765,2.057334 -3.812118,2.057334 z m 0,0"
     style="fill:#000000;fill-opacity:1;stroke:none;stroke-width:0"
     inkscape:connector-curvature="0" />
  <path
     id="path2494"
     d="m 87.275657,20.366324 h 1.633765 c 0.332804,0 0.544588,0 0.544588,-0.363059 0,-0.242039 -0.181529,-0.242039 -0.484078,-0.242039 h -1.543 l 0.726117,-2.843962 c 0.06051,-0.272294 0.06051,-0.332804 0.06051,-0.423568 0,-0.393314 -0.332804,-0.484079 -0.514333,-0.484079 -0.484079,0 -0.665608,0.393314 -0.756373,0.695863 l -0.756373,3.055746 h -1.633765 c -0.332804,0 -0.544588,0 -0.544588,0.363059 0,0.242039 0.181529,0.242039 0.484078,0.242039 h 1.543001 l -1.391726,5.536649 c -0.03025,0.06051 -0.09076,0.393313 -0.09076,0.665608 0,0.937902 0.635353,1.724529 1.633765,1.724529 1.966569,0 2.934726,-2.874216 2.934726,-2.964981 0,-0.211784 -0.151274,-0.211784 -0.272294,-0.211784 -0.242039,0 -0.242039,0.03026 -0.393314,0.393314 -0.363058,0.907647 -1.119431,2.359883 -2.238863,2.359883 -0.514333,0 -0.514333,-0.484079 -0.514333,-0.786628 0,-0.151275 0,-0.453824 0.151274,-0.998412 z m 0,0"
     style="fill:#000000;fill-opacity:1;stroke:none;stroke-width:0"
     inkscape:connector-curvature="0" />
  <path
     id="path2496"
     d="m 95.045515,25.328129 c 0,-0.211784 -0.151275,-0.211784 -0.272294,-0.211784 -0.272294,0 -0.272294,0.06051 -0.332804,0.332804 -0.151275,0.574843 -0.695863,2.420393 -1.815295,2.420393 -0.151274,0 -0.423569,-0.03026 -0.423569,-0.544589 0,-0.484078 0.272295,-1.149686 0.514334,-1.845549 l 1.240451,-3.297785 c 0.18153,-0.574844 0.211785,-0.726118 0.211785,-1.089177 0,-1.058922 -0.726118,-1.543 -1.421981,-1.543 -1.815295,0 -2.480903,2.874216 -2.480903,2.964981 0,0.211784 0.18153,0.211784 0.302549,0.211784 0.24204,0 0.24204,-0.06051 0.332804,-0.332804 0.18153,-0.635353 0.665608,-2.420393 1.78504,-2.420393 0.211784,0 0.423569,0.09077 0.423569,0.544589 0,0.453823 -0.211785,1.028667 -0.332804,1.391725 l -0.574844,1.603511 c -0.272294,0.635353 -0.484078,1.270706 -0.726117,1.906059 -0.272295,0.726118 -0.332804,0.937902 -0.332804,1.331216 0,0.756373 0.453823,1.543 1.452235,1.543 1.815295,0 2.450648,-2.904471 2.450648,-2.964981 z m -0.09076,-9.258002 c 0,-0.484079 -0.393314,-0.665608 -0.665608,-0.665608 -0.393314,0 -0.907647,0.393314 -0.907647,0.937902 0,0.484079 0.363059,0.635353 0.635353,0.635353 0.393314,0 0.937902,-0.363059 0.937902,-0.907647 z m 0,0"
     style="fill:#000000;fill-opacity:1;stroke:none;stroke-width:0"
     inkscape:connector-curvature="0" />
  <path
     id="path2498"
     d="m 99.025667,24.692776 c 0.09076,-0.423569 0.211784,-0.816882 0.302549,-1.240451 0.242039,-0.998412 0.242039,-0.998412 0.574843,-1.573255 0.272291,-0.453824 1.149691,-1.90606 2.601921,-1.90606 0.84714,0 0.90765,0.877393 0.90765,1.270706 0,1.210197 -0.87739,3.50957 -1.11943,4.265943 -0.2723,0.665608 -0.33281,0.847137 -0.33281,1.240451 0,0.847137 0.54459,1.543 1.48249,1.543 1.78504,0 2.45065,-2.874216 2.45065,-2.964981 0,-0.211784 -0.15127,-0.211784 -0.30255,-0.211784 -0.24204,0 -0.24204,0.06051 -0.3328,0.332804 -0.15128,0.514333 -0.66561,2.420393 -1.78504,2.420393 -0.39332,0 -0.42357,-0.302549 -0.42357,-0.574844 0,-0.453823 0.18153,-0.968157 0.36306,-1.42198 0.36306,-1.028667 1.14969,-3.207021 1.14969,-4.326452 0,-1.573256 -1.05893,-1.996824 -1.99683,-1.996824 -1.57325,0 -2.51116,1.149686 -2.753196,1.512745 -0.151274,-0.937902 -0.786627,-1.512745 -1.633765,-1.512745 -0.695863,0 -1.058922,0.453823 -1.391726,1.028666 -0.363059,0.756373 -0.605098,1.90606 -0.605098,1.936315 0,0.211784 0.18153,0.211784 0.302549,0.211784 0.24204,0 0.24204,-0.03026 0.363059,-0.453824 0.332804,-1.361471 0.695863,-2.299373 1.300961,-2.299373 0.514334,0 0.514334,0.574844 0.514334,0.786628 0,0.302549 -0.06051,0.665608 -0.151275,0.968157 l -1.452235,5.778688 c -0.03026,0.121019 -0.06051,0.242039 -0.06051,0.272294 0,0.211784 0.151274,0.514333 0.544588,0.514333 0.242039,0 0.574843,-0.121019 0.695863,-0.514333 z m 0,0"
     style="fill:#000000;fill-opacity:1;stroke:none;stroke-width:0"
     inkscape:connector-curvature="0" />
  <path
     id="path2500"
     d="m 111.95849,27.052659 -0.42357,1.633765 c -0.21178,0.968157 -0.3328,1.361471 -0.87739,2.027079 -0.78663,0.907647 -1.543,0.907647 -1.84555,0.907647 -0.24204,0 -0.84714,0 -1.36147,-0.211784 0.39331,-0.151275 0.6051,-0.574843 0.6051,-0.907647 0,-0.24204 -0.15128,-0.605098 -0.66561,-0.605098 -0.3328,0 -0.9379,0.272294 -0.9379,1.028666 0,0.756373 0.69586,1.119432 2.32962,1.119432 2.02708,0 3.47932,-1.270706 3.87263,-2.753197 l 2.08759,-8.441119 c 0.0908,-0.302549 0.0908,-0.332804 0.0908,-0.423569 0,-0.393314 -0.33281,-0.484079 -0.54459,-0.484079 -0.21179,0 -0.66561,0.151275 -0.72612,0.695863 -0.27229,-0.544588 -0.81688,-1.089176 -1.63376,-1.089176 -2.1481,0 -4.38697,2.843961 -4.38697,5.566903 0,1.66402 0.90765,2.964981 2.35989,2.964981 0.99841,0 1.81529,-0.786628 2.05733,-1.028667 z m 1.24045,-5.022315 -0.87739,3.50957 c -0.15128,0.605098 -1.33122,2.117843 -2.39014,2.117843 -1.02867,0 -1.05892,-1.48249 -1.05892,-1.694275 0,-0.907647 0.57484,-3.176765 0.96816,-4.084412 0.48408,-1.028667 1.33121,-1.90606 2.08759,-1.90606 1.14968,0 1.33121,1.633765 1.33121,1.78504 z m 0,0"
     style="fill:#000000;fill-opacity:1;stroke:none;stroke-width:0"
     inkscape:connector-curvature="0" />
  <path
     inkscape:connector-curvature="0"
     id="path3172"
     d="m 53.692137,66.760604 h -1.080382 v 4.8066 h 0.330729 v -1.91823 h 0.727605 c 1.036285,0 1.774914,-0.396876 1.774914,-1.466234 0,-0.992188 -0.650434,-1.422136 -1.752866,-1.422136 z m -0.01102,2.612762 h -0.738629 v -2.32613 h 0.749653 c 0.89297,0 1.400088,0.297656 1.400088,1.146528 0,0.903994 -0.584288,1.179602 -1.411112,1.179602 z m 0,0"
     style="fill:#004c1e;fill-opacity:1;stroke:none;stroke-width:0" />
  <path
     inkscape:connector-curvature="0"
     id="path3176"
     d="m 57.570015,67.829962 c -0.937067,0 -1.521356,0.71658 -1.521356,1.907206 0,1.179602 0.56224,1.907206 1.521356,1.907206 0.937066,0 1.521355,-0.727604 1.521355,-1.929255 0,-1.212674 -0.573265,-1.885157 -1.521355,-1.885157 z m 0,0.275608 c 0.749653,0 1.179601,0.551215 1.179601,1.609549 0,1.080383 -0.451997,1.642623 -1.179601,1.642623 -0.738629,0 -1.190626,-0.56224 -1.190626,-1.620574 0,-1.080383 0.463021,-1.631598 1.190626,-1.631598 z m 0,0"
     style="fill:#004c1e;fill-opacity:1;stroke:none;stroke-width:0" />
  <path
     inkscape:connector-curvature="0"
     id="path3178"
     d="m 60.8941,71.644374 c 0.143316,0 0.286632,-0.0441 0.385851,-0.08819 l -0.08819,-0.253559 c -0.07717,0.03307 -0.165364,0.05512 -0.264583,0.05512 -0.209462,0 -0.308681,-0.132292 -0.308681,-0.385851 v -4.619187 l -0.330729,0.0441 v 4.597139 c 0,0.440972 0.253559,0.650434 0.606337,0.650434 z m 0,0"
     style="fill:#004c1e;fill-opacity:1;stroke:none;stroke-width:0" />
  <path
     inkscape:connector-curvature="0"
     id="path3180"
     d="m 62.51763,66.330656 c -0.15434,0 -0.253559,0.121267 -0.253559,0.253559 0,0.132292 0.09922,0.242535 0.253559,0.242535 0.154341,0 0.253559,-0.110243 0.253559,-0.242535 0,-0.132292 -0.09922,-0.253559 -0.253559,-0.253559 z m 0.165365,1.565452 H 62.36329 v 3.671096 h 0.319705 z m 0,0"
     style="fill:#004c1e;fill-opacity:1;stroke:none;stroke-width:0" />
  <path
     inkscape:connector-curvature="0"
     id="path3182"
     d="m 65.696252,71.192377 c -0.187414,0.09922 -0.374827,0.165365 -0.595313,0.165365 -0.385851,0 -0.573264,-0.23151 -0.573264,-0.672483 v -2.513543 h 0.926042 l 0.0441,-0.275608 h -0.970139 v -0.926042 l -0.319705,0.03307 v 0.892969 h -0.617362 v 0.275608 h 0.617362 v 2.535592 c 0,0.617361 0.330729,0.937066 0.859896,0.937066 0.297656,0 0.540191,-0.08819 0.760677,-0.220486 z m 0,0"
     style="fill:#004c1e;fill-opacity:1;stroke:none;stroke-width:0" />
  <path
     inkscape:connector-curvature="0"
     id="path3186"
     d="m 69.053125,69.582828 c 0,-1.058334 -0.463021,-1.752866 -1.389064,-1.752866 -0.881945,0 -1.444185,0.749653 -1.444185,1.929255 0,1.179601 0.584289,1.885157 1.521356,1.885157 0.485069,0 0.837847,-0.165364 1.179601,-0.451997 l -0.165365,-0.209462 c -0.319705,0.242535 -0.584288,0.374827 -1.003212,0.374827 -0.661459,0 -1.146529,-0.440972 -1.20165,-1.488282 H 69.0421 c 0.01102,-0.06615 0.01102,-0.176389 0.01102,-0.286632 z m -0.308681,0.03307 h -2.193838 c 0.0441,-1.058334 0.529167,-1.521355 1.12448,-1.521355 0.727604,0 1.069358,0.562239 1.069358,1.389063 z m 0,0"
     style="fill:#004c1e;fill-opacity:1;stroke:none;stroke-width:0" />
  <path
     inkscape:connector-curvature="0"
     id="path3188"
     d="m 71.484746,67.829962 c -0.926042,0 -1.53238,0.738629 -1.53238,1.91823 0,1.201651 0.606338,1.896182 1.53238,1.896182 0.407899,0 0.760677,-0.143316 1.036285,-0.396875 l -0.176389,-0.209462 c -0.242535,0.198438 -0.507118,0.319705 -0.859896,0.319705 -0.694532,0 -1.190626,-0.518143 -1.190626,-1.60955 0,-1.091407 0.496094,-1.642622 1.20165,-1.642622 0.341754,0 0.595313,0.110243 0.826824,0.297656 l 0.165364,-0.220486 c -0.297656,-0.253559 -0.606337,-0.352778 -1.003212,-0.352778 z m 0,0"
     style="fill:#004c1e;fill-opacity:1;stroke:none;stroke-width:0" />
  <path
     inkscape:connector-curvature="0"
     id="path3190"
     d="m 75.102093,67.829962 c -0.540192,0 -0.959116,0.286632 -1.267796,0.71658 l -0.03307,-0.650434 h -0.275608 v 3.671096 h 0.319705 v -2.678908 c 0.319705,-0.463021 0.683507,-0.79375 1.212674,-0.79375 0.48507,0 0.727605,0.275607 0.727605,0.892969 v 2.579689 h 0.319705 v -2.612762 c 0,-0.71658 -0.330729,-1.12448 -1.003212,-1.12448 z m 0,0"
     style="fill:#004c1e;fill-opacity:1;stroke:none;stroke-width:0" />
  <path
     inkscape:connector-curvature="0"
     id="path3192"
     d="m 77.763905,66.330656 c -0.15434,0 -0.253559,0.121267 -0.253559,0.253559 0,0.132292 0.09922,0.242535 0.253559,0.242535 0.154341,0 0.253559,-0.110243 0.253559,-0.242535 0,-0.132292 -0.09922,-0.253559 -0.253559,-0.253559 z m 0.165365,1.565452 h -0.319705 v 3.671096 h 0.319705 z m 0,0"
     style="fill:#004c1e;fill-opacity:1;stroke:none;stroke-width:0" />
  <path
     inkscape:connector-curvature="0"
     id="path3194"
     d="m 80.699992,67.829962 c -0.926042,0 -1.53238,0.738629 -1.53238,1.91823 0,1.201651 0.606338,1.896182 1.53238,1.896182 0.407899,0 0.760677,-0.143316 1.036285,-0.396875 l -0.176389,-0.209462 c -0.242535,0.198438 -0.507118,0.319705 -0.859896,0.319705 -0.694532,0 -1.190626,-0.518143 -1.190626,-1.60955 0,-1.091407 0.496094,-1.642622 1.20165,-1.642622 0.341754,0 0.595313,0.110243 0.826824,0.297656 l 0.165364,-0.220486 c -0.297656,-0.253559 -0.606337,-0.352778 -1.003212,-0.352778 z m 0,0"
     style="fill:#004c1e;fill-opacity:1;stroke:none;stroke-width:0" />
  <path
     inkscape:connector-curvature="0"
     id="path3198"
     d="m 83.887239,67.829962 c -0.937067,0 -1.521356,0.71658 -1.521356,1.907206 0,1.179602 0.56224,1.907206 1.521356,1.907206 0.937066,0 1.521355,-0.727604 1.521355,-1.929255 0,-1.212674 -0.573265,-1.885157 -1.521355,-1.885157 z m 0,0.275608 c 0.749653,0 1.179601,0.551215 1.179601,1.609549 0,1.080383 -0.451997,1.642623 -1.179601,1.642623 -0.738629,0 -1.190626,-0.56224 -1.190626,-1.620574 0,-1.080383 0.463021,-1.631598 1.190626,-1.631598 z m 0,0"
     style="fill:#004c1e;fill-opacity:1;stroke:none;stroke-width:0" />
  <path
     inkscape:connector-curvature="0"
     id="path3202"
     d="m 90.828178,66.352704 v 1.984376 c -0.209462,-0.253559 -0.518143,-0.507118 -1.04731,-0.507118 -0.903994,0 -1.433161,0.782726 -1.433161,1.91823 0,1.168578 0.529167,1.896182 1.367015,1.896182 0.56224,0 0.915018,-0.297656 1.12448,-0.650434 l 0.03307,0.573264 h 0.275608 v -5.170403 z m -1.080383,5.005038 c -0.650434,0 -1.058334,-0.573264 -1.069358,-1.60955 0,-1.058334 0.463021,-1.653646 1.146528,-1.653646 0.474046,0 0.782727,0.264583 1.003213,0.584288 v 1.951303 c -0.253559,0.463022 -0.551216,0.727605 -1.080383,0.727605 z m 0,0"
     style="fill:#004c1e;fill-opacity:1;stroke:none;stroke-width:0" />
  <path
     inkscape:connector-curvature="0"
     id="path3204"
     d="m 92.841482,66.330656 c -0.15434,0 -0.253559,0.121267 -0.253559,0.253559 0,0.132292 0.09922,0.242535 0.253559,0.242535 0.154341,0 0.253559,-0.110243 0.253559,-0.242535 0,-0.132292 -0.09922,-0.253559 -0.253559,-0.253559 z m 0.165365,1.565452 h -0.319705 v 3.671096 h 0.319705 z m 0,0"
     style="fill:#004c1e;fill-opacity:1;stroke:none;stroke-width:0" />
  <path
     inkscape:connector-curvature="0"
     id="path3208"
     d="m 99.118814,66.760604 h -3.241148 v 0.297656 h 1.433161 v 4.508944 h 0.330729 V 67.05826 h 1.433161 z m 0,0"
     style="fill:#004c1e;fill-opacity:1;stroke:none;stroke-width:0" />
  <path
     inkscape:connector-curvature="0"
     id="path3212"
     d="m 100.79942,67.829962 c -0.937063,0 -1.521352,0.71658 -1.521352,1.907206 0,1.179602 0.56224,1.907206 1.521352,1.907206 0.93707,0 1.52136,-0.727604 1.52136,-1.929255 0,-1.212674 -0.57327,-1.885157 -1.52136,-1.885157 z m 0,0.275608 c 0.74966,0 1.17961,0.551215 1.17961,1.609549 0,1.080383 -0.452,1.642623 -1.17961,1.642623 -0.73863,0 -1.190622,-0.56224 -1.190622,-1.620574 0,-1.080383 0.463022,-1.631598 1.190622,-1.631598 z m 0,0"
     style="fill:#004c1e;fill-opacity:1;stroke:none;stroke-width:0" />
  <path
     inkscape:connector-curvature="0"
     id="path3214"
     d="m 104.91726,67.829962 c -0.52916,0 -0.85989,0.297657 -1.05833,0.915018 l -0.0221,-0.848872 h -0.27561 v 3.671096 h 0.31971 v -2.293057 c 0.19843,-0.771702 0.49609,-1.146528 1.01423,-1.146528 0.12127,0 0.23151,0.01102 0.33073,0.0441 l 0.0551,-0.308681 c -0.0882,-0.02205 -0.20946,-0.03307 -0.3638,-0.03307 z m 0,0"
     style="fill:#004c1e;fill-opacity:1;stroke:none;stroke-width:0" />
  <path
     inkscape:connector-curvature="0"
     id="path3216"
     d="m 106.30234,66.330656 c -0.15434,0 -0.25356,0.121267 -0.25356,0.253559 0,0.132292 0.0992,0.242535 0.25356,0.242535 0.15434,0 0.25356,-0.110243 0.25356,-0.242535 0,-0.132292 -0.0992,-0.253559 -0.25356,-0.253559 z m 0.16537,1.565452 H 106.148 v 3.671096 h 0.31971 z m 0,0"
     style="fill:#004c1e;fill-opacity:1;stroke:none;stroke-width:0" />
  <path
     inkscape:connector-curvature="0"
     id="path3218"
     d="m 109.58018,67.829962 c -0.54019,0 -0.95912,0.286632 -1.2678,0.71658 l -0.0331,-0.650434 h -0.27561 v 3.671096 h 0.31971 v -2.678908 c 0.3197,-0.463021 0.6835,-0.79375 1.21267,-0.79375 0.48507,0 0.72761,0.275607 0.72761,0.892969 v 2.579689 h 0.3197 v -2.612762 c 0,-0.71658 -0.33073,-1.12448 -1.00321,-1.12448 z m 0,0"
     style="fill:#004c1e;fill-opacity:1;stroke:none;stroke-width:0" />
  <path
     inkscape:connector-curvature="0"
     id="path3220"
     d="m 113.31135,67.829962 c -0.93707,0 -1.52135,0.71658 -1.52135,1.907206 0,1.179602 0.56224,1.907206 1.52135,1.907206 0.93707,0 1.52136,-0.727604 1.52136,-1.929255 0,-1.212674 -0.57327,-1.885157 -1.52136,-1.885157 z m 0,0.275608 c 0.74965,0 1.1796,0.551215 1.1796,1.609549 0,1.080383 -0.45199,1.642623 -1.1796,1.642623 -0.73863,0 -1.19063,-0.56224 -1.19063,-1.620574 0,-1.080383 0.46303,-1.631598 1.19063,-1.631598 z m 0,0"
     style="fill:#004c1e;fill-opacity:1;stroke:none;stroke-width:0" />
  <path
     inkscape:connector-curvature="0"
     id="path3268"
     d="m 67.32984,75.526833 c -0.56224,0 -0.970139,0.220486 -1.344966,0.71658 l 0.220487,0.165365 c 0.30868,-0.396876 0.63941,-0.606338 1.113455,-0.606338 0.606337,0 0.937067,0.396876 0.937067,0.926043 0,0.650434 -0.352778,1.212674 -2.182814,2.513543 v 0.286632 h 2.590713 l 0.05512,-0.297656 h -2.215887 c 1.697744,-1.146529 2.094619,-1.774915 2.094619,-2.524568 0,-0.661459 -0.451996,-1.179601 -1.267796,-1.179601 z m 0,0"
     style="fill:#004c1e;fill-opacity:1;stroke:none;stroke-width:0" />
  <path
     inkscape:connector-curvature="0"
     id="path3272"
     d="m 71.093389,76.496972 c -0.56224,0 -0.970139,0.297656 -1.256772,0.749653 0.02205,-1.267796 0.48507,-2.193838 1.344967,-2.193838 0.297656,0 0.496094,0.07717 0.727604,0.231511 l 0.154341,-0.231511 c -0.242535,-0.165365 -0.496094,-0.275608 -0.870921,-0.275608 -1.058334,0 -1.68672,1.014237 -1.68672,2.678908 0,1.190626 0.374827,2.149741 1.466234,2.149741 0.804774,0 1.389063,-0.617361 1.389063,-1.642622 0,-1.003213 -0.573264,-1.466234 -1.267796,-1.466234 z m -0.121267,2.822224 c -0.804775,0 -1.113456,-0.672483 -1.135505,-1.708768 0.275608,-0.496094 0.694532,-0.826824 1.223699,-0.826824 0.56224,0 0.97014,0.352778 0.97014,1.179602 0,0.79375 -0.352778,1.35599 -1.058334,1.35599 z m 0,0"
     style="fill:#004c1e;fill-opacity:1;stroke:none;stroke-width:0" />
  <path
     inkscape:connector-curvature="0"
     id="path3276"
     d="m 77.156884,74.644888 c -1.135504,0 -1.929255,0.903993 -1.929255,2.491494 0,1.598525 0.782726,2.469446 1.929255,2.469446 1.179601,0 1.940279,-0.903993 1.940279,-2.48047 0,-1.620574 -0.782726,-2.48047 -1.940279,-2.48047 z m 0,0.286632 c 0.970139,0 1.587501,0.71658 1.587501,2.193838 0,1.466233 -0.606337,2.182814 -1.587501,2.182814 -0.937067,0 -1.576477,-0.716581 -1.576477,-2.17179 0,-1.488282 0.63941,-2.204862 1.576477,-2.204862 z m 0,0"
     style="fill:#004c1e;fill-opacity:1;stroke:none;stroke-width:0" />
  <path
     inkscape:connector-curvature="0"
     id="path3278"
     d="m 81.595121,75.791416 c -0.926042,0 -1.53238,0.738629 -1.53238,1.91823 0,1.20165 0.606338,1.896182 1.53238,1.896182 0.407899,0 0.760677,-0.143316 1.036285,-0.396875 l -0.176389,-0.209462 c -0.242535,0.198438 -0.507118,0.319705 -0.859896,0.319705 -0.694532,0 -1.190626,-0.518143 -1.190626,-1.60955 0,-1.091407 0.496094,-1.642622 1.20165,-1.642622 0.341754,0 0.595313,0.110243 0.826824,0.297656 l 0.165364,-0.220486 c -0.297656,-0.253559 -0.606337,-0.352778 -1.003212,-0.352778 z m 0,0"
     style="fill:#004c1e;fill-opacity:1;stroke:none;stroke-width:0" />
  <path
     inkscape:connector-curvature="0"
     id="path3280"
     d="m 85.113249,79.153831 c -0.187414,0.09922 -0.374827,0.165365 -0.595313,0.165365 -0.385851,0 -0.573264,-0.231511 -0.573264,-0.672483 V 76.13317 h 0.926042 l 0.0441,-0.275608 H 83.944672 V 74.93152 l -0.319705,0.03307 v 0.892969 h -0.617362 v 0.275608 h 0.617362 v 2.535592 c 0,0.617361 0.330729,0.937066 0.859896,0.937066 0.297656,0 0.540191,-0.08819 0.760678,-0.220486 z m 0,0"
     style="fill:#004c1e;fill-opacity:1;stroke:none;stroke-width:0" />
  <path
     inkscape:connector-curvature="0"
     id="path3284"
     d="m 87.158229,75.791416 c -0.937067,0 -1.521356,0.71658 -1.521356,1.907206 0,1.179602 0.56224,1.907206 1.521356,1.907206 0.937066,0 1.521355,-0.727604 1.521355,-1.929255 0,-1.212674 -0.573265,-1.885157 -1.521355,-1.885157 z m 0,0.275608 c 0.749653,0 1.179601,0.551215 1.179601,1.609549 0,1.080383 -0.451997,1.642623 -1.179601,1.642623 -0.738629,0 -1.190626,-0.56224 -1.190626,-1.620574 0,-1.080383 0.463021,-1.631598 1.190626,-1.631598 z m 0,0"
     style="fill:#004c1e;fill-opacity:1;stroke:none;stroke-width:0" />
  <path
     inkscape:connector-curvature="0"
     id="path3286"
     d="m 91.36426,75.791416 c -0.496094,0 -0.859897,0.242535 -1.12448,0.595313 v -2.072571 l -0.319705,0.0441 v 5.170403 h 0.275608 l 0.03307,-0.48507 c 0.23151,0.308681 0.595313,0.56224 1.091407,0.56224 0.881945,0 1.378039,-0.749653 1.378039,-1.929255 0,-1.223698 -0.48507,-1.885157 -1.333942,-1.885157 z m -0.09922,3.52778 c -0.440972,0 -0.782726,-0.242535 -1.025261,-0.595313 V 76.717458 C 90.515388,76.342632 90.813044,76.056 91.320163,76.056 c 0.661458,0 1.025261,0.518142 1.025261,1.620573 0,1.080383 -0.385851,1.642623 -1.080384,1.642623 z m 0,0"
     style="fill:#004c1e;fill-opacity:1;stroke:none;stroke-width:0" />
  <path
     inkscape:connector-curvature="0"
     id="path3288"
     d="m 96.462294,77.544282 c 0,-1.058334 -0.463021,-1.752866 -1.389064,-1.752866 -0.881945,0 -1.444185,0.749653 -1.444185,1.929255 0,1.179601 0.584289,1.885157 1.521356,1.885157 0.485069,0 0.837847,-0.165365 1.179601,-0.451997 l -0.165365,-0.209462 c -0.319705,0.242535 -0.584288,0.374827 -1.003212,0.374827 -0.661459,0 -1.146529,-0.440972 -1.20165,-1.488282 h 2.491494 c 0.01103,-0.06615 0.01103,-0.176389 0.01103,-0.286632 z m -0.308681,0.03307 h -2.193838 c 0.0441,-1.058334 0.529167,-1.521355 1.12448,-1.521355 0.727604,0 1.069358,0.562239 1.069358,1.389063 z m 0,0"
     style="fill:#004c1e;fill-opacity:1;stroke:none;stroke-width:0" />
  <path
     inkscape:connector-curvature="0"
     id="path3290"
     d="m 99.015182,75.791416 c -0.529167,0 -0.859896,0.297656 -1.058334,0.915018 L 97.9348,75.857562 h -0.275608 v 3.671096 h 0.319705 v -2.293057 c 0.198438,-0.771702 0.496094,-1.146529 1.014237,-1.146529 0.121267,0 0.23151,0.01103 0.330729,0.0441 l 0.05512,-0.308681 c -0.08819,-0.02205 -0.209462,-0.03307 -0.363803,-0.03307 z m 0,0"
     style="fill:#004c1e;fill-opacity:1;stroke:none;stroke-width:0" />
  <path
     inkscape:connector-curvature="0"
     id="path3294"
     d="m 103.00289,75.526833 c -0.56224,0 -0.97014,0.220486 -1.34497,0.71658 l 0.22049,0.165365 c 0.30868,-0.396876 0.63941,-0.606338 1.11346,-0.606338 0.60633,0 0.93706,0.396876 0.93706,0.926043 0,0.650434 -0.35278,1.212674 -2.18281,2.513543 v 0.286632 h 2.59071 l 0.0551,-0.297656 h -2.21588 c 1.69774,-1.146529 2.09462,-1.774915 2.09462,-2.524568 0,-0.661459 -0.452,-1.179601 -1.2678,-1.179601 z m 0,0"
     style="fill:#004c1e;fill-opacity:1;stroke:none;stroke-width:0" />
  <path
     inkscape:connector-curvature="0"
     id="path3296"
     d="m 106.90703,75.526833 c -0.98117,0 -1.69775,0.760677 -1.69775,2.039497 0,1.289845 0.72761,2.028474 1.69775,2.028474 1.00321,0 1.70876,-0.771702 1.70876,-2.028474 0,-1.311893 -0.70555,-2.039497 -1.70876,-2.039497 z m 0.011,0.275607 c 0.7717,0 1.36701,0.573265 1.36701,1.76389 0,1.157553 -0.59531,1.741842 -1.37803,1.741842 -0.73863,0 -1.36702,-0.56224 -1.36702,-1.741842 0,-1.179601 0.61736,-1.76389 1.37804,-1.76389 z m 0,0"
     style="fill:#004c1e;fill-opacity:1;stroke:none;stroke-width:0" />
  <path
     inkscape:connector-curvature="0"
     id="path3300"
     d="m 110.80437,75.581954 h -0.26458 l -1.43316,0.859896 0.15434,0.242535 1.2237,-0.738629 v 3.582902 h 0.3197 z m 0,0"
     style="fill:#004c1e;fill-opacity:1;stroke:none;stroke-width:0" />
  <path
     inkscape:connector-curvature="0"
     id="path3302"
     d="m 113.43262,75.526833 c -0.82682,0 -1.42213,0.584288 -1.42213,1.51033 0,0.89297 0.54019,1.45521 1.28984,1.45521 0.51814,0 0.91502,-0.25356 1.20165,-0.683508 -0.0772,1.256772 -0.8158,1.874133 -2.10564,2.259984 l 0.0882,0.264584 c 1.5434,-0.474046 2.34818,-1.179602 2.34818,-2.932467 0,-1.146529 -0.42995,-1.874133 -1.40009,-1.874133 z m -0.0772,2.678907 c -0.61736,0 -1.01424,-0.418923 -1.01424,-1.168577 0,-0.782726 0.41893,-1.234723 1.09141,-1.234723 0.76068,0 1.06936,0.584289 1.06936,1.664672 -0.30868,0.474045 -0.63941,0.738628 -1.14653,0.738628 z m 0,0"
     style="fill:#004c1e;fill-opacity:1;stroke:none;stroke-width:0" />
</svg>
