<?xml version="1.0" encoding="UTF-8"?>
<svg xmlns="http://www.w3.org/2000/svg" xmlns:xlink="http://www.w3.org/1999/xlink" width="130.040146pt" height="69.090813pt" viewBox="0 0 130.040146 69.090813" version="1.1">
<defs>
<clipPath id="clip1">
  <path d="M 0 0 L 71 0 L 71 69.089844 L 0 69.089844 Z M 0 0 "/>
</clipPath>
<clipPath id="clip2">
  <path d="M 87 1 L 130.039063 1 L 130.039063 43 L 87 43 Z M 87 1 "/>
</clipPath>
</defs>
<g id="surface1">
<g clip-path="url(#clip1)" clip-rule="nonzero">
<path style=" stroke:none;fill-rule:nonzero;fill:rgb(0%,29.803467%,11.764526%);fill-opacity:1;" d="M 22.691406 0 C 10.453125 0 0 9.558594 0 22.054688 C 0 34.164063 10.070313 44.109375 22.820313 44.109375 C 25.367188 44.109375 30.535156 43.78125 33.851563 40.382813 L 33.851563 49.839844 C 33.851563 51.882813 33.851563 54.8125 34.105469 55.960938 C 34.742188 62.460938 41.246094 69.089844 50.296875 69.089844 C 59.730469 69.089844 64.957031 60.804688 65.085938 54.8125 L 65.085938 33.269531 C 65.085938 29.953125 67.25 28.167969 70.949219 28.167969 L 70.949219 26.128906 C 68.910156 26.257813 64.574219 26.386719 64.066406 26.386719 C 61.769531 26.386719 59.476563 26.257813 57.179688 26.128906 L 57.179688 28.167969 C 63.042969 28.167969 63.042969 32.503906 63.042969 34.414063 L 63.042969 53.410156 C 63.042969 62.84375 56.035156 67.050781 50.550781 67.050781 C 48.003906 67.050781 39.714844 66.03125 39.714844 53.917969 L 39.714844 31.992188 C 39.714844 31.625 39.722656 31.300781 39.738281 30.996094 C 39.800781 30.445313 39.867188 29.980469 39.976563 29.621094 C 40.464844 28.410156 41.828125 28.167969 45.578125 28.167969 L 45.578125 26.128906 C 43.285156 26.257813 38.570313 26.386719 36.785156 26.386719 C 36.679688 26.386719 36.570313 26.398438 36.464844 26.40625 C 36.34375 26.402344 36.191406 26.386719 36.078125 26.386719 C 33.144531 26.386719 28.429688 26.386719 25.625 26.132813 L 25.625 28.171875 L 27.28125 28.171875 C 33.398438 28.171875 33.78125 29.066406 33.78125 32.253906 L 33.78125 34.800781 C 33.78125 36.585938 33.78125 38.625 30.46875 40.410156 C 28.683594 41.558594 26.007813 42.070313 23.582031 42.070313 C 18.613281 42.070313 6.882813 39.390625 6.882813 22.054688 C 6.882813 4.207031 19.25 2.039063 23.203125 2.039063 C 29.191406 2.039063 35.949219 6.246094 37.480469 16.570313 C 37.734375 17.210938 37.734375 17.71875 38.628906 17.71875 C 39.648438 17.71875 39.648438 17.210938 39.648438 15.679688 L 39.648438 1.910156 C 39.648438 0.636719 39.648438 0 38.882813 0 C 38.371094 0 38.246094 0.128906 37.605469 1.019531 L 34.421875 5.097656 C 31.363281 1.785156 27.152344 0 22.691406 0 Z M 22.691406 0 "/>
</g>
<g clip-path="url(#clip2)" clip-rule="nonzero">
<path style=" stroke:none;fill-rule:nonzero;fill:rgb(0%,29.803467%,11.764526%);fill-opacity:1;" d="M 128.894531 1.65625 L 88.992188 1.65625 L 87.84375 15.425781 L 89.882813 15.425781 C 90.648438 5.097656 92.179688 3.695313 101.230469 3.695313 C 105.820313 3.695313 106.074219 3.695313 106.074219 7.140625 L 106.074219 36.839844 C 106.074219 40.027344 105.691406 40.921875 99.445313 40.921875 L 97.789063 40.921875 L 97.789063 42.960938 C 100.972656 42.707031 105.691406 42.707031 109.003906 42.707031 C 112.191406 42.707031 117.035156 42.707031 120.222656 42.960938 L 120.222656 40.921875 L 118.4375 40.921875 C 112.191406 40.921875 111.9375 40.027344 111.9375 36.839844 L 111.9375 7.140625 C 111.9375 3.695313 112.191406 3.695313 116.65625 3.695313 C 125.449219 3.695313 127.234375 5.097656 128 15.425781 L 130.039063 15.425781 Z M 128.894531 1.65625 "/>
</g>
</g>
</svg>
