<?xml version="1.0" encoding="UTF-8"?>
<svg xmlns="http://www.w3.org/2000/svg" xmlns:xlink="http://www.w3.org/1999/xlink" width="330.51004pt" height="232.716827pt" viewBox="0 0 330.51004 232.716827" version="1.1">
<g id="surface1">
<path style=" stroke:none;fill-rule:nonzero;fill:rgb(0%,29.803467%,11.764526%);fill-opacity:1;" d="M 27.691406 37.398438 C 15.453125 37.398438 5 46.957031 5 59.449219 C 5 71.5625 15.070313 81.503906 27.820313 81.503906 C 30.367188 81.503906 35.535156 81.179688 38.851563 77.78125 L 38.851563 87.238281 C 38.851563 89.277344 38.851563 92.210938 39.105469 93.359375 C 39.742188 99.859375 46.246094 106.488281 55.296875 106.488281 C 64.730469 106.488281 69.957031 98.203125 70.085938 92.210938 L 70.085938 70.664063 C 70.085938 67.351563 72.25 65.566406 75.949219 65.566406 L 75.949219 63.527344 C 73.910156 63.65625 69.574219 63.78125 69.066406 63.78125 C 66.769531 63.78125 64.476563 63.65625 62.179688 63.527344 L 62.179688 65.566406 C 68.042969 65.566406 68.042969 69.902344 68.042969 71.8125 L 68.042969 90.808594 C 68.042969 100.242188 61.035156 104.449219 55.550781 104.449219 C 53.003906 104.449219 44.714844 103.429688 44.714844 91.316406 L 44.714844 69.390625 C 44.714844 69.019531 44.722656 68.695313 44.738281 68.394531 C 44.800781 67.84375 44.867188 67.378906 44.976563 67.019531 C 45.464844 65.808594 46.828125 65.566406 50.578125 65.566406 L 50.578125 63.527344 C 48.285156 63.65625 43.570313 63.78125 41.785156 63.78125 C 41.679688 63.78125 41.570313 63.796875 41.464844 63.804688 C 41.34375 63.800781 41.191406 63.785156 41.078125 63.785156 C 38.144531 63.785156 33.429688 63.785156 30.625 63.53125 L 30.625 65.570313 L 32.28125 65.570313 C 38.398438 65.570313 38.78125 66.464844 38.78125 69.652344 L 38.78125 72.199219 C 38.78125 73.984375 38.78125 76.023438 35.46875 77.808594 C 33.683594 78.957031 31.007813 79.464844 28.582031 79.464844 C 23.613281 79.464844 11.882813 76.789063 11.882813 59.449219 C 11.882813 41.605469 24.25 39.4375 28.203125 39.4375 C 34.191406 39.4375 40.949219 43.644531 42.480469 53.96875 C 42.734375 54.605469 42.734375 55.117188 43.628906 55.117188 C 44.648438 55.117188 44.648438 54.605469 44.648438 53.078125 L 44.648438 39.308594 C 44.648438 38.035156 44.648438 37.398438 43.882813 37.398438 C 43.371094 37.398438 43.246094 37.523438 42.605469 38.417969 L 39.421875 42.496094 C 36.363281 39.183594 32.152344 37.398438 27.691406 37.398438 Z M 27.691406 37.398438 "/>
<path style=" stroke:none;fill-rule:nonzero;fill:rgb(0%,29.803467%,11.764526%);fill-opacity:1;" d="M 133.894531 39.054688 L 93.992188 39.054688 L 92.84375 52.824219 L 94.882813 52.824219 C 95.648438 42.496094 97.179688 41.09375 106.230469 41.09375 C 110.820313 41.09375 111.074219 41.09375 111.074219 44.535156 L 111.074219 74.238281 C 111.074219 77.425781 110.691406 78.320313 104.445313 78.320313 L 102.789063 78.320313 L 102.789063 80.359375 C 105.972656 80.101563 110.691406 80.101563 114.003906 80.101563 C 117.191406 80.101563 122.035156 80.101563 125.222656 80.359375 L 125.222656 78.320313 L 123.4375 78.320313 C 117.191406 78.320313 116.9375 77.425781 116.9375 74.238281 L 116.9375 44.535156 C 116.9375 41.09375 117.191406 41.09375 121.65625 41.09375 C 130.449219 41.09375 132.234375 42.496094 133 52.824219 L 135.039063 52.824219 Z M 133.894531 39.054688 "/>
<path style=" stroke:none;fill-rule:nonzero;fill:rgb(0%,0%,1.568604%);fill-opacity:1;" d="M 83.691406 5 L 83.652344 11.449219 L 82.292969 12.671875 L 82.296875 16.648438 L 81.476563 17.597656 L 81.476563 22.203125 L 82.332031 22.773438 L 82.332031 25.902344 L 81.476563 27.433594 L 81.613281 32.480469 L 80.421875 32.71875 L 80.421875 34.25 L 81.476563 34.417969 L 81.296875 56.636719 L 80.046875 57.070313 L 80.046875 58.355469 L 81.296875 58.792969 L 81.296875 60.84375 L 80.046875 61.160156 L 80.046875 62.328125 L 81.296875 62.648438 L 81.296875 66.347656 L 79.804688 67.136719 L 79.804688 68.605469 L 80.730469 69.152344 L 80.730469 75.757813 L 79.46875 76.046875 L 79.359375 77.011719 L 78.050781 77.296875 L 78.050781 79.933594 L 78.976563 80.636719 L 79.097656 87.976563 L 77.613281 93.625 L 75.789063 94.101563 L 75.902344 116.324219 L 74.117188 117.003906 L 74.117188 121.644531 L 75.613281 122.074219 L 75.613281 129.265625 C 68.359375 142.785156 61.480469 157.355469 59.789063 176.441406 L 57.941406 176.714844 L 57.667969 180.042969 L 58.976563 180.59375 L 58.695313 188.589844 L 54.859375 192.644531 L 55.105469 193.84375 L 56.941406 193.785156 L 56.941406 225.4375 L 112.066406 225.4375 L 112.066406 193.785156 L 113.90625 193.839844 L 114.152344 192.644531 L 110.316406 188.589844 L 110.039063 180.59375 L 111.34375 180.042969 L 111.070313 176.714844 L 109.222656 176.441406 C 107.53125 157.355469 100.65625 142.785156 93.398438 129.265625 L 93.398438 122.074219 L 94.898438 121.644531 L 94.898438 117 L 93.109375 116.320313 L 93.222656 94.101563 L 91.398438 93.625 L 89.917969 87.976563 L 90.035156 80.636719 L 90.960938 79.933594 L 90.960938 77.296875 L 89.652344 77.011719 L 89.542969 76.046875 L 88.28125 75.757813 L 88.28125 69.152344 L 89.207031 68.601563 L 89.207031 67.136719 L 87.714844 66.347656 L 87.714844 62.648438 L 88.964844 62.328125 L 88.964844 61.160156 L 87.714844 60.84375 L 87.714844 58.792969 L 88.964844 58.355469 L 88.964844 57.070313 L 87.714844 56.636719 L 87.535156 34.417969 L 88.589844 34.25 L 88.589844 32.71875 L 87.398438 32.480469 L 87.535156 27.433594 L 86.679688 25.902344 L 86.679688 22.769531 L 87.535156 22.203125 L 87.535156 17.597656 L 86.714844 16.648438 L 86.71875 12.671875 L 85.355469 11.449219 L 85.324219 5 Z M 83.691406 5 "/>
<path style=" stroke:none;fill-rule:nonzero;fill:rgb(0%,0%,0%);fill-opacity:1;" d="M 229.160156 38.964844 C 231.132813 36.820313 231.648438 36.390625 232.847656 36.390625 C 233.277344 36.390625 233.878906 36.476563 234.648438 36.734375 C 238.082031 37.507813 242.625 38.363281 243.398438 38.363281 C 243.742188 38.363281 243.996094 38.277344 244.511719 38.109375 C 245.796875 36.136719 247.171875 34.078125 248.542969 31.933594 L 248.199219 30.902344 C 245.199219 34.675781 244.855469 35.019531 243.65625 35.019531 C 243.398438 35.019531 243.054688 34.933594 242.625 34.847656 C 239.453125 34.25 236.621094 33.90625 234.308594 33.476563 C 236.964844 31.074219 238.335938 29.703125 240.054688 28.160156 L 244.167969 24.300781 C 245.371094 23.269531 245.542969 23.097656 246.484375 22.15625 C 247.855469 20.097656 248.457031 18.554688 248.457031 16.496094 C 248.457031 13.492188 246.484375 11.605469 243.65625 11.605469 C 241.253906 11.605469 238.765625 12.464844 236.878906 14.09375 C 235.25 15.378906 234.308594 17.011719 234.308594 18.984375 C 234.308594 19.324219 234.390625 19.582031 234.476563 20.097656 L 237.738281 20.441406 C 237.394531 19.152344 237.222656 18.554688 237.222656 17.695313 C 237.222656 15.125 238.765625 13.492188 241.082031 13.492188 C 243.226563 13.492188 244.855469 15.378906 244.855469 18.039063 C 244.855469 19.496094 244.339844 21.125 243.65625 22.242188 C 242.625 23.871094 241.511719 25.070313 237.910156 28.417969 C 231.90625 34.078125 231.21875 34.761719 228.902344 37.59375 Z M 229.160156 38.964844 "/>
<path style=" stroke:none;fill-rule:nonzero;fill:rgb(0%,0%,0%);fill-opacity:1;" d="M 264.878906 11.4375 C 261.53125 11.4375 257.757813 13.75 255.445313 17.183594 C 253.300781 20.527344 251.585938 26.53125 251.585938 30.902344 C 251.585938 35.878906 253.472656 38.535156 256.988281 38.535156 C 260.933594 38.535156 264.621094 36.050781 266.765625 31.847656 C 268.566406 28.332031 269.9375 22.757813 269.9375 18.898438 C 269.9375 13.921875 268.222656 11.4375 264.878906 11.4375 Z M 262.5625 13.40625 C 264.707031 13.40625 265.90625 15.808594 265.90625 20.269531 C 265.90625 24.042969 264.964844 28.84375 263.417969 32.363281 C 262.304688 35.191406 260.761719 36.820313 259.132813 36.820313 C 257.074219 36.820313 255.617188 34.164063 255.617188 30.390625 C 255.617188 27.902344 256.472656 22.671875 257.417969 19.667969 C 258.703125 15.464844 260.417969 13.40625 262.5625 13.40625 Z M 262.5625 13.40625 "/>
<path style=" stroke:none;fill-rule:nonzero;fill:rgb(0%,0%,0%);fill-opacity:1;" d="M 271.4375 38.195313 L 274.4375 38.195313 L 279.496094 38.109375 L 284.8125 38.195313 L 286.703125 38.195313 L 287.816406 36.90625 C 286.445313 36.90625 283.957031 36.648438 283.011719 36.390625 C 282.328125 36.222656 281.8125 35.707031 281.8125 35.019531 C 281.8125 34.503906 281.898438 33.820313 282.15625 33.046875 C 282.328125 32.53125 282.757813 30.390625 283.441406 27.128906 C 285.5 18.382813 286.53125 13.921875 287.300781 11.179688 L 285.671875 11.949219 C 282.5 13.664063 282.414063 13.75 280.871094 14.4375 C 280.011719 14.867188 278.46875 15.550781 276.324219 16.496094 L 277.78125 17.183594 C 278.898438 16.839844 279.410156 16.582031 280.269531 16.238281 L 281.640625 15.722656 C 281.8125 15.636719 282.242188 15.464844 282.925781 15.210938 L 278.554688 34.25 C 278.039063 36.222656 278.039063 36.304688 276.582031 36.476563 C 274.609375 36.734375 273.324219 36.820313 272.808594 36.90625 Z M 271.4375 38.195313 "/>
<path style=" stroke:none;fill-rule:nonzero;fill:rgb(0%,0%,0%);fill-opacity:1;" d="M 290.085938 37.507813 C 291.714844 38.277344 292.914063 38.535156 294.546875 38.535156 C 298.746094 38.535156 303.722656 35.621094 306.550781 31.503906 C 308.78125 28.332031 310.410156 22.671875 310.410156 18.382813 C 310.410156 14.007813 308.609375 11.4375 305.523438 11.4375 C 303.207031 11.4375 300.378906 12.464844 297.890625 14.265625 C 295.230469 16.238281 293.859375 18.640625 293.859375 21.296875 C 293.859375 24.644531 296.089844 26.957031 299.261719 26.957031 C 300.890625 26.957031 301.835938 26.53125 306.550781 23.699219 C 305.953125 27.214844 305.4375 29.015625 304.492188 30.816406 C 302.605469 34.417969 299.949219 36.476563 297.117188 36.476563 C 295.660156 36.476563 294.375 36.136719 292.316406 35.019531 Z M 306.722656 21.984375 C 304.835938 23.441406 302.949219 24.300781 301.320313 24.300781 C 299.089844 24.300781 297.460938 22.242188 297.460938 19.496094 C 297.460938 16.066406 299.519531 13.578125 302.433594 13.578125 C 305.09375 13.578125 306.808594 15.894531 306.808594 19.582031 C 306.808594 20.183594 306.808594 20.785156 306.722656 21.984375 Z M 306.722656 21.984375 "/>
<path style=" stroke:none;fill-rule:nonzero;fill:rgb(0%,0%,0%);fill-opacity:1;" d="M 153.527344 69.996094 C 153.785156 68.792969 154.128906 67.679688 154.386719 66.480469 C 155.070313 63.820313 155.070313 63.648438 155.757813 62.535156 C 157.300781 59.789063 159.703125 56.617188 163.476563 56.617188 C 165.964844 56.617188 165.964844 59.445313 165.964844 60.21875 C 165.964844 61.675781 165.621094 63.304688 165.449219 63.820313 L 161.933594 77.972656 C 161.847656 78.3125 161.761719 78.65625 161.761719 78.742188 C 161.761719 79.34375 162.191406 80.199219 163.304688 80.199219 C 163.992188 80.199219 164.847656 79.859375 165.277344 78.742188 L 167.421875 69.996094 C 167.765625 68.792969 168.023438 67.679688 168.363281 66.480469 C 169.050781 63.820313 169.050781 63.648438 169.738281 62.535156 C 171.28125 59.789063 173.683594 56.617188 177.457031 56.617188 C 179.941406 56.617188 179.941406 59.445313 179.941406 60.21875 C 179.941406 63.648438 177.542969 70.167969 176.769531 72.3125 C 176.082031 74.199219 175.910156 74.710938 175.910156 75.828125 C 175.910156 78.226563 177.457031 80.199219 180.027344 80.199219 C 185.175781 80.199219 186.976563 72.054688 186.976563 71.796875 C 186.976563 71.195313 186.546875 71.195313 186.203125 71.195313 C 185.429688 71.195313 185.429688 71.367188 185.261719 72.140625 C 184.832031 73.597656 183.289063 79 180.113281 79 C 179 79 178.914063 78.144531 178.914063 77.371094 C 178.914063 76.085938 179.515625 74.625 179.941406 73.339844 C 181.058594 70.425781 183.289063 64.25 183.289063 61.074219 C 183.289063 56.53125 180.113281 55.414063 177.542969 55.414063 C 173.683594 55.414063 170.9375 57.816406 169.308594 60.21875 C 168.878906 56.445313 166.050781 55.414063 163.5625 55.414063 C 160.304688 55.414063 157.644531 57.214844 155.757813 59.703125 C 155.328125 57.046875 153.527344 55.414063 151.125 55.414063 C 149.152344 55.414063 148.125 56.703125 147.179688 58.332031 C 146.152344 60.476563 145.464844 63.734375 145.464844 63.820313 C 145.464844 64.421875 145.980469 64.421875 146.324219 64.421875 C 147.011719 64.421875 147.011719 64.335938 147.351563 63.132813 C 148.296875 59.273438 149.324219 56.617188 151.039063 56.617188 C 152.5 56.617188 152.5 58.246094 152.5 58.847656 C 152.5 59.703125 152.328125 60.734375 152.070313 61.589844 L 147.953125 77.972656 C 147.867188 78.3125 147.78125 78.65625 147.78125 78.742188 C 147.78125 79.34375 148.210938 80.199219 149.324219 80.199219 C 150.011719 80.199219 150.953125 79.859375 151.296875 78.742188 Z M 153.527344 69.996094 "/>
<path style=" stroke:none;fill-rule:nonzero;fill:rgb(0%,0%,0%);fill-opacity:1;" d="M 198.675781 66.992188 C 200.390625 66.992188 203.992188 66.820313 206.652344 65.792969 C 210.941406 63.992188 210.941406 60.476563 210.941406 60.046875 C 210.941406 57.558594 208.96875 55.414063 205.449219 55.414063 C 199.703125 55.414063 191.902344 60.90625 191.902344 70.59375 C 191.902344 75.570313 194.472656 80.199219 199.703125 80.199219 C 206.738281 80.199219 211.28125 74.710938 211.28125 73.941406 C 211.28125 73.597656 210.769531 72.996094 210.339844 72.996094 C 210.167969 72.996094 210.082031 73.082031 209.652344 73.597656 C 205.621094 78.742188 200.734375 79 199.789063 79 C 196.273438 79 195.675781 75.140625 195.675781 72.996094 C 195.675781 70.9375 196.1875 68.453125 196.617188 66.992188 Z M 196.875 65.792969 C 199.277344 56.789063 204.9375 56.617188 205.449219 56.617188 C 207.59375 56.617188 208.882813 58.074219 208.882813 59.960938 C 208.882813 65.792969 199.875 65.792969 198.074219 65.792969 Z M 196.875 65.792969 "/>
<path style=" stroke:none;fill-rule:nonzero;fill:rgb(0%,0%,0%);fill-opacity:1;" d="M 221.042969 66.992188 C 222.757813 66.992188 226.359375 66.820313 229.015625 65.792969 C 233.304688 63.992188 233.304688 60.476563 233.304688 60.046875 C 233.304688 57.558594 231.332031 55.414063 227.816406 55.414063 C 222.070313 55.414063 214.265625 60.90625 214.265625 70.59375 C 214.265625 75.570313 216.839844 80.199219 222.070313 80.199219 C 229.101563 80.199219 233.648438 74.710938 233.648438 73.941406 C 233.648438 73.597656 233.132813 72.996094 232.703125 72.996094 C 232.53125 72.996094 232.449219 73.082031 232.019531 73.597656 C 227.988281 78.742188 223.097656 79 222.15625 79 C 218.640625 79 218.039063 75.140625 218.039063 72.996094 C 218.039063 70.9375 218.554688 68.453125 218.984375 66.992188 Z M 219.238281 65.792969 C 221.640625 56.789063 227.300781 56.617188 227.816406 56.617188 C 229.960938 56.617188 231.246094 58.074219 231.246094 59.960938 C 231.246094 65.792969 222.242188 65.792969 220.441406 65.792969 Z M 219.238281 65.792969 "/>
<path style=" stroke:none;fill-rule:nonzero;fill:rgb(0%,0%,0%);fill-opacity:1;" d="M 247.394531 57.730469 L 252.027344 57.730469 C 252.96875 57.730469 253.570313 57.730469 253.570313 56.703125 C 253.570313 56.015625 253.054688 56.015625 252.199219 56.015625 L 247.824219 56.015625 L 249.882813 47.953125 C 250.054688 47.183594 250.054688 47.011719 250.054688 46.753906 C 250.054688 45.640625 249.109375 45.382813 248.597656 45.382813 C 247.222656 45.382813 246.710938 46.496094 246.453125 47.355469 L 244.308594 56.015625 L 239.675781 56.015625 C 238.734375 56.015625 238.132813 56.015625 238.132813 57.046875 C 238.132813 57.730469 238.648438 57.730469 239.503906 57.730469 L 243.878906 57.730469 L 239.933594 73.425781 C 239.847656 73.597656 239.675781 74.539063 239.675781 75.3125 C 239.675781 77.972656 241.476563 80.199219 244.308594 80.199219 C 249.882813 80.199219 252.628906 72.054688 252.628906 71.796875 C 252.628906 71.195313 252.199219 71.195313 251.855469 71.195313 C 251.167969 71.195313 251.167969 71.28125 250.742188 72.3125 C 249.710938 74.882813 247.566406 79 244.394531 79 C 242.9375 79 242.9375 77.628906 242.9375 76.769531 C 242.9375 76.339844 242.9375 75.484375 243.363281 73.941406 Z M 247.394531 57.730469 "/>
<path style=" stroke:none;fill-rule:nonzero;fill:rgb(0%,0%,0%);fill-opacity:1;" d="M 269.421875 71.796875 C 269.421875 71.195313 268.992188 71.195313 268.648438 71.195313 C 267.875 71.195313 267.875 71.367188 267.707031 72.140625 C 267.277344 73.769531 265.734375 79 262.558594 79 C 262.128906 79 261.359375 78.914063 261.359375 77.457031 C 261.359375 76.085938 262.128906 74.199219 262.816406 72.226563 L 266.332031 62.878906 C 266.847656 61.246094 266.933594 60.820313 266.933594 59.789063 C 266.933594 56.789063 264.875 55.414063 262.902344 55.414063 C 257.757813 55.414063 255.871094 63.5625 255.871094 63.820313 C 255.871094 64.421875 256.382813 64.421875 256.726563 64.421875 C 257.414063 64.421875 257.414063 64.25 257.671875 63.476563 C 258.183594 61.675781 259.558594 56.617188 262.730469 56.617188 C 263.332031 56.617188 263.929688 56.875 263.929688 58.160156 C 263.929688 59.445313 263.332031 61.074219 262.988281 62.105469 L 261.359375 66.652344 C 260.585938 68.453125 259.988281 70.253906 259.300781 72.054688 C 258.527344 74.113281 258.355469 74.710938 258.355469 75.828125 C 258.355469 77.972656 259.644531 80.199219 262.472656 80.199219 C 267.621094 80.199219 269.421875 71.96875 269.421875 71.796875 Z M 269.164063 45.554688 C 269.164063 44.179688 268.046875 43.667969 267.277344 43.667969 C 266.160156 43.667969 264.703125 44.78125 264.703125 46.324219 C 264.703125 47.695313 265.734375 48.125 266.503906 48.125 C 267.621094 48.125 269.164063 47.097656 269.164063 45.554688 Z M 269.164063 45.554688 "/>
<path style=" stroke:none;fill-rule:nonzero;fill:rgb(0%,0%,0%);fill-opacity:1;" d="M 280.703125 69.996094 C 280.960938 68.792969 281.304688 67.679688 281.558594 66.480469 C 282.246094 63.648438 282.246094 63.648438 283.191406 62.019531 C 283.960938 60.734375 286.449219 56.617188 290.566406 56.617188 C 292.964844 56.617188 293.136719 59.101563 293.136719 60.21875 C 293.136719 63.648438 290.652344 70.167969 289.964844 72.3125 C 289.191406 74.199219 289.023438 74.710938 289.023438 75.828125 C 289.023438 78.226563 290.566406 80.199219 293.222656 80.199219 C 298.285156 80.199219 300.171875 72.054688 300.171875 71.796875 C 300.171875 71.195313 299.742188 71.195313 299.3125 71.195313 C 298.625 71.195313 298.625 71.367188 298.371094 72.140625 C 297.941406 73.597656 296.484375 79 293.308594 79 C 292.195313 79 292.109375 78.144531 292.109375 77.371094 C 292.109375 76.085938 292.625 74.625 293.136719 73.339844 C 294.167969 70.425781 296.398438 64.25 296.398438 61.074219 C 296.398438 56.617188 293.394531 55.414063 290.738281 55.414063 C 286.277344 55.414063 283.617188 58.675781 282.933594 59.703125 C 282.503906 57.046875 280.703125 55.414063 278.300781 55.414063 C 276.328125 55.414063 275.300781 56.703125 274.355469 58.332031 C 273.328125 60.476563 272.640625 63.734375 272.640625 63.820313 C 272.640625 64.421875 273.15625 64.421875 273.5 64.421875 C 274.183594 64.421875 274.183594 64.335938 274.527344 63.132813 C 275.472656 59.273438 276.5 56.617188 278.214844 56.617188 C 279.671875 56.617188 279.671875 58.246094 279.671875 58.847656 C 279.671875 59.703125 279.503906 60.734375 279.246094 61.589844 L 275.128906 77.972656 C 275.042969 78.3125 274.957031 78.65625 274.957031 78.742188 C 274.957031 79.34375 275.386719 80.199219 276.5 80.199219 C 277.1875 80.199219 278.128906 79.859375 278.472656 78.742188 Z M 280.703125 69.996094 "/>
<path style=" stroke:none;fill-rule:nonzero;fill:rgb(0%,0%,0%);fill-opacity:1;" d="M 317.363281 76.683594 L 316.160156 81.316406 C 315.5625 84.058594 315.21875 85.175781 313.675781 87.0625 C 311.445313 89.632813 309.300781 89.632813 308.445313 89.632813 C 307.757813 89.632813 306.042969 89.632813 304.585938 89.035156 C 305.699219 88.605469 306.300781 87.40625 306.300781 86.460938 C 306.300781 85.777344 305.871094 84.746094 304.414063 84.746094 C 303.46875 84.746094 301.753906 85.519531 301.753906 87.664063 C 301.753906 89.804688 303.726563 90.835938 308.359375 90.835938 C 314.105469 90.835938 318.21875 87.234375 319.335938 83.03125 L 325.253906 59.101563 C 325.511719 58.246094 325.511719 58.160156 325.511719 57.902344 C 325.511719 56.789063 324.566406 56.53125 323.964844 56.53125 C 323.367188 56.53125 322.078125 56.960938 321.90625 58.503906 C 321.136719 56.960938 319.59375 55.414063 317.277344 55.414063 C 311.1875 55.414063 304.839844 63.476563 304.839844 71.195313 C 304.839844 75.914063 307.414063 79.601563 311.53125 79.601563 C 314.359375 79.601563 316.675781 77.371094 317.363281 76.683594 Z M 320.878906 62.449219 L 318.390625 72.398438 C 317.964844 74.113281 314.617188 78.398438 311.617188 78.398438 C 308.699219 78.398438 308.613281 74.199219 308.613281 73.597656 C 308.613281 71.023438 310.246094 64.59375 311.359375 62.019531 C 312.730469 59.101563 315.132813 56.617188 317.277344 56.617188 C 320.535156 56.617188 321.050781 61.246094 321.050781 61.675781 Z M 320.878906 62.449219 "/>
<path style=" stroke:none;fill-rule:nonzero;fill:rgb(0%,29.803467%,11.764526%);fill-opacity:1;" d="M 152.199219 189.242188 L 149.136719 189.242188 L 149.136719 202.867188 L 150.074219 202.867188 L 150.074219 197.429688 L 152.136719 197.429688 C 155.074219 197.429688 157.167969 196.304688 157.167969 193.273438 C 157.167969 190.460938 155.324219 189.242188 152.199219 189.242188 Z M 152.167969 196.648438 L 150.074219 196.648438 L 150.074219 190.054688 L 152.199219 190.054688 C 154.730469 190.054688 156.167969 190.898438 156.167969 193.304688 C 156.167969 195.867188 154.511719 196.648438 152.167969 196.648438 Z M 152.167969 196.648438 "/>
<path style=" stroke:none;fill-rule:nonzero;fill:rgb(0%,29.803467%,11.764526%);fill-opacity:1;" d="M 163.191406 192.273438 C 160.535156 192.273438 158.878906 194.304688 158.878906 197.679688 C 158.878906 201.023438 160.472656 203.085938 163.191406 203.085938 C 165.847656 203.085938 167.503906 201.023438 167.503906 197.617188 C 167.503906 194.179688 165.878906 192.273438 163.191406 192.273438 Z M 163.191406 193.054688 C 165.316406 193.054688 166.535156 194.617188 166.535156 197.617188 C 166.535156 200.679688 165.253906 202.273438 163.191406 202.273438 C 161.097656 202.273438 159.816406 200.679688 159.816406 197.679688 C 159.816406 194.617188 161.128906 193.054688 163.191406 193.054688 Z M 163.191406 193.054688 "/>
<path style=" stroke:none;fill-rule:nonzero;fill:rgb(0%,29.803467%,11.764526%);fill-opacity:1;" d="M 172.613281 203.085938 C 173.019531 203.085938 173.425781 202.960938 173.707031 202.835938 L 173.457031 202.117188 C 173.238281 202.210938 172.988281 202.273438 172.707031 202.273438 C 172.113281 202.273438 171.832031 201.898438 171.832031 201.179688 L 171.832031 188.085938 L 170.894531 188.210938 L 170.894531 201.242188 C 170.894531 202.492188 171.613281 203.085938 172.613281 203.085938 Z M 172.613281 203.085938 "/>
<path style=" stroke:none;fill-rule:nonzero;fill:rgb(0%,29.803467%,11.764526%);fill-opacity:1;" d="M 177.214844 188.023438 C 176.777344 188.023438 176.496094 188.367188 176.496094 188.742188 C 176.496094 189.117188 176.777344 189.429688 177.214844 189.429688 C 177.652344 189.429688 177.933594 189.117188 177.933594 188.742188 C 177.933594 188.367188 177.652344 188.023438 177.214844 188.023438 Z M 177.683594 192.460938 L 176.777344 192.460938 L 176.777344 202.867188 L 177.683594 202.867188 Z M 177.683594 192.460938 "/>
<path style=" stroke:none;fill-rule:nonzero;fill:rgb(0%,29.803467%,11.764526%);fill-opacity:1;" d="M 186.226563 201.804688 C 185.695313 202.085938 185.164063 202.273438 184.539063 202.273438 C 183.445313 202.273438 182.914063 201.617188 182.914063 200.367188 L 182.914063 193.242188 L 185.539063 193.242188 L 185.664063 192.460938 L 182.914063 192.460938 L 182.914063 189.835938 L 182.007813 189.929688 L 182.007813 192.460938 L 180.257813 192.460938 L 180.257813 193.242188 L 182.007813 193.242188 L 182.007813 200.429688 C 182.007813 202.179688 182.945313 203.085938 184.445313 203.085938 C 185.289063 203.085938 185.976563 202.835938 186.601563 202.460938 Z M 186.226563 201.804688 "/>
<path style=" stroke:none;fill-rule:nonzero;fill:rgb(0%,29.803467%,11.764526%);fill-opacity:1;" d="M 195.742188 197.242188 C 195.742188 194.242188 194.429688 192.273438 191.804688 192.273438 C 189.304688 192.273438 187.710938 194.398438 187.710938 197.742188 C 187.710938 201.085938 189.367188 203.085938 192.023438 203.085938 C 193.398438 203.085938 194.398438 202.617188 195.367188 201.804688 L 194.898438 201.210938 C 193.992188 201.898438 193.242188 202.273438 192.054688 202.273438 C 190.179688 202.273438 188.804688 201.023438 188.648438 198.054688 L 195.710938 198.054688 C 195.742188 197.867188 195.742188 197.554688 195.742188 197.242188 Z M 194.867188 197.335938 L 188.648438 197.335938 C 188.773438 194.335938 190.148438 193.023438 191.835938 193.023438 C 193.898438 193.023438 194.867188 194.617188 194.867188 196.960938 Z M 194.867188 197.335938 "/>
<path style=" stroke:none;fill-rule:nonzero;fill:rgb(0%,29.803467%,11.764526%);fill-opacity:1;" d="M 202.632813 192.273438 C 200.007813 192.273438 198.289063 194.367188 198.289063 197.710938 C 198.289063 201.117188 200.007813 203.085938 202.632813 203.085938 C 203.789063 203.085938 204.789063 202.679688 205.570313 201.960938 L 205.070313 201.367188 C 204.382813 201.929688 203.632813 202.273438 202.632813 202.273438 C 200.664063 202.273438 199.257813 200.804688 199.257813 197.710938 C 199.257813 194.617188 200.664063 193.054688 202.664063 193.054688 C 203.632813 193.054688 204.351563 193.367188 205.007813 193.898438 L 205.476563 193.273438 C 204.632813 192.554688 203.757813 192.273438 202.632813 192.273438 Z M 202.632813 192.273438 "/>
<path style=" stroke:none;fill-rule:nonzero;fill:rgb(0%,29.803467%,11.764526%);fill-opacity:1;" d="M 212.886719 192.273438 C 211.355469 192.273438 210.167969 193.085938 209.292969 194.304688 L 209.199219 192.460938 L 208.417969 192.460938 L 208.417969 202.867188 L 209.324219 202.867188 L 209.324219 195.273438 C 210.230469 193.960938 211.261719 193.023438 212.761719 193.023438 C 214.136719 193.023438 214.824219 193.804688 214.824219 195.554688 L 214.824219 202.867188 L 215.730469 202.867188 L 215.730469 195.460938 C 215.730469 193.429688 214.792969 192.273438 212.886719 192.273438 Z M 212.886719 192.273438 "/>
<path style=" stroke:none;fill-rule:nonzero;fill:rgb(0%,29.803467%,11.764526%);fill-opacity:1;" d="M 220.433594 188.023438 C 219.996094 188.023438 219.714844 188.367188 219.714844 188.742188 C 219.714844 189.117188 219.996094 189.429688 220.433594 189.429688 C 220.871094 189.429688 221.152344 189.117188 221.152344 188.742188 C 221.152344 188.367188 220.871094 188.023438 220.433594 188.023438 Z M 220.902344 192.460938 L 219.996094 192.460938 L 219.996094 202.867188 L 220.902344 202.867188 Z M 220.902344 192.460938 "/>
<path style=" stroke:none;fill-rule:nonzero;fill:rgb(0%,29.803467%,11.764526%);fill-opacity:1;" d="M 228.757813 192.273438 C 226.132813 192.273438 224.414063 194.367188 224.414063 197.710938 C 224.414063 201.117188 226.132813 203.085938 228.757813 203.085938 C 229.914063 203.085938 230.914063 202.679688 231.695313 201.960938 L 231.195313 201.367188 C 230.507813 201.929688 229.757813 202.273438 228.757813 202.273438 C 226.789063 202.273438 225.382813 200.804688 225.382813 197.710938 C 225.382813 194.617188 226.789063 193.054688 228.789063 193.054688 C 229.757813 193.054688 230.476563 193.367188 231.132813 193.898438 L 231.601563 193.273438 C 230.757813 192.554688 229.882813 192.273438 228.757813 192.273438 Z M 228.757813 192.273438 "/>
<path style=" stroke:none;fill-rule:nonzero;fill:rgb(0%,29.803467%,11.764526%);fill-opacity:1;" d="M 237.789063 192.273438 C 235.132813 192.273438 233.476563 194.304688 233.476563 197.679688 C 233.476563 201.023438 235.070313 203.085938 237.789063 203.085938 C 240.445313 203.085938 242.101563 201.023438 242.101563 197.617188 C 242.101563 194.179688 240.476563 192.273438 237.789063 192.273438 Z M 237.789063 193.054688 C 239.914063 193.054688 241.132813 194.617188 241.132813 197.617188 C 241.132813 200.679688 239.851563 202.273438 237.789063 202.273438 C 235.695313 202.273438 234.414063 200.679688 234.414063 197.679688 C 234.414063 194.617188 235.726563 193.054688 237.789063 193.054688 Z M 237.789063 193.054688 "/>
<path style=" stroke:none;fill-rule:nonzero;fill:rgb(0%,29.803467%,11.764526%);fill-opacity:1;" d="M 257.464844 188.085938 L 257.464844 193.710938 C 256.871094 192.992188 255.996094 192.273438 254.496094 192.273438 C 251.933594 192.273438 250.433594 194.492188 250.433594 197.710938 C 250.433594 201.023438 251.933594 203.085938 254.308594 203.085938 C 255.902344 203.085938 256.902344 202.242188 257.496094 201.242188 L 257.589844 202.867188 L 258.371094 202.867188 L 258.371094 188.210938 Z M 254.402344 202.273438 C 252.558594 202.273438 251.402344 200.648438 251.371094 197.710938 C 251.371094 194.710938 252.683594 193.023438 254.621094 193.023438 C 255.964844 193.023438 256.839844 193.773438 257.464844 194.679688 L 257.464844 200.210938 C 256.746094 201.523438 255.902344 202.273438 254.402344 202.273438 Z M 254.402344 202.273438 "/>
<path style=" stroke:none;fill-rule:nonzero;fill:rgb(0%,29.803467%,11.764526%);fill-opacity:1;" d="M 263.171875 188.023438 C 262.734375 188.023438 262.453125 188.367188 262.453125 188.742188 C 262.453125 189.117188 262.734375 189.429688 263.171875 189.429688 C 263.609375 189.429688 263.890625 189.117188 263.890625 188.742188 C 263.890625 188.367188 263.609375 188.023438 263.171875 188.023438 Z M 263.640625 192.460938 L 262.734375 192.460938 L 262.734375 202.867188 L 263.640625 202.867188 Z M 263.640625 192.460938 "/>
<path style=" stroke:none;fill-rule:nonzero;fill:rgb(0%,29.803467%,11.764526%);fill-opacity:1;" d="M 280.964844 189.242188 L 271.777344 189.242188 L 271.777344 190.085938 L 275.839844 190.085938 L 275.839844 202.867188 L 276.777344 202.867188 L 276.777344 190.085938 L 280.839844 190.085938 Z M 280.964844 189.242188 "/>
<path style=" stroke:none;fill-rule:nonzero;fill:rgb(0%,29.803467%,11.764526%);fill-opacity:1;" d="M 285.730469 192.273438 C 283.074219 192.273438 281.417969 194.304688 281.417969 197.679688 C 281.417969 201.023438 283.011719 203.085938 285.730469 203.085938 C 288.386719 203.085938 290.042969 201.023438 290.042969 197.617188 C 290.042969 194.179688 288.417969 192.273438 285.730469 192.273438 Z M 285.730469 193.054688 C 287.855469 193.054688 289.074219 194.617188 289.074219 197.617188 C 289.074219 200.679688 287.792969 202.273438 285.730469 202.273438 C 283.636719 202.273438 282.355469 200.679688 282.355469 197.679688 C 282.355469 194.617188 283.667969 193.054688 285.730469 193.054688 Z M 285.730469 193.054688 "/>
<path style=" stroke:none;fill-rule:nonzero;fill:rgb(0%,29.803467%,11.764526%);fill-opacity:1;" d="M 297.402344 192.273438 C 295.902344 192.273438 294.964844 193.117188 294.402344 194.867188 L 294.339844 192.460938 L 293.558594 192.460938 L 293.558594 202.867188 L 294.464844 202.867188 L 294.464844 196.367188 C 295.027344 194.179688 295.871094 193.117188 297.339844 193.117188 C 297.683594 193.117188 297.996094 193.148438 298.277344 193.242188 L 298.433594 192.367188 C 298.183594 192.304688 297.839844 192.273438 297.402344 192.273438 Z M 297.402344 192.273438 "/>
<path style=" stroke:none;fill-rule:nonzero;fill:rgb(0%,29.803467%,11.764526%);fill-opacity:1;" d="M 301.328125 188.023438 C 300.890625 188.023438 300.609375 188.367188 300.609375 188.742188 C 300.609375 189.117188 300.890625 189.429688 301.328125 189.429688 C 301.765625 189.429688 302.046875 189.117188 302.046875 188.742188 C 302.046875 188.367188 301.765625 188.023438 301.328125 188.023438 Z M 301.796875 192.460938 L 300.890625 192.460938 L 300.890625 202.867188 L 301.796875 202.867188 Z M 301.796875 192.460938 "/>
<path style=" stroke:none;fill-rule:nonzero;fill:rgb(0%,29.803467%,11.764526%);fill-opacity:1;" d="M 310.621094 192.273438 C 309.089844 192.273438 307.902344 193.085938 307.027344 194.304688 L 306.933594 192.460938 L 306.152344 192.460938 L 306.152344 202.867188 L 307.058594 202.867188 L 307.058594 195.273438 C 307.964844 193.960938 308.996094 193.023438 310.496094 193.023438 C 311.871094 193.023438 312.558594 193.804688 312.558594 195.554688 L 312.558594 202.867188 L 313.464844 202.867188 L 313.464844 195.460938 C 313.464844 193.429688 312.527344 192.273438 310.621094 192.273438 Z M 310.621094 192.273438 "/>
<path style=" stroke:none;fill-rule:nonzero;fill:rgb(0%,29.803467%,11.764526%);fill-opacity:1;" d="M 321.199219 192.273438 C 318.542969 192.273438 316.886719 194.304688 316.886719 197.679688 C 316.886719 201.023438 318.480469 203.085938 321.199219 203.085938 C 323.855469 203.085938 325.511719 201.023438 325.511719 197.617188 C 325.511719 194.179688 323.886719 192.273438 321.199219 192.273438 Z M 321.199219 193.054688 C 323.324219 193.054688 324.542969 194.617188 324.542969 197.617188 C 324.542969 200.679688 323.261719 202.273438 321.199219 202.273438 C 319.105469 202.273438 317.824219 200.679688 317.824219 197.679688 C 317.824219 194.617188 319.136719 193.054688 321.199219 193.054688 Z M 321.199219 193.054688 "/>
<path style=" stroke:none;fill-rule:nonzero;fill:rgb(0%,29.803467%,11.764526%);fill-opacity:1;" d="M 190.855469 214.09375 C 189.261719 214.09375 188.105469 214.71875 187.042969 216.125 L 187.667969 216.59375 C 188.542969 215.46875 189.480469 214.875 190.824219 214.875 C 192.542969 214.875 193.480469 216 193.480469 217.5 C 193.480469 219.34375 192.480469 220.9375 187.292969 224.625 L 187.292969 225.4375 L 194.636719 225.4375 L 194.792969 224.59375 L 188.511719 224.59375 C 193.324219 221.34375 194.449219 219.5625 194.449219 217.4375 C 194.449219 215.5625 193.167969 214.09375 190.855469 214.09375 Z M 190.855469 214.09375 "/>
<path style=" stroke:none;fill-rule:nonzero;fill:rgb(0%,29.803467%,11.764526%);fill-opacity:1;" d="M 201.523438 216.84375 C 199.929688 216.84375 198.773438 217.6875 197.960938 218.96875 C 198.023438 215.375 199.335938 212.75 201.773438 212.75 C 202.617188 212.75 203.179688 212.96875 203.835938 213.40625 L 204.273438 212.75 C 203.585938 212.28125 202.867188 211.96875 201.804688 211.96875 C 198.804688 211.96875 197.023438 214.84375 197.023438 219.5625 C 197.023438 222.9375 198.085938 225.65625 201.179688 225.65625 C 203.460938 225.65625 205.117188 223.90625 205.117188 221 C 205.117188 218.15625 203.492188 216.84375 201.523438 216.84375 Z M 201.179688 224.84375 C 198.898438 224.84375 198.023438 222.9375 197.960938 220 C 198.742188 218.59375 199.929688 217.65625 201.429688 217.65625 C 203.023438 217.65625 204.179688 218.65625 204.179688 221 C 204.179688 223.25 203.179688 224.84375 201.179688 224.84375 Z M 201.179688 224.84375 "/>
<path style=" stroke:none;fill-rule:nonzero;fill:rgb(0%,29.803467%,11.764526%);fill-opacity:1;" d="M 218.710938 211.59375 C 215.492188 211.59375 213.242188 214.15625 213.242188 218.65625 C 213.242188 223.1875 215.460938 225.65625 218.710938 225.65625 C 222.054688 225.65625 224.210938 223.09375 224.210938 218.625 C 224.210938 214.03125 221.992188 211.59375 218.710938 211.59375 Z M 218.710938 212.40625 C 221.460938 212.40625 223.210938 214.4375 223.210938 218.625 C 223.210938 222.78125 221.492188 224.8125 218.710938 224.8125 C 216.054688 224.8125 214.242188 222.78125 214.242188 218.65625 C 214.242188 214.4375 216.054688 212.40625 218.710938 212.40625 Z M 218.710938 212.40625 "/>
<path style=" stroke:none;fill-rule:nonzero;fill:rgb(0%,29.803467%,11.764526%);fill-opacity:1;" d="M 231.292969 214.84375 C 228.667969 214.84375 226.949219 216.9375 226.949219 220.28125 C 226.949219 223.6875 228.667969 225.65625 231.292969 225.65625 C 232.449219 225.65625 233.449219 225.25 234.230469 224.53125 L 233.730469 223.9375 C 233.042969 224.5 232.292969 224.84375 231.292969 224.84375 C 229.324219 224.84375 227.917969 223.375 227.917969 220.28125 C 227.917969 217.1875 229.324219 215.625 231.324219 215.625 C 232.292969 215.625 233.011719 215.9375 233.667969 216.46875 L 234.136719 215.84375 C 233.292969 215.125 232.417969 214.84375 231.292969 214.84375 Z M 231.292969 214.84375 "/>
<path style=" stroke:none;fill-rule:nonzero;fill:rgb(0%,29.803467%,11.764526%);fill-opacity:1;" d="M 241.265625 224.375 C 240.734375 224.65625 240.203125 224.84375 239.578125 224.84375 C 238.484375 224.84375 237.953125 224.1875 237.953125 222.9375 L 237.953125 215.8125 L 240.578125 215.8125 L 240.703125 215.03125 L 237.953125 215.03125 L 237.953125 212.40625 L 237.046875 212.496094 L 237.046875 215.03125 L 235.296875 215.03125 L 235.296875 215.8125 L 237.046875 215.8125 L 237.046875 223 C 237.046875 224.75 237.984375 225.65625 239.484375 225.65625 C 240.328125 225.65625 241.015625 225.40625 241.640625 225.03125 Z M 241.265625 224.375 "/>
<path style=" stroke:none;fill-rule:nonzero;fill:rgb(0%,29.803467%,11.764526%);fill-opacity:1;" d="M 247.0625 214.84375 C 244.40625 214.84375 242.75 216.875 242.75 220.25 C 242.75 223.59375 244.34375 225.65625 247.0625 225.65625 C 249.71875 225.65625 251.375 223.59375 251.375 220.1875 C 251.375 216.75 249.75 214.84375 247.0625 214.84375 Z M 247.0625 215.625 C 249.1875 215.625 250.40625 217.1875 250.40625 220.1875 C 250.40625 223.25 249.125 224.84375 247.0625 224.84375 C 244.96875 224.84375 243.6875 223.25 243.6875 220.25 C 243.6875 217.1875 245 215.625 247.0625 215.625 Z M 247.0625 215.625 "/>
<path style=" stroke:none;fill-rule:nonzero;fill:rgb(0%,29.803467%,11.764526%);fill-opacity:1;" d="M 258.984375 214.84375 C 257.578125 214.84375 256.546875 215.53125 255.796875 216.53125 L 255.796875 210.65625 L 254.890625 210.78125 L 254.890625 225.4375 L 255.671875 225.4375 L 255.765625 224.0625 C 256.421875 224.9375 257.453125 225.65625 258.859375 225.65625 C 261.359375 225.65625 262.765625 223.53125 262.765625 220.1875 C 262.765625 216.71875 261.390625 214.84375 258.984375 214.84375 Z M 258.703125 224.84375 C 257.453125 224.84375 256.484375 224.15625 255.796875 223.15625 L 255.796875 217.46875 C 256.578125 216.40625 257.421875 215.59375 258.859375 215.59375 C 260.734375 215.59375 261.765625 217.0625 261.765625 220.1875 C 261.765625 223.25 260.671875 224.84375 258.703125 224.84375 Z M 258.703125 224.84375 "/>
<path style=" stroke:none;fill-rule:nonzero;fill:rgb(0%,29.803467%,11.764526%);fill-opacity:1;" d="M 273.4375 219.8125 C 273.4375 216.8125 272.125 214.84375 269.5 214.84375 C 267 214.84375 265.40625 216.96875 265.40625 220.3125 C 265.40625 223.65625 267.0625 225.65625 269.71875 225.65625 C 271.09375 225.65625 272.09375 225.1875 273.0625 224.375 L 272.59375 223.78125 C 271.6875 224.46875 270.9375 224.84375 269.75 224.84375 C 267.875 224.84375 266.5 223.59375 266.34375 220.625 L 273.40625 220.625 C 273.4375 220.4375 273.4375 220.125 273.4375 219.8125 Z M 272.5625 219.90625 L 266.34375 219.90625 C 266.46875 216.90625 267.84375 215.59375 269.53125 215.59375 C 271.59375 215.59375 272.5625 217.183594 272.5625 219.53125 Z M 272.5625 219.90625 "/>
<path style=" stroke:none;fill-rule:nonzero;fill:rgb(0%,29.803467%,11.764526%);fill-opacity:1;" d="M 280.671875 214.84375 C 279.171875 214.84375 278.234375 215.6875 277.671875 217.4375 L 277.609375 215.03125 L 276.828125 215.03125 L 276.828125 225.4375 L 277.734375 225.4375 L 277.734375 218.9375 C 278.296875 216.75 279.140625 215.6875 280.609375 215.6875 C 280.953125 215.6875 281.265625 215.71875 281.546875 215.8125 L 281.703125 214.9375 C 281.453125 214.875 281.109375 214.84375 280.671875 214.84375 Z M 280.671875 214.84375 "/>
<path style=" stroke:none;fill-rule:nonzero;fill:rgb(0%,29.803467%,11.764526%);fill-opacity:1;" d="M 291.976563 214.09375 C 290.382813 214.09375 289.226563 214.71875 288.164063 216.125 L 288.789063 216.59375 C 289.664063 215.46875 290.601563 214.875 291.945313 214.875 C 293.664063 214.875 294.601563 216 294.601563 217.5 C 294.601563 219.34375 293.601563 220.9375 288.414063 224.625 L 288.414063 225.4375 L 295.757813 225.4375 L 295.914063 224.59375 L 289.632813 224.59375 C 294.445313 221.34375 295.570313 219.5625 295.570313 217.4375 C 295.570313 215.5625 294.289063 214.09375 291.976563 214.09375 Z M 291.976563 214.09375 "/>
<path style=" stroke:none;fill-rule:nonzero;fill:rgb(0%,29.803467%,11.764526%);fill-opacity:1;" d="M 303.042969 214.09375 C 300.261719 214.09375 298.230469 216.25 298.230469 219.875 C 298.230469 223.53125 300.292969 225.625 303.042969 225.625 C 305.886719 225.625 307.886719 223.4375 307.886719 219.875 C 307.886719 216.15625 305.886719 214.09375 303.042969 214.09375 Z M 303.074219 214.875 C 305.261719 214.875 306.949219 216.5 306.949219 219.875 C 306.949219 223.15625 305.261719 224.8125 303.042969 224.8125 C 300.949219 224.8125 299.167969 223.21875 299.167969 219.875 C 299.167969 216.53125 300.917969 214.875 303.074219 214.875 Z M 303.074219 214.875 "/>
<path style=" stroke:none;fill-rule:nonzero;fill:rgb(0%,29.803467%,11.764526%);fill-opacity:1;" d="M 314.089844 214.25 L 313.339844 214.25 L 309.277344 216.6875 L 309.714844 217.375 L 313.183594 215.28125 L 313.183594 225.4375 L 314.089844 225.4375 Z M 314.089844 214.25 "/>
<path style=" stroke:none;fill-rule:nonzero;fill:rgb(0%,29.803467%,11.764526%);fill-opacity:1;" d="M 321.542969 214.09375 C 319.199219 214.09375 317.511719 215.75 317.511719 218.375 C 317.511719 220.90625 319.042969 222.5 321.167969 222.5 C 322.636719 222.5 323.761719 221.78125 324.574219 220.5625 C 324.355469 224.125 322.261719 225.875 318.605469 226.96875 L 318.855469 227.71875 C 323.230469 226.375 325.511719 224.375 325.511719 219.40625 C 325.511719 216.15625 324.292969 214.09375 321.542969 214.09375 Z M 321.324219 221.6875 C 319.574219 221.6875 318.449219 220.5 318.449219 218.375 C 318.449219 216.15625 319.636719 214.875 321.542969 214.875 C 323.699219 214.875 324.574219 216.53125 324.574219 219.59375 C 323.699219 220.9375 322.761719 221.6875 321.324219 221.6875 Z M 321.324219 221.6875 "/>
</g>
</svg>
