<?xml version="1.0" encoding="UTF-8" standalone="no"?>
<!-- Created with Inkscape (http://www.inkscape.org/) -->

<svg
   xmlns:dc="http://purl.org/dc/elements/1.1/"
   xmlns:cc="http://creativecommons.org/ns#"
   xmlns:rdf="http://www.w3.org/1999/02/22-rdf-syntax-ns#"
   xmlns:svg="http://www.w3.org/2000/svg"
   xmlns="http://www.w3.org/2000/svg"
   xmlns:sodipodi="http://sodipodi.sourceforge.net/DTD/sodipodi-0.dtd"
   xmlns:inkscape="http://www.inkscape.org/namespaces/inkscape"
   version="1.1"
   id="svg2"
   xml:space="preserve"
   width="1403.6331"
   height="727.34161"
   viewBox="0 0 1403.6331 727.34161"
   sodipodi:docname="isoview_f16.svg"
   inkscape:version="0.92.4 (5da689c313, 2019-01-14)"><metadata
     id="metadata8"><rdf:RDF><cc:Work
         rdf:about=""><dc:format>image/svg+xml</dc:format><dc:type
           rdf:resource="http://purl.org/dc/dcmitype/StillImage" /><dc:title></dc:title></cc:Work></rdf:RDF></metadata><defs
     id="defs6" /><sodipodi:namedview
     pagecolor="#ffffff"
     bordercolor="#666666"
     borderopacity="1"
     objecttolerance="10"
     gridtolerance="10"
     guidetolerance="10"
     inkscape:pageopacity="0"
     inkscape:pageshadow="2"
     inkscape:window-width="3440"
     inkscape:window-height="1346"
     id="namedview4"
     showgrid="false"
     inkscape:zoom="0.30064838"
     inkscape:cx="701.81653"
     inkscape:cy="363.67081"
     inkscape:window-x="-11"
     inkscape:window-y="-11"
     inkscape:window-maximized="1"
     inkscape:current-layer="g10" /><g
     id="g10"
     inkscape:groupmode="layer"
     inkscape:label="isoview_f16"
     transform="matrix(1.3333333,0,0,-1.3333333,0,727.34163)"><g
       id="g12"><path
         d="m 800.215,203.51 c 27.648,8.485 52.945,16.215 85.144,25.141 18.633,5.164 36.571,8.867 54.856,11.429 l 104.574,-46.859 c 5.438,-3.191 6.309,-5.133 5.844,-7.492 l -37.844,-14.508 c -4.055,-1.105 -9.258,-1.055 -12.574,-0.285 z"
         style="fill:#c9dceb;fill-opacity:1;fill-rule:nonzero;stroke:none"
         id="path14"
         inkscape:connector-curvature="0" /><path
         d="m 851.93,248.366 c -4.926,14.527 -10.793,30.91 -35.586,39.25 15.062,0.32 21.988,1.703 43.871,1.894 10.476,-3.781 17.047,-8.515 22.574,-14.289 7.215,-7.535 9.461,-16 10.856,-24"
         style="fill:#625625;fill-opacity:1;fill-rule:nonzero;stroke:none"
         id="path16"
         inkscape:connector-curvature="0" /><path
         d="M 892.914,526.463 875.645,521.221 802.5,336.08 l 40.699,12.739"
         style="fill:#bca64c;fill-opacity:1;fill-rule:nonzero;stroke:none"
         id="path18"
         inkscape:connector-curvature="0" /><path
         d="m 800.215,203.51 -52,-12 -94.285,-14.859 71.144,25.144 175.715,32.856"
         style="fill:#bca64c;fill-opacity:1;fill-rule:nonzero;stroke:none"
         id="path20"
         inkscape:connector-curvature="0" /><path
         d="m 843.359,195.221 -32.57,-20.855 -62.574,17.144 52,12"
         style="fill:#d0c182;fill-opacity:1;fill-rule:nonzero;stroke:none"
         id="path22"
         inkscape:connector-curvature="0" /><path
         d="m 683.074,116.651 25.141,-39.43 52.574,35.43"
         style="fill:#84bdd1;fill-opacity:1;fill-rule:nonzero;stroke:none"
         id="path24"
         inkscape:connector-curvature="0" /><path
         d="m 617.93,105.221 3.429,-10.285 36.571,21.715"
         style="fill:#84bdd1;fill-opacity:1;fill-rule:nonzero;stroke:none"
         id="path26"
         inkscape:connector-curvature="0" /><path
         d="m 311.23,206.745 -28.589,39.984 c 3.504,2.996 7.613,5.84 14.14,8.078 l 41.617,12.527 c 5.254,1.336 10.508,2.836 15.758,1.211 l 203.61,-36.008 C 504.168,205.565 425.129,194.952 311.23,206.745 Z"
         style="fill:#c9dceb;fill-opacity:1;fill-rule:nonzero;stroke:none"
         id="path28"
         inkscape:connector-curvature="0" /><path
         d="m 899.074,106.936 c 4.426,-0.277 8.332,0.476 12,1.715 l 60.571,18.285 c 0.398,1.285 0.304,2.523 -3.43,3.43 l -228.57,62.855 c -29.313,-3.656 -58.79,-6.996 -85.145,-16.57 -66.57,-24.328 -81.926,-35.852 -121.336,-53.391 z"
         style="fill:#c9dceb;fill-opacity:1;fill-rule:nonzero;stroke:none"
         id="path30"
         inkscape:connector-curvature="0" /><path
         d="m 253.93,58.366 c 10.84,-13.746 21.543,-24.024 40.57,-31.43 8.301,-3.231 16.332,-6.215 32,-4 7.871,1.113 22.98,6.207 27.145,7.715 34.285,12.383 19.835,8.25 79.714,26 0,0 78.973,18.261 118,29.144 33.34,9.297 104.856,32 104.856,32 -69.125,2 -52.871,6.68 -118.18,7.09 C 470.441,116.729 257.289,76.299 253.93,58.366 Z"
         style="fill:#d0c182;fill-opacity:1;fill-rule:nonzero;stroke:none"
         id="path32"
         inkscape:connector-curvature="0" /><path
         d="m 794.711,287.635 c 0,0 10.309,7.172 23.309,-0.867 19.902,-9.055 26.168,-19.777 35.742,-39.297 l 56.957,5.281 18.941,-12.672 c 0,0 -152.562,-28.152 -206.773,-36.503 C 671.008,184.1 557.527,143.381 536.113,123.756 l 15.563,-1.418 C 476.055,107.67 389.508,89.678 307.645,75.51 248.32,57.061 221.098,48.424 171.922,34.67 136.629,24.799 97.766,20.256 55.645,17.795 c -5.543,1.465 -4.688,5.129 -3.36,8.973 20.055,26.152 48.094,45.465 78.789,64.168 19.383,11.633 58.145,32.098 58.145,32.098 14.797,21.461 32.082,45.73 58.023,60.878 22.106,12.911 40.488,21.461 69.547,23.598 40.938,3.008 92,-1.144 92,-1.144 31.059,1.132 59.531,4.207 86.285,8.57 15.973,2.195 65.977,19.535 98.867,29.281 l 112.559,69.004 125.145,212.574 61.714,17.715 3.43,-0.574 0.57,-14.856 -21.714,-6.859 L 802.5,336.08 847.645,349.221 850.5,326.366 844.789,323.51 842.5,305.221 799.074,290.936 786.691,280.061 C 751.383,272.514 663.305,247.877 581.488,235.455 l 12.43,8.903"
         style="fill:#f5e49c;fill-opacity:1;fill-rule:nonzero;stroke:none"
         id="path34"
         inkscape:connector-curvature="0" /><path
         d="m 328.297,207.131 c 4.781,-4.445 8.031,-14.433 8.687,-21.011 0.446,-4.446 0.426,-11.098 0.504,-22.731 0.059,-8.5 -1.441,-10.035 10.426,-1.223 11.492,8.09 36.348,29.379 39.176,31.832 -2.485,6.313 -6.953,11.524 -12.125,14.344"
         style="fill:#d8f8f9;fill-opacity:1;fill-rule:nonzero;stroke:none"
         id="path36"
         inkscape:connector-curvature="0" /><path
         d="m 188.492,121.873 c -0.242,-7.183 17.731,-10.007 27.68,-7.679 27.676,6.488 63.109,17.707 75.961,22.629 14.215,5.441 34.347,13.132 34.347,13.132 3.063,1.426 3.782,4.375 3.637,7.375 0.086,11.063 -0.195,19.782 -1.012,30.809 -0.679,9.164 -7.859,16.637 -12.121,18.992 -35.195,-3.136 -59.863,-14.789 -79.89,-30.058 -19.985,-15.243 -34.262,-35.305 -48.602,-55.2 z"
         style="fill:#d8f8f9;fill-opacity:1;fill-rule:nonzero;stroke:none"
         id="path38"
         inkscape:connector-curvature="0" /><g
         id="g40"
         transform="matrix(1,0,0,-1,0,545.50623)"><path
           d="m 260.516,486.441 c 12.304,12.454 24.086,21.477 43.82,26.715 8.609,2.285 15.492,2.645 30.82,-1.304 7.696,-1.985 13.375,-11.145 11.782,-15.844 -6.192,-18.25 -35.348,-14.449 -58.231,-19.363"
           style="fill:#b6b6b6;fill-opacity:1;fill-rule:nonzero;stroke:#000000;stroke-width:4;stroke-linecap:round;stroke-linejoin:round;stroke-miterlimit:4;stroke-dasharray:none;stroke-opacity:1"
           id="path42"
           inkscape:connector-curvature="0" /></g><g
         id="g44"
         transform="matrix(1,0,0,-1,0,545.50623)"><path
           d="M 51.516,520.004 2.828,539.598 c -1.344,1.011 -1.367,4.949 2.422,3.636 l 49.902,-15.757 c 2.301,-2.735 0.633,-7.497 -3.636,-7.473 z"
           style="fill:#fcfcfc;fill-opacity:1;fill-rule:nonzero;stroke:#000000;stroke-width:4;stroke-linecap:round;stroke-linejoin:round;stroke-miterlimit:4;stroke-dasharray:none;stroke-opacity:1"
           id="path46"
           inkscape:connector-curvature="0" /></g><path
         d="m 173.359,35.221 c 3.965,3.051 5.868,9.742 5.969,16.969 0.102,7.226 0.211,1.84 0.211,1.84 63.711,11.086 121.258,25.093 135.758,27.324 29.144,4.484 163.476,31.129 220.687,42.457 l 9.274,-3.512 C 499.848,113.069 360.172,85.686 307.801,75.881 251.02,57.885 214.813,48.776 173.359,35.221 Z"
         style="fill:#bca64c;fill-opacity:1;fill-rule:nonzero;stroke:none"
         id="path48"
         inkscape:connector-curvature="0" /><g
         id="g50"
         transform="matrix(1,0,0,-1,0,545.50623)"><path
           d="m 131.074,453.996 c 16.317,-0.004 35.676,6.692 43.426,19.145 6.461,10.375 6.789,31.043 -1.141,37.144"
           style="fill:none;stroke:#000000;stroke-width:2.4000001;stroke-linecap:round;stroke-linejoin:round;stroke-miterlimit:4;stroke-dasharray:none;stroke-opacity:1"
           id="path52"
           inkscape:connector-curvature="0" /></g><g
         id="g54"
         transform="matrix(1,0,0,-1,0,545.50623)"><path
           d="m 179.539,491.477 c 63.711,-11.086 121.258,-25.094 135.758,-27.325 29.144,-4.484 163.476,-31.129 220.687,-42.457"
           style="fill:none;stroke:#000000;stroke-width:2.4000001;stroke-linecap:round;stroke-linejoin:round;stroke-miterlimit:4;stroke-dasharray:none;stroke-opacity:1"
           id="path56"
           inkscape:connector-curvature="0" /></g><g
         id="g58"
         transform="matrix(1,0,0,-1,0,545.50623)"><path
           d="m 188.492,423.633 c -0.242,7.183 17.731,10.008 27.68,7.68 27.676,-6.489 63.109,-17.708 75.961,-22.629 14.215,-5.442 34.347,-13.133 34.347,-13.133 3.063,-1.426 3.782,-4.375 3.637,-7.375 0.086,-11.063 -0.195,-19.781 -1.012,-30.809 -0.679,-9.164 -7.859,-16.637 -12.121,-18.992"
           style="fill:none;stroke:#000000;stroke-width:3.20000005;stroke-linecap:round;stroke-linejoin:round;stroke-miterlimit:4;stroke-dasharray:none;stroke-opacity:1"
           id="path60"
           inkscape:connector-curvature="0" /></g><g
         id="g62"
         transform="matrix(1,0,0,-1,0,545.50623)"><path
           d="m 328.297,338.375 c 4.781,4.445 8.031,14.434 8.687,21.012 0.446,4.445 0.426,11.097 0.504,22.73 0.059,8.5 -1.441,10.035 10.426,1.223 11.492,-8.09 36.348,-29.379 39.176,-31.832 -2.485,-6.313 -6.953,-11.524 -12.125,-14.344"
           style="fill:none;stroke:#000000;stroke-width:3.20000005;stroke-linecap:round;stroke-linejoin:round;stroke-miterlimit:4;stroke-dasharray:none;stroke-opacity:1"
           id="path64"
           inkscape:connector-curvature="0" /></g><g
         id="g66"
         transform="matrix(1,0,0,-1,0,545.50623)"><path
           d="m 311.23,338.762 -28.589,-39.985 c 3.504,-2.996 7.613,-5.839 14.14,-8.078 l 41.617,-12.527 c 5.254,-1.336 10.508,-2.836 15.758,-1.211 l 203.61,36.008"
           style="fill:none;stroke:#000000;stroke-width:4;stroke-linecap:round;stroke-linejoin:round;stroke-miterlimit:4;stroke-dasharray:none;stroke-opacity:1"
           id="path68"
           inkscape:connector-curvature="0" /></g><g
         id="g70"
         transform="matrix(1,0,0,-1,0,545.50623)"><path
           d="m 297.359,291.711 52,43.715"
           style="fill:none;stroke:#000000;stroke-width:1.60000002;stroke-linecap:round;stroke-linejoin:round;stroke-miterlimit:4;stroke-dasharray:none;stroke-opacity:1"
           id="path72"
           inkscape:connector-curvature="0" /></g><g
         id="g74"
         transform="matrix(1,0,0,-1,0,545.50623)"><path
           d="m 340.215,278.855 182.285,44"
           style="fill:none;stroke:#000000;stroke-width:1.60000002;stroke-linecap:round;stroke-linejoin:round;stroke-miterlimit:4;stroke-dasharray:none;stroke-opacity:1"
           id="path76"
           inkscape:connector-curvature="0" /></g><g
         id="g78"
         transform="matrix(1,0,0,-1,0,545.50623)"><path
           d="m 899.074,438.57 c 4.426,0.278 8.332,-0.476 12,-1.715 l 60.571,-18.285 c 0.398,-1.285 0.304,-2.523 -3.43,-3.429 l -228.57,-62.856 c -29.313,3.656 -58.79,6.996 -85.145,16.57 -66.57,24.329 -81.926,35.852 -121.336,53.391 z"
           style="fill:none;stroke:#000000;stroke-width:4;stroke-linecap:round;stroke-linejoin:round;stroke-miterlimit:4;stroke-dasharray:none;stroke-opacity:1"
           id="path80"
           inkscape:connector-curvature="0" /></g><g
         id="g82"
         transform="matrix(1,0,0,-1,0,545.50623)"><path
           d="m 903.359,437.285 c 0,0 7.735,-6.68 31.571,-13.574 17.851,-5.16 33.859,-7.141 33.859,-7.141"
           style="fill:none;stroke:#000000;stroke-width:1.60000002;stroke-linecap:round;stroke-linejoin:round;stroke-miterlimit:4;stroke-dasharray:none;stroke-opacity:1"
           id="path84"
           inkscape:connector-curvature="0" /></g><g
         id="g86"
         transform="matrix(1,0,0,-1,0,545.50623)"><path
           d="M 956.371,418.695 694.082,360.41"
           style="fill:none;stroke:#000000;stroke-width:1.60000002;stroke-linecap:round;stroke-linejoin:round;stroke-miterlimit:4;stroke-dasharray:none;stroke-opacity:1"
           id="path88"
           inkscape:connector-curvature="0" /></g><g
         id="g90"
         transform="matrix(1,0,0,-1,0,545.50623)"><path
           d="M 913.777,431.266 565.797,407.84"
           style="fill:none;stroke:#000000;stroke-width:1.60000002;stroke-linecap:round;stroke-linejoin:round;stroke-miterlimit:4;stroke-dasharray:none;stroke-opacity:1"
           id="path92"
           inkscape:connector-curvature="0" /></g><g
         id="g94"
         transform="matrix(1,0,0,-1,0,545.50623)"><path
           d="m 253.93,487.141 c 10.84,13.746 21.543,24.023 40.57,31.429 8.301,3.231 16.332,6.215 32,4 7.871,-1.113 22.98,-6.207 27.145,-7.715 34.285,-12.382 19.835,-8.25 79.714,-26 0,0 78.973,-18.261 118,-29.144 33.34,-9.297 104.856,-32 104.856,-32"
           style="fill:none;stroke:#000000;stroke-width:4;stroke-linecap:round;stroke-linejoin:round;stroke-miterlimit:4;stroke-dasharray:none;stroke-opacity:1"
           id="path96"
           inkscape:connector-curvature="0" /></g><g
         id="g98"
         transform="matrix(1,0,0,-1,0,545.50623)"><path
           d="m 800.215,341.996 c 27.648,-8.484 52.945,-16.215 85.144,-25.141 18.633,-5.164 36.571,-8.867 54.856,-11.429 l 104.574,46.859 c 5.438,3.192 6.309,5.133 5.844,7.492 l -37.844,14.508 c -4.055,1.106 -9.258,1.055 -12.574,0.285 z"
           style="fill:none;stroke:#000000;stroke-width:4;stroke-linecap:round;stroke-linejoin:round;stroke-miterlimit:4;stroke-dasharray:none;stroke-opacity:1"
           id="path100"
           inkscape:connector-curvature="0" /></g><g
         id="g102"
         transform="matrix(1,0,0,-1,0,545.50623)"><path
           d="m 797.645,256.57 c 22.851,1.809 40.687,-0.382 62.57,-0.574 10.476,3.781 17.047,8.516 22.574,14.289 7.215,7.535 9.461,16 10.856,24"
           style="fill:none;stroke:#000000;stroke-width:4;stroke-linecap:round;stroke-linejoin:round;stroke-miterlimit:4;stroke-dasharray:none;stroke-opacity:1"
           id="path104"
           inkscape:connector-curvature="0" /></g><g
         id="g106"
         transform="matrix(1,0,0,-1,0,545.50623)"><path
           d="m 653.93,368.855 71.144,-25.144 206,-38 -20.859,-12.856 -70.285,6.286"
           style="fill:none;stroke:#000000;stroke-width:4;stroke-linecap:round;stroke-linejoin:round;stroke-miterlimit:4;stroke-dasharray:none;stroke-opacity:1"
           id="path108"
           inkscape:connector-curvature="0" /></g><g
         id="g110"
         transform="matrix(1,0,0,-1,0,545.50623)"><path
           d="m 815.645,257.996 c 25.492,8.234 31.359,24.617 36.285,39.145"
           style="fill:none;stroke:#000000;stroke-width:2.4000001;stroke-linecap:round;stroke-linejoin:round;stroke-miterlimit:4;stroke-dasharray:none;stroke-opacity:1"
           id="path112"
           inkscape:connector-curvature="0" /></g><g
         id="g114"
         transform="matrix(1,0,0,-1,0,545.50623)"><path
           d="m 748.215,353.996 52,-12"
           style="fill:none;stroke:#000000;stroke-width:2.4000001;stroke-linecap:round;stroke-linejoin:round;stroke-miterlimit:4;stroke-dasharray:none;stroke-opacity:1"
           id="path116"
           inkscape:connector-curvature="0" /></g><g
         id="g118"
         transform="matrix(1,0,0,-1,0,545.50623)"><path
           d="m 810.789,371.141 32.57,-20.856"
           style="fill:none;stroke:#000000;stroke-width:4;stroke-linecap:round;stroke-linejoin:round;stroke-miterlimit:4;stroke-dasharray:none;stroke-opacity:1"
           id="path120"
           inkscape:connector-curvature="0" /></g><g
         id="g122"
         transform="matrix(1,0,0,-1,0,545.50623)"><path
           d="M 894.793,18.359 843.07,196.148"
           style="fill:none;stroke:#000000;stroke-width:4;stroke-linecap:round;stroke-linejoin:round;stroke-miterlimit:4;stroke-dasharray:none;stroke-opacity:1"
           id="path124"
           inkscape:connector-curvature="0" /></g><g
         id="g126"
         transform="matrix(1,0,0,-1,0,545.50623)"><path
           d="m 846.789,220.855 c -72.832,27.161 -78.871,26.864 -106.574,34.571"
           style="fill:none;stroke:#000000;stroke-width:1.60000002;stroke-linecap:butt;stroke-linejoin:miter;stroke-miterlimit:4;stroke-dasharray:none;stroke-opacity:1"
           id="path128"
           inkscape:connector-curvature="0" /></g><g
         id="g130"
         transform="matrix(1,0,0,-1,0,545.50623)"><path
           d="m 617.93,440.285 3.429,10.285 36.571,-21.715"
           style="fill:none;stroke:#000000;stroke-width:4;stroke-linecap:round;stroke-linejoin:round;stroke-miterlimit:4;stroke-dasharray:none;stroke-opacity:1"
           id="path132"
           inkscape:connector-curvature="0" /></g><g
         id="g134"
         transform="matrix(1,0,0,-1,0,545.50623)"><path
           d="m 683.074,428.855 25.141,39.43 52.574,-35.43"
           style="fill:none;stroke:#000000;stroke-width:4;stroke-linecap:round;stroke-linejoin:round;stroke-miterlimit:4;stroke-dasharray:none;stroke-opacity:1"
           id="path136"
           inkscape:connector-curvature="0" /></g><g
         id="g138"
         transform="matrix(1,0,0,-1,0,545.50623)"><path
           d="m 551.676,423.168 c -75.621,14.668 -162.168,32.66 -244.031,46.828 -59.325,18.449 -86.547,27.086 -135.723,40.84 -35.293,9.871 -74.156,14.414 -116.277,16.875 -5.543,-1.465 -4.688,-5.129 -3.36,-8.973 20.055,-26.152 48.094,-45.465 78.789,-64.168 19.383,-11.632 58.145,-32.097 58.145,-32.097 14.797,-21.461 32.082,-45.731 58.023,-60.879 22.106,-12.91 40.488,-21.461 69.547,-23.598 40.938,-3.008 92,1.145 92,1.145 31.059,-1.133 59.531,-4.207 86.285,-8.571 15.973,-2.195 65.977,-19.535 98.867,-29.281 L 706.5,232.285 831.645,19.711 893.359,1.996 l 3.43,0.574 0.57,14.856 -21.714,6.859 -73.145,185.141 45.145,-13.141 2.855,22.856 -5.711,2.855 -2.289,18.289 -43.426,14.285 -12.383,10.875 c -35.308,7.547 -123.386,32.184 -205.203,44.606 l 12.43,-8.903"
           style="fill:none;stroke:#000000;stroke-width:4;stroke-linecap:round;stroke-linejoin:round;stroke-miterlimit:4;stroke-dasharray:none;stroke-opacity:1"
           id="path140"
           inkscape:connector-curvature="0" /></g><g
         id="g142"
         transform="matrix(1,0,0,-1,0,545.50623)"><path
           d="m 828.789,301.426 c -60.574,6.285 -189.144,40 -322.859,90.859 -140.707,30.875 -206.356,40.418 -332.571,78.285"
           style="fill:none;stroke:#000000;stroke-width:0.80000001;stroke-linecap:butt;stroke-linejoin:miter;stroke-miterlimit:4;stroke-dasharray:none;stroke-opacity:1"
           id="path144"
           inkscape:connector-curvature="0" /></g></g></g></svg>