<?xml version="1.0" encoding="UTF-8"?>
<svg xmlns="http://www.w3.org/2000/svg" xmlns:xlink="http://www.w3.org/1999/xlink" width="788.169006pt" height="552.669739pt" viewBox="0 0 788.169006 552.669739" version="1.1">
<defs>
<clipPath id="clip1">
  <path d="M 602 164 L 788.167969 164 L 788.167969 237 L 602 237 Z M 602 164 "/>
</clipPath>
<clipPath id="clip2">
  <path d="M 560 403 L 776 403 L 776 552.667969 L 560 552.667969 Z M 560 403 "/>
</clipPath>
</defs>
<g id="surface1">
<path style="fill:none;stroke-width:2.4;stroke-linecap:round;stroke-linejoin:round;stroke:rgb(0%,0%,0%);stroke-opacity:1;stroke-miterlimit:4;" d="M 676.25 165.253906 C 676.25 165.253906 683.023438 159.40625 687.5625 155.554688 C 685.613281 153.160156 680.703125 148.792969 680.289063 143.433594 C 672.230469 143.8125 649.496094 147.488281 635.894531 146.949219 C 632.105469 146.535156 629.75 145.890625 630.472656 142.917969 C 638.972656 92.894531 639.632813 100.046875 659.28125 1.203125 C 632.226563 8.90625 630.496094 9.625 612.003906 15.34375 C 599.003906 22.609375 595.121094 35.863281 533.617188 152.320313 C 516.941406 167.347656 487.300781 186.84375 476.238281 192.324219 C 448.886719 205.875 421.070313 214.703125 388.960938 222.628906 C 361.734375 229.15625 326.742188 232.867188 301.6875 238.792969 C 275.160156 245.0625 237.222656 254.203125 206.730469 270.710938 C 180.90625 284.691406 163.9375 297.933594 142.484375 317.988281 C 122.695313 336.488281 93.050781 373.707031 85.109375 384.253906 C 55.308594 410.589844 41.003906 425.027344 13.589844 457.792969 C 8.066406 464.394531 -2.089844 477.363281 2.277344 485.269531 C 6.855469 493.5625 20.765625 493.890625 29.753906 492.542969 C 77.960938 485.300781 131.636719 464.695313 175.214844 449.308594 C 222.675781 432.546875 302.089844 395.566406 302.089844 395.566406 "/>
<path style="fill:none;stroke-width:2.4;stroke-linecap:butt;stroke-linejoin:miter;stroke:rgb(0%,0%,0%);stroke-opacity:1;stroke-miterlimit:4;" d="M 554.628906 111.109375 L 531.597656 101.105469 C 526.003906 102.757813 512.996094 104.671875 511.191406 110.5 C 507.082031 114.207031 497.347656 118.929688 500.28125 123.230469 L 532.40625 152.726563 "/>
<g clip-path="url(#clip1)" clip-rule="nonzero">
<path style="fill:none;stroke-width:2.4;stroke-linecap:round;stroke-linejoin:round;stroke:rgb(0%,0%,0%);stroke-opacity:1;stroke-miterlimit:4;" d="M 617.445313 195.203125 C 617.753906 186.542969 654.082031 172.625 675.417969 165.78125 L 786.964844 212.929688 C 776.792969 220.335938 764.335938 231.734375 753.023438 228.285156 C 743.59375 230.710938 728.445313 237.675781 720.167969 233.84375 L 618.066406 195.960938 C 614.164063 195.269531 608.835938 195.265625 603.515625 197.960938 "/>
</g>
<path style="fill:none;stroke-width:2.4;stroke-linecap:round;stroke-linejoin:round;stroke:rgb(0%,0%,0%);stroke-opacity:1;stroke-miterlimit:4;" d="M 370.824219 396.871094 C 360.628906 401 348.691406 404.933594 331.679688 408.300781 C 328.0625 408.554688 322.15625 409.332031 318.535156 407.160156 C 311.152344 403.1875 304.5 398.359375 299.394531 391.730469 C 297.996094 388.007813 297.265625 384.117188 297.394531 380.015625 C 297.386719 377.484375 298.589844 374.785156 301.25 371.871094 C 307.109375 365.777344 313.691406 360.363281 324.394531 353.585938 C 333.8125 347.625 349.625 338 362.25 332.585938 C 388.175781 321.472656 414.503906 313.945313 442.25 308.871094 C 452.863281 306.933594 471.832031 304.609375 474.535156 306.585938 C 476.652344 308.5625 476.402344 312.1875 473.394531 314.015625 "/>
<path style="fill:none;stroke-width:2.4;stroke-linecap:butt;stroke-linejoin:miter;stroke:rgb(0%,0%,0%);stroke-opacity:1;stroke-miterlimit:4;" d="M 297.394531 380.015625 C 297.621094 376.382813 299.710938 375.4375 302.394531 376.585938 C 312.015625 383.230469 316.355469 386.890625 321.394531 393.585938 C 325.257813 398.722656 323.832031 405.222656 321.109375 407.585938 "/>
<path style="fill:none;stroke-width:2.4;stroke-linecap:butt;stroke-linejoin:miter;stroke:rgb(0%,0%,0%);stroke-opacity:1;stroke-miterlimit:4;" d="M 473.792969 315.445313 C 499.945313 302.769531 520.148438 291.179688 542.507813 279.195313 C 576.746094 260.84375 614.058594 237.460938 649.582031 208.890625 "/>
<path style="fill-rule:nonzero;fill:rgb(100%,100%,100%);fill-opacity:1;stroke-width:2.4;stroke-linecap:round;stroke-linejoin:round;stroke:rgb(0%,0%,0%);stroke-opacity:1;stroke-miterlimit:4;" d="M 547.757813 270.308594 L 580.082031 275.5625 L 636.652344 231.921875 L 630.1875 219.800781 Z M 547.757813 270.308594 "/>
<path style="fill:none;stroke-width:1.6;stroke-linecap:round;stroke-linejoin:round;stroke:rgb(0%,0%,0%);stroke-opacity:1;stroke-miterlimit:4;" d="M 14.398438 457.792969 C 19.625 459.453125 25.195313 465.046875 27.730469 470.316406 C 30.546875 476.164063 32.195313 487.671875 29.148438 491.933594 "/>
<path style="fill:none;stroke-width:1.6;stroke-linecap:round;stroke-linejoin:round;stroke:rgb(0%,0%,0%);stroke-opacity:1;stroke-miterlimit:4;" d="M 75.007813 393.34375 C 91.191406 403.839844 97.515625 416.261719 100.058594 422.4375 C 102.527344 428.4375 110.785156 458.78125 105.3125 473.347656 "/>
<path style="fill:none;stroke-width:1.6;stroke-linecap:round;stroke-linejoin:round;stroke:rgb(0%,0%,0%);stroke-opacity:1;stroke-miterlimit:4;" d="M 103.292969 433.546875 C 144.496094 418.121094 178.820313 395.167969 210.773438 372.839844 C 249.683594 345.652344 287.519531 319.972656 323.246094 295.972656 C 367.246094 266.417969 409.886719 242.390625 444.035156 228.335938 C 499.949219 205.316406 588.851563 182.84375 618.875 182.605469 "/>
<path style="fill:none;stroke-width:1.6;stroke-linecap:round;stroke-linejoin:round;stroke:rgb(0%,0%,0%);stroke-opacity:1;stroke-miterlimit:4;" d="M 474.644531 217.125 C 489.886719 223.855469 494.867188 243.46875 496.265625 250.789063 C 497.484375 257.160156 497.277344 287.417969 490.664063 306.273438 "/>
<path style="fill:none;stroke-width:1.6;stroke-linecap:round;stroke-linejoin:round;stroke:rgb(0%,0%,0%);stroke-opacity:1;stroke-miterlimit:4;" d="M 628.175781 199.824219 C 621.367188 201.921875 603.886719 202.871094 601.324219 200.117188 C 596.902344 195.371094 605.320313 189.398438 618.453125 182.789063 "/>
<path style="fill:none;stroke-width:1.6;stroke-linecap:round;stroke-linejoin:round;stroke:rgb(0%,0%,0%);stroke-opacity:1;stroke-miterlimit:4;" d="M 84.503906 385.261719 C 92.710938 395.859375 103.726563 399.121094 115.210938 402.03125 C 126.171875 402.882813 140.695313 398.808594 157.03125 393.75 C 159.839844 391.394531 157.917969 388.734375 157.234375 386.878906 C 144.828125 367.539063 131.992188 353.699219 117.433594 345.664063 "/>
<path style="fill:none;stroke-width:1.6;stroke-linecap:round;stroke-linejoin:round;stroke:rgb(0%,0%,0%);stroke-opacity:1;stroke-miterlimit:4;" d="M 122.59375 339.378906 C 127.339844 341.203125 132.402344 345.742188 136.828125 349.90625 C 151.34375 363.574219 156.621094 374.082031 165.921875 385.871094 C 168.308594 388.9375 171.515625 386.269531 173.527344 384.820313 L 221.421875 353.472656 C 225.730469 350.242188 227.53125 345.1875 229.214844 340.828125 C 232.757813 321.140625 233.957031 305.664063 231.328125 291.007813 C 228.3125 274.167969 211.800781 269.660156 206.730469 271.117188 "/>
<path style="fill:none;stroke-width:1.6;stroke-linecap:round;stroke-linejoin:round;stroke:rgb(0%,0%,0%);stroke-opacity:1;stroke-miterlimit:4;" d="M 215.535156 266.730469 C 222.449219 266.699219 230.070313 273.449219 233.109375 278.730469 C 238.613281 288.296875 238.914063 304.789063 238.824219 311.445313 L 235.394531 339.730469 C 233.902344 345.828125 237.007813 343.5 239.964844 341.445313 L 297.964844 300.300781 C 303.375 296.863281 304.136719 292.511719 304.964844 289.160156 C 306.605469 280.652344 307.972656 271.523438 305.964844 260.015625 C 304.398438 251.015625 297.554688 244.5 289.109375 242.300781 "/>
<path style="fill:none;stroke-width:1.6;stroke-linecap:round;stroke-linejoin:round;stroke:rgb(0%,0%,0%);stroke-opacity:1;stroke-miterlimit:4;" d="M 302.292969 371.324219 C 313.414063 377.6875 318.777344 382.5 324.3125 387.890625 C 328.179688 392.253906 329.074219 395.40625 329.363281 398.800781 C 329.640625 402.039063 329.078125 405.308594 327.847656 408.292969 "/>
<g clip-path="url(#clip2)" clip-rule="nonzero">
<path style="fill:none;stroke-width:2.4;stroke-linecap:round;stroke-linejoin:round;stroke:rgb(0%,0%,0%);stroke-opacity:1;stroke-miterlimit:4;" d="M 772.535156 404.871094 C 750 409.644531 723.8125 416.929688 699.964844 427.445313 C 664.027344 443.289063 628.605469 461.601563 591.964844 496.871094 C 579.761719 508.621094 567.226563 521.332031 562.25 537.445313 C 560.457031 543.257813 562.042969 551.171875 568.25 551.445313 C 573.679688 551.683594 585.40625 549.328125 593.679688 546.585938 C 605.59375 542.640625 613.054688 539.289063 625.644531 533.265625 C 638.402344 527.160156 658.363281 514.226563 669.109375 507.160156 C 695.175781 490.015625 725.28125 464.464844 741.394531 446.871094 L 772.535156 412.871094 C 774.003906 410.792969 774.839844 408.460938 772.535156 404.871094 Z M 772.535156 404.871094 "/>
</g>
<path style="fill:none;stroke-width:1.6;stroke-linecap:round;stroke-linejoin:round;stroke:rgb(0%,0%,0%);stroke-opacity:1;stroke-miterlimit:4;" d="M 567.109375 527.445313 C 573.65625 525.535156 576.433594 530.453125 578.535156 533.730469 C 580.425781 540.425781 580.671875 545.5625 578.824219 550.015625 "/>
<path style="fill:none;stroke-width:1.6;stroke-linecap:round;stroke-linejoin:round;stroke:rgb(0%,0%,0%);stroke-opacity:1;stroke-miterlimit:4;" d="M 764.824219 407.160156 C 768.410156 408.59375 767.625 414.03125 767.507813 417.480469 "/>
<path style="fill:none;stroke-width:2.4;stroke-linecap:round;stroke-linejoin:round;stroke:rgb(0%,0%,0%);stroke-opacity:1;stroke-miterlimit:4;" d="M 470.390625 311.734375 C 469.367188 314.753906 472.179688 314.890625 473.402344 315.710938 L 696.613281 428.316406 "/>
<path style="fill:none;stroke-width:1.6;stroke-linecap:round;stroke-linejoin:round;stroke:rgb(0%,0%,0%);stroke-opacity:1;stroke-miterlimit:4;" d="M 476.238281 318.59375 L 454.621094 324.046875 L 592.609375 391.121094 "/>
<path style="fill:none;stroke-width:1.6;stroke-linecap:round;stroke-linejoin:round;stroke:rgb(0%,0%,0%);stroke-opacity:1;stroke-miterlimit:4;" d="M 611.195313 385.667969 L 586.632813 394.003906 L 678.261719 437.078125 "/>
<path style="fill:none;stroke-width:2.4;stroke-linecap:round;stroke-linejoin:round;stroke:rgb(0%,0%,0%);stroke-opacity:1;stroke-miterlimit:4;" d="M 438.652344 344.890625 C 386.109375 365.417969 359.570313 382.234375 362.644531 392.535156 L 605.183594 484.746094 "/>
<path style="fill:none;stroke-width:1.6;stroke-linecap:round;stroke-linejoin:round;stroke:rgb(0%,0%,0%);stroke-opacity:1;stroke-miterlimit:4;" d="M 207.679688 129.253906 C 210.449219 128.1875 212.167969 122.59375 208.25 122.300781 C 190.8125 121.351563 174.03125 122.78125 158.535156 126.300781 C 141.988281 130.0625 124.019531 136.960938 111.679688 146.730469 C 109.382813 148.546875 108.125 153.886719 113.679688 155.730469 C 116.742188 156.746094 120.527344 156.214844 124.109375 156.160156 "/>
<path style="fill:none;stroke-width:2.4;stroke-linecap:round;stroke-linejoin:round;stroke:rgb(0%,0%,0%);stroke-opacity:1;stroke-miterlimit:4;" d="M 127.394531 160.585938 C 101.039063 166.742188 83.15625 170.386719 60.109375 170.015625 C 56.164063 169.808594 49.1875 169.546875 44.824219 168.585938 C 39.148438 167.339844 40.109375 161.210938 41.964844 158.871094 C 44.640625 155.496094 51.929688 150.375 59.535156 145.445313 C 65.292969 141.714844 70.589844 138.753906 79.394531 134.585938 C 99.929688 124.582031 129.324219 115.972656 143.679688 112.585938 C 168.441406 106.8125 188.03125 103.871094 212.824219 102.300781 C 230.003906 101.214844 237.574219 101.527344 245.109375 101.585938 C 247.488281 101.492188 250.871094 101.683594 253.25 101.585938 C 254.753906 101.921875 255.433594 103.480469 253.394531 104.871094 C 250.386719 107.109375 248.207031 108.667969 245.964844 110.300781 C 230.675781 121.445313 221.152344 123.78125 209.109375 130.015625 "/>
<path style="fill:none;stroke-width:1.6;stroke-linecap:round;stroke-linejoin:round;stroke:rgb(0%,0%,0%);stroke-opacity:1;stroke-miterlimit:4;" d="M 51.25 151.300781 C 53.167969 152.324219 55.421875 155.875 55.878906 159.585938 C 56.339844 163.304688 55.246094 166.421875 54.003906 169.160156 "/>
<path style="fill:none;stroke-width:1.6;stroke-linecap:round;stroke-linejoin:round;stroke:rgb(0%,0%,0%);stroke-opacity:1;stroke-miterlimit:4;" d="M 243.457031 101.160156 C 244.546875 101.738281 245.828125 103.738281 246.089844 105.835938 C 246.347656 107.929688 245.726563 109.6875 245.019531 111.230469 "/>
<path style="fill:none;stroke-width:2.4;stroke-linecap:round;stroke-linejoin:round;stroke:rgb(0%,0%,0%);stroke-opacity:1;stroke-miterlimit:4;" d="M 118.824219 152.585938 C 122.164063 152.484375 125.570313 156.195313 127.679688 159.445313 L 207.964844 269.160156 "/>
<path style="fill:none;stroke-width:1.6;stroke-linecap:round;stroke-linejoin:round;stroke:rgb(0%,0%,0%);stroke-opacity:1;stroke-miterlimit:4;" d="M 187.308594 130.464844 L 243.40625 177.347656 L 268.820313 174.566406 M 249.691406 177.492188 L 320.390625 234.28125 "/>
<path style="fill:none;stroke-width:1.6;stroke-linecap:round;stroke-linejoin:round;stroke:rgb(0%,0%,0%);stroke-opacity:1;stroke-miterlimit:4;" d="M 123.464844 153.496094 C 125.5625 144.726563 151.085938 137.550781 161.078125 135.125 C 166.96875 133.695313 188.933594 128.269531 208.007813 129.714844 "/>
<path style="fill:none;stroke-width:2.4;stroke-linecap:round;stroke-linejoin:round;stroke:rgb(0%,0%,0%);stroke-opacity:1;stroke-miterlimit:4;" d="M 206.039063 126.21875 C 204.78125 126.988281 206.402344 128.621094 208.8125 130.238281 L 344.980469 230.238281 "/>
<path style="fill:none;stroke-width:1.6;stroke-linecap:butt;stroke-linejoin:miter;stroke:rgb(0%,0%,0%);stroke-opacity:1;stroke-miterlimit:4;" d="M 144.457031 140.386719 L 243.855469 254.617188 "/>
<path style="fill-rule:nonzero;fill:rgb(100%,100%,100%);fill-opacity:1;stroke-width:1.6;stroke-linecap:round;stroke-linejoin:round;stroke:rgb(0%,0%,0%);stroke-opacity:1;stroke-miterlimit:4;" d="M 215.945313 184.660156 L 215.742188 178.996094 C 198.136719 182.410156 190.4375 185.277344 181.351563 189.242188 C 170.496094 193.980469 164.191406 198.386719 159.308594 203.164063 C 156.191406 206.214844 154.925781 208.855469 154.820313 211.285156 C 154.6875 214.3125 156.355469 215.683594 158.59375 216.539063 C 161.363281 217.601563 165.582031 217.472656 169.425781 216.882813 L 165.046875 211.082031 C 164.0625 209.175781 165.714844 206.460938 168.113281 204.660156 C 175.339844 199.113281 184.753906 194.40625 194.496094 191.164063 C 202.054688 188.648438 210.386719 186.453125 215.945313 184.660156 Z M 215.945313 184.660156 "/>
<path style="fill:none;stroke-width:1.6;stroke-linecap:butt;stroke-linejoin:miter;stroke:rgb(0%,0%,0%);stroke-opacity:1;stroke-miterlimit:4;" d="M 397.078125 364.492188 L 637.621094 459.863281 "/>
<path style="fill-rule:nonzero;fill:rgb(100%,100%,100%);fill-opacity:1;stroke-width:1.6;stroke-linecap:round;stroke-linejoin:round;stroke:rgb(0%,0%,0%);stroke-opacity:1;stroke-miterlimit:4;" d="M 560.082031 407.488281 L 559.074219 401.023438 C 540.339844 408.933594 532.464844 413.828125 523.3125 420.214844 C 512.371094 427.847656 506.40625 434.015625 502.101563 440.214844 C 499.351563 444.175781 498.214844 447.953125 498.664063 450.519531 C 499.226563 453.71875 501.710938 455.082031 504.421875 455.164063 C 507.167969 455.25 513.023438 453.886719 516.949219 451.429688 L 510.484375 449.003906 C 508.914063 447.101563 510.363281 443.097656 512.605469 440.621094 C 519.328125 433.039063 530.027344 424.390625 540.082031 418.597656 C 547.878906 414.105469 554.332031 410.730469 560.082031 407.488281 Z M 560.082031 407.488281 "/>
<path style="fill:none;stroke-width:1.2;stroke-linecap:round;stroke-linejoin:round;stroke:rgb(0%,0%,0%);stroke-opacity:1;stroke-miterlimit:4;" d="M 636.652344 181.011719 L 735.292969 223.746094 "/>
<path style="fill:none;stroke-width:1.6;stroke-linecap:round;stroke-linejoin:round;stroke:rgb(0%,0%,0%);stroke-opacity:1;stroke-miterlimit:4;" d="M 659.683594 171.71875 L 755.851563 215.757813 L 748.578125 220.894531 C 752.460938 223.65625 752.222656 226.136719 752.28125 228.050781 "/>
<path style="fill:none;stroke-width:1.2;stroke-linecap:round;stroke-linejoin:round;stroke:rgb(0%,0%,0%);stroke-opacity:1;stroke-miterlimit:4;" d="M 721.101563 233.941406 C 726.601563 226.988281 739.726563 220.503906 751.59375 216.449219 "/>
<path style="fill:none;stroke-width:1.2;stroke-linecap:round;stroke-linejoin:round;stroke:rgb(0%,0%,0%);stroke-opacity:1;stroke-miterlimit:4;" d="M 754.164063 228.050781 C 757.105469 221.460938 772.820313 216.769531 785.183594 212.644531 "/>
<path style="fill:none;stroke-width:1.2;stroke-linecap:round;stroke-linejoin:round;stroke:rgb(0%,0%,0%);stroke-opacity:1;stroke-miterlimit:4;" d="M 744.242188 219.371094 C 745.699219 219.417969 746.992188 220.1875 748.378906 220.949219 "/>
<path style="fill:none;stroke-width:1.6;stroke-linecap:round;stroke-linejoin:round;stroke:rgb(0%,0%,0%);stroke-opacity:1;stroke-miterlimit:4;" d="M 549.980469 120.570313 L 524.929688 108.851563 C 521.726563 108.902344 520.519531 110.441406 519.070313 112 L 512.132813 109.1875 "/>
<path style="fill:none;stroke-width:1.2;stroke-linecap:round;stroke-linejoin:round;stroke:rgb(0%,0%,0%);stroke-opacity:1;stroke-miterlimit:4;" d="M 511.191406 115.351563 L 542.152344 134.449219 "/>
<path style="fill:none;stroke-width:1.2;stroke-linecap:round;stroke-linejoin:round;stroke:rgb(0%,0%,0%);stroke-opacity:1;stroke-miterlimit:4;" d="M 501.492188 123.433594 C 504.402344 118.542969 512.375 114.558594 518.714844 112.226563 "/>
<path style="fill:none;stroke-width:1.6;stroke-linecap:round;stroke-linejoin:round;stroke:rgb(0%,0%,0%);stroke-opacity:1;stroke-miterlimit:4;" d="M 654.230469 26.660156 L 627.5625 40.398438 L 622.796875 61.242188 L 609.582031 68.066406 L 607.59375 75.765625 L 620.488281 69.289063 L 605.539063 133.734375 L 592.265625 140.453125 L 590.566406 148.238281 L 603.921875 141.007813 L 601.5 151.109375 L 607.964844 152.726563 L 629.785156 143.835938 "/>
<path style="fill:none;stroke-width:1.2;stroke-linecap:round;stroke-linejoin:round;stroke:rgb(0%,0%,0%);stroke-opacity:1;stroke-miterlimit:4;" d="M 631.9375 146.582031 C 631.300781 160.121094 635.839844 171.0625 643.578125 177.746094 "/>
<path style="fill:none;stroke-width:1.2;stroke-linecap:round;stroke-linejoin:round;stroke:rgb(0%,0%,0%);stroke-opacity:1;stroke-miterlimit:4;" d="M 608.796875 153.4375 C 608.285156 168.28125 615.941406 182.496094 623.433594 186.746094 "/>
<path style="fill:none;stroke-width:1.2;stroke-linecap:round;stroke-linejoin:round;stroke:rgb(0%,0%,0%);stroke-opacity:1;stroke-miterlimit:4;" d="M 570.796875 189.4375 C 568.914063 186.191406 565.277344 182.515625 560.742188 179.265625 L 611.402344 47.523438 L 629.433594 39.320313 "/>
</g>
</svg>
