<?xml version="1.0" encoding="UTF-8" standalone="no"?>
<!-- Created with Inkscape (http://www.inkscape.org/) -->

<svg
   xmlns:dc="http://purl.org/dc/elements/1.1/"
   xmlns:cc="http://creativecommons.org/ns#"
   xmlns:rdf="http://www.w3.org/1999/02/22-rdf-syntax-ns#"
   xmlns:svg="http://www.w3.org/2000/svg"
   xmlns="http://www.w3.org/2000/svg"
   xmlns:sodipodi="http://sodipodi.sourceforge.net/DTD/sodipodi-0.dtd"
   xmlns:inkscape="http://www.inkscape.org/namespaces/inkscape"
   version="1.1"
   id="svg2"
   xml:space="preserve"
   width="1050.892"
   height="736.89301"
   viewBox="0 0 1050.892 736.89301"
   sodipodi:docname="isoview_mb339.svg"
   inkscape:version="0.92.4 (5da689c313, 2019-01-14)"><metadata
     id="metadata8"><rdf:RDF><cc:Work
         rdf:about=""><dc:format>image/svg+xml</dc:format><dc:type
           rdf:resource="http://purl.org/dc/dcmitype/StillImage" /><dc:title></dc:title></cc:Work></rdf:RDF></metadata><defs
     id="defs6" /><sodipodi:namedview
     pagecolor="#ffffff"
     bordercolor="#666666"
     borderopacity="1"
     objecttolerance="10"
     gridtolerance="10"
     guidetolerance="10"
     inkscape:pageopacity="0"
     inkscape:pageshadow="2"
     inkscape:window-width="3440"
     inkscape:window-height="1346"
     id="namedview4"
     showgrid="false"
     inkscape:zoom="1.4832813"
     inkscape:cx="525.44329"
     inkscape:cy="368.44904"
     inkscape:window-x="-11"
     inkscape:window-y="-11"
     inkscape:window-maximized="1"
     inkscape:current-layer="g10" /><g
     id="g10"
     inkscape:groupmode="layer"
     inkscape:label="isoview_mb339"
     transform="matrix(1.3333333,0,0,-1.3333333,0,736.89299)"><g
       id="g12"><g
         id="g14"
         transform="matrix(1,0,0,-1,0,552.66974)"><path
           d="m 676.25,165.254 c 0,0 6.773,-5.848 11.313,-9.699 -1.95,-2.395 -6.86,-6.762 -7.274,-12.121 -8.059,0.379 -30.793,4.054 -44.394,3.515 -3.79,-0.414 -6.145,-1.058 -5.422,-4.031 8.5,-50.023 9.16,-42.871 28.808,-141.715 -27.054,7.703 -28.785,8.422 -47.277,14.141 -13,7.265 -16.883,20.519 -78.387,136.976 -16.676,15.028 -46.316,34.524 -57.379,40.004 -27.351,13.551 -55.168,22.379 -87.277,30.305 -27.227,6.527 -62.219,10.238 -87.273,16.164 -26.528,6.27 -64.465,15.41 -94.958,31.918 -25.824,13.98 -42.792,27.223 -64.246,47.277 -19.789,18.5 -49.433,55.719 -57.375,66.266 -29.8,26.336 -44.105,40.773 -71.519,73.539 -5.524,6.602 -15.68,19.57 -11.313,27.477 4.578,8.293 18.489,8.621 27.477,7.273 48.207,-7.242 101.883,-27.848 145.461,-43.234 47.461,-16.762 126.875,-53.743 126.875,-53.743"
           style="fill:none;stroke:#000000;stroke-width:2.4000001;stroke-linecap:round;stroke-linejoin:round;stroke-miterlimit:4;stroke-dasharray:none;stroke-opacity:1"
           id="path16"
           inkscape:connector-curvature="0" /></g><g
         id="g18"
         transform="matrix(1,0,0,-1,0,552.66974)"><path
           d="m 554.629,111.109 -23.031,-10.004 c -5.594,1.653 -18.602,3.567 -20.407,9.395 -4.109,3.707 -13.843,8.43 -10.91,12.73 l 32.125,29.497"
           style="fill:none;stroke:#000000;stroke-width:2.4000001;stroke-linecap:butt;stroke-linejoin:miter;stroke-miterlimit:4;stroke-dasharray:none;stroke-opacity:1"
           id="path20"
           inkscape:connector-curvature="0" /></g><g
         id="g22"
         transform="matrix(1,0,0,-1,0,552.66974)"><path
           d="m 617.445,195.203 c 0.309,-8.66 36.637,-22.578 57.973,-29.422 l 111.547,47.149 c -10.172,7.406 -22.629,18.804 -33.942,15.355 -9.429,2.426 -24.578,9.391 -32.855,5.559 L 618.066,195.961 c -3.902,-0.691 -9.23,-0.695 -14.55,2"
           style="fill:none;stroke:#000000;stroke-width:2.4000001;stroke-linecap:round;stroke-linejoin:round;stroke-miterlimit:4;stroke-dasharray:none;stroke-opacity:1"
           id="path24"
           inkscape:connector-curvature="0" /></g><g
         id="g26"
         transform="matrix(1,0,0,-1,0,552.66974)"><path
           d="m 370.824,396.871 c -10.195,4.129 -22.133,8.063 -39.144,11.43 -3.617,0.254 -9.524,1.031 -13.145,-1.141 -7.383,-3.972 -14.035,-8.801 -19.14,-15.43 -1.399,-3.722 -2.129,-7.613 -2,-11.714 -0.008,-2.532 1.195,-5.231 3.855,-8.145 5.859,-6.094 12.441,-11.508 23.145,-18.285 9.418,-5.961 25.23,-15.586 37.855,-21 25.926,-11.113 52.254,-18.641 80,-23.715 10.613,-1.937 29.582,-4.262 32.285,-2.285 2.117,1.977 1.867,5.602 -1.14,7.43"
           style="fill:none;stroke:#000000;stroke-width:2.4000001;stroke-linecap:round;stroke-linejoin:round;stroke-miterlimit:4;stroke-dasharray:none;stroke-opacity:1"
           id="path28"
           inkscape:connector-curvature="0" /></g><g
         id="g30"
         transform="matrix(1,0,0,-1,0,552.66974)"><path
           d="m 297.395,380.016 c 0.226,-3.633 2.316,-4.578 5,-3.43 9.621,6.644 13.96,10.305 19,17 3.863,5.137 2.437,11.637 -0.286,14"
           style="fill:none;stroke:#000000;stroke-width:2.4000001;stroke-linecap:butt;stroke-linejoin:miter;stroke-miterlimit:4;stroke-dasharray:none;stroke-opacity:1"
           id="path32"
           inkscape:connector-curvature="0" /></g><g
         id="g34"
         transform="matrix(1,0,0,-1,0,552.66974)"><path
           d="m 473.793,315.445 c 26.152,-12.675 46.355,-24.265 68.715,-36.25 34.238,-18.351 71.551,-41.734 107.074,-70.304"
           style="fill:none;stroke:#000000;stroke-width:2.4000001;stroke-linecap:butt;stroke-linejoin:miter;stroke-miterlimit:4;stroke-dasharray:none;stroke-opacity:1"
           id="path36"
           inkscape:connector-curvature="0" /></g><g
         id="g38"
         transform="matrix(1,0,0,-1,0,552.66974)"><path
           d="m 547.758,270.309 32.324,5.254 56.57,-43.641 -6.464,-12.121 z"
           style="fill:#ffffff;fill-opacity:1;fill-rule:nonzero;stroke:#000000;stroke-width:2.4000001;stroke-linecap:round;stroke-linejoin:round;stroke-miterlimit:4;stroke-dasharray:none;stroke-opacity:1"
           id="path40"
           inkscape:connector-curvature="0" /></g><g
         id="g42"
         transform="matrix(1,0,0,-1,0,552.66974)"><path
           d="m 14.398,457.793 c 5.227,1.66 10.797,7.254 13.332,12.523 2.817,5.848 4.465,17.356 1.418,21.618"
           style="fill:none;stroke:#000000;stroke-width:1.60000002;stroke-linecap:round;stroke-linejoin:round;stroke-miterlimit:4;stroke-dasharray:none;stroke-opacity:1"
           id="path44"
           inkscape:connector-curvature="0" /></g><g
         id="g46"
         transform="matrix(1,0,0,-1,0,552.66974)"><path
           d="m 75.008,393.344 c 16.183,10.496 22.508,22.918 25.051,29.094 2.468,6 10.726,36.343 5.254,50.91"
           style="fill:none;stroke:#000000;stroke-width:1.60000002;stroke-linecap:round;stroke-linejoin:round;stroke-miterlimit:4;stroke-dasharray:none;stroke-opacity:1"
           id="path48"
           inkscape:connector-curvature="0" /></g><g
         id="g50"
         transform="matrix(1,0,0,-1,0,552.66974)"><path
           d="m 103.293,433.547 c 41.203,-15.426 75.527,-38.379 107.48,-60.707 38.911,-27.188 76.747,-52.867 112.473,-76.867 44,-29.555 86.641,-53.582 120.789,-67.637 55.914,-23.02 144.817,-45.492 174.84,-45.731"
           style="fill:none;stroke:#000000;stroke-width:1.60000002;stroke-linecap:round;stroke-linejoin:round;stroke-miterlimit:4;stroke-dasharray:none;stroke-opacity:1"
           id="path52"
           inkscape:connector-curvature="0" /></g><g
         id="g54"
         transform="matrix(1,0,0,-1,0,552.66974)"><path
           d="m 474.645,217.125 c 15.242,6.73 20.222,26.344 21.621,33.664 1.218,6.371 1.011,36.629 -5.602,55.484"
           style="fill:none;stroke:#000000;stroke-width:1.60000002;stroke-linecap:round;stroke-linejoin:round;stroke-miterlimit:4;stroke-dasharray:none;stroke-opacity:1"
           id="path56"
           inkscape:connector-curvature="0" /></g><g
         id="g58"
         transform="matrix(1,0,0,-1,0,552.66974)"><path
           d="m 628.176,199.824 c -6.809,2.098 -24.289,3.047 -26.852,0.293 -4.422,-4.746 3.996,-10.719 17.129,-17.328"
           style="fill:none;stroke:#000000;stroke-width:1.60000002;stroke-linecap:round;stroke-linejoin:round;stroke-miterlimit:4;stroke-dasharray:none;stroke-opacity:1"
           id="path60"
           inkscape:connector-curvature="0" /></g><g
         id="g62"
         transform="matrix(1,0,0,-1,0,552.66974)"><path
           d="m 84.504,385.262 c 8.207,10.597 19.223,13.859 30.707,16.769 10.961,0.852 25.484,-3.222 41.82,-8.281 2.809,-2.355 0.887,-5.016 0.203,-6.871 -12.406,-19.34 -25.242,-33.18 -39.8,-41.215"
           style="fill:none;stroke:#000000;stroke-width:1.60000002;stroke-linecap:round;stroke-linejoin:round;stroke-miterlimit:4;stroke-dasharray:none;stroke-opacity:1"
           id="path64"
           inkscape:connector-curvature="0" /></g><g
         id="g66"
         transform="matrix(1,0,0,-1,0,552.66974)"><path
           d="m 122.594,339.379 c 4.746,1.824 9.808,6.363 14.234,10.527 14.516,13.668 19.793,24.176 29.094,35.965 2.387,3.067 5.594,0.399 7.605,-1.051 l 47.895,-31.347 c 4.308,-3.231 6.109,-8.285 7.793,-12.645 3.543,-19.687 4.742,-35.164 2.113,-49.82 -3.015,-16.84 -19.527,-21.348 -24.598,-19.891"
           style="fill:none;stroke:#000000;stroke-width:1.60000002;stroke-linecap:round;stroke-linejoin:round;stroke-miterlimit:4;stroke-dasharray:none;stroke-opacity:1"
           id="path68"
           inkscape:connector-curvature="0" /></g><g
         id="g70"
         transform="matrix(1,0,0,-1,0,552.66974)"><path
           d="m 215.535,266.73 c 6.914,-0.031 14.535,6.719 17.574,12 5.504,9.567 5.805,26.059 5.715,32.715 l -3.429,28.285 c -1.493,6.098 1.613,3.77 4.57,1.715 l 58,-41.144 c 5.41,-3.438 6.172,-7.789 7,-11.141 1.64,-8.508 3.008,-17.637 1,-29.144 -1.567,-9 -8.41,-15.516 -16.856,-17.715"
           style="fill:none;stroke:#000000;stroke-width:1.60000002;stroke-linecap:round;stroke-linejoin:round;stroke-miterlimit:4;stroke-dasharray:none;stroke-opacity:1"
           id="path72"
           inkscape:connector-curvature="0" /></g><g
         id="g74"
         transform="matrix(1,0,0,-1,0,552.66974)"><path
           d="m 302.293,371.324 c 11.121,6.364 16.484,11.176 22.02,16.567 3.867,4.363 4.761,7.515 5.05,10.91 0.278,3.238 -0.285,6.508 -1.515,9.492"
           style="fill:none;stroke:#000000;stroke-width:1.60000002;stroke-linecap:round;stroke-linejoin:round;stroke-miterlimit:4;stroke-dasharray:none;stroke-opacity:1"
           id="path76"
           inkscape:connector-curvature="0" /></g><g
         id="g78"
         transform="matrix(1,0,0,-1,0,552.66974)"><path
           d="m 772.535,404.871 c -22.535,4.774 -48.722,12.059 -72.57,22.574 -35.938,15.844 -71.36,34.157 -108,69.426 -12.203,11.75 -24.738,24.461 -29.715,40.574 -1.793,5.813 -0.207,13.727 6,14 5.43,0.239 17.156,-2.117 25.43,-4.859 11.914,-3.945 19.375,-7.297 31.965,-13.32 12.757,-6.106 32.718,-19.039 43.464,-26.106 26.067,-17.144 56.172,-42.695 72.286,-60.289 l 31.14,-34 c 1.469,-2.078 2.305,-4.41 0,-8 z"
           style="fill:none;stroke:#000000;stroke-width:2.4000001;stroke-linecap:round;stroke-linejoin:round;stroke-miterlimit:4;stroke-dasharray:none;stroke-opacity:1"
           id="path80"
           inkscape:connector-curvature="0" /></g><g
         id="g82"
         transform="matrix(1,0,0,-1,0,552.66974)"><path
           d="m 567.109,527.445 c 6.547,-1.91 9.325,3.008 11.426,6.285 1.891,6.696 2.137,11.833 0.289,16.286"
           style="fill:none;stroke:#000000;stroke-width:1.60000002;stroke-linecap:round;stroke-linejoin:round;stroke-miterlimit:4;stroke-dasharray:none;stroke-opacity:1"
           id="path84"
           inkscape:connector-curvature="0" /></g><g
         id="g86"
         transform="matrix(1,0,0,-1,0,552.66974)"><path
           d="m 764.824,407.16 c 3.586,1.434 2.801,6.871 2.684,10.32"
           style="fill:none;stroke:#000000;stroke-width:1.60000002;stroke-linecap:round;stroke-linejoin:round;stroke-miterlimit:4;stroke-dasharray:none;stroke-opacity:1"
           id="path88"
           inkscape:connector-curvature="0" /></g><g
         id="g90"
         transform="matrix(1,0,0,-1,0,552.66974)"><path
           d="m 470.391,311.734 c -1.024,3.02 1.789,3.157 3.011,3.977 l 223.211,112.605"
           style="fill:none;stroke:#000000;stroke-width:2.4000001;stroke-linecap:round;stroke-linejoin:round;stroke-miterlimit:4;stroke-dasharray:none;stroke-opacity:1"
           id="path92"
           inkscape:connector-curvature="0" /></g><g
         id="g94"
         transform="matrix(1,0,0,-1,0,552.66974)"><path
           d="m 476.238,318.594 -21.617,5.453 137.988,67.074"
           style="fill:none;stroke:#000000;stroke-width:1.60000002;stroke-linecap:round;stroke-linejoin:round;stroke-miterlimit:4;stroke-dasharray:none;stroke-opacity:1"
           id="path96"
           inkscape:connector-curvature="0" /></g><g
         id="g98"
         transform="matrix(1,0,0,-1,0,552.66974)"><path
           d="m 611.195,385.668 -24.562,8.336 91.629,43.074"
           style="fill:none;stroke:#000000;stroke-width:1.60000002;stroke-linecap:round;stroke-linejoin:round;stroke-miterlimit:4;stroke-dasharray:none;stroke-opacity:1"
           id="path100"
           inkscape:connector-curvature="0" /></g><g
         id="g102"
         transform="matrix(1,0,0,-1,0,552.66974)"><path
           d="m 438.652,344.891 c -52.543,20.527 -79.082,37.343 -76.007,47.644 l 242.539,92.211"
           style="fill:none;stroke:#000000;stroke-width:2.4000001;stroke-linecap:round;stroke-linejoin:round;stroke-miterlimit:4;stroke-dasharray:none;stroke-opacity:1"
           id="path104"
           inkscape:connector-curvature="0" /></g><g
         id="g106"
         transform="matrix(1,0,0,-1,0,552.66974)"><path
           d="m 207.68,129.254 c 2.769,-1.066 4.488,-6.66 0.57,-6.953 -17.437,-0.949 -34.219,0.48 -49.715,4 -16.547,3.762 -34.515,10.66 -46.855,20.429 -2.297,1.817 -3.555,7.157 2,9 3.062,1.016 6.847,0.485 10.429,0.43"
           style="fill:none;stroke:#000000;stroke-width:1.60000002;stroke-linecap:round;stroke-linejoin:round;stroke-miterlimit:4;stroke-dasharray:none;stroke-opacity:1"
           id="path108"
           inkscape:connector-curvature="0" /></g><g
         id="g110"
         transform="matrix(1,0,0,-1,0,552.66974)"><path
           d="m 127.395,160.586 c -26.356,6.156 -44.239,9.801 -67.286,9.43 -3.945,-0.207 -10.921,-0.469 -15.285,-1.43 -5.676,-1.246 -4.715,-7.375 -2.859,-9.715 2.676,-3.375 9.965,-8.496 17.57,-13.426 5.758,-3.73 11.055,-6.691 19.86,-10.859 20.535,-10.004 49.929,-18.613 64.285,-22 24.761,-5.773 44.351,-8.715 69.144,-10.285 17.18,-1.086 24.75,-0.774 32.285,-0.715 2.379,-0.094 5.762,0.098 8.141,0 1.504,0.336 2.184,1.894 0.145,3.285 -3.008,2.238 -5.188,3.797 -7.43,5.43 -15.289,11.144 -24.813,13.48 -36.856,19.715"
           style="fill:none;stroke:#000000;stroke-width:2.4000001;stroke-linecap:round;stroke-linejoin:round;stroke-miterlimit:4;stroke-dasharray:none;stroke-opacity:1"
           id="path112"
           inkscape:connector-curvature="0" /></g><g
         id="g114"
         transform="matrix(1,0,0,-1,0,552.66974)"><path
           d="m 51.25,151.301 c 1.918,1.023 4.172,4.574 4.629,8.285 0.461,3.719 -0.633,6.836 -1.875,9.574"
           style="fill:none;stroke:#000000;stroke-width:1.60000002;stroke-linecap:round;stroke-linejoin:round;stroke-miterlimit:4;stroke-dasharray:none;stroke-opacity:1"
           id="path116"
           inkscape:connector-curvature="0" /></g><g
         id="g118"
         transform="matrix(1,0,0,-1,0,552.66974)"><path
           d="m 243.457,101.16 c 1.09,0.578 2.371,2.578 2.633,4.676 0.258,2.094 -0.363,3.852 -1.07,5.394"
           style="fill:none;stroke:#000000;stroke-width:1.60000002;stroke-linecap:round;stroke-linejoin:round;stroke-miterlimit:4;stroke-dasharray:none;stroke-opacity:1"
           id="path120"
           inkscape:connector-curvature="0" /></g><g
         id="g122"
         transform="matrix(1,0,0,-1,0,552.66974)"><path
           d="m 118.824,152.586 c 3.34,-0.102 6.746,3.609 8.856,6.859 l 80.285,109.715"
           style="fill:none;stroke:#000000;stroke-width:2.4000001;stroke-linecap:round;stroke-linejoin:round;stroke-miterlimit:4;stroke-dasharray:none;stroke-opacity:1"
           id="path124"
           inkscape:connector-curvature="0" /></g><g
         id="g126"
         transform="matrix(1,0,0,-1,0,552.66974)"><path
           d="m 187.309,130.465 56.097,46.883 25.414,-2.782 m -19.129,2.926 70.7,56.789"
           style="fill:none;stroke:#000000;stroke-width:1.60000002;stroke-linecap:round;stroke-linejoin:round;stroke-miterlimit:4;stroke-dasharray:none;stroke-opacity:1"
           id="path128"
           inkscape:connector-curvature="0" /></g><g
         id="g130"
         transform="matrix(1,0,0,-1,0,552.66974)"><path
           d="m 123.465,153.496 c 2.098,-8.769 27.621,-15.945 37.613,-18.371 5.891,-1.43 27.856,-6.855 46.93,-5.41"
           style="fill:none;stroke:#000000;stroke-width:1.60000002;stroke-linecap:round;stroke-linejoin:round;stroke-miterlimit:4;stroke-dasharray:none;stroke-opacity:1"
           id="path132"
           inkscape:connector-curvature="0" /></g><g
         id="g134"
         transform="matrix(1,0,0,-1,0,552.66974)"><path
           d="m 206.039,126.219 c -1.258,0.769 0.363,2.402 2.774,4.019 l 136.167,100"
           style="fill:none;stroke:#000000;stroke-width:2.4000001;stroke-linecap:round;stroke-linejoin:round;stroke-miterlimit:4;stroke-dasharray:none;stroke-opacity:1"
           id="path136"
           inkscape:connector-curvature="0" /></g><g
         id="g138"
         transform="matrix(1,0,0,-1,0,552.66974)"><path
           d="m 144.457,140.387 99.398,114.23"
           style="fill:none;stroke:#000000;stroke-width:1.60000002;stroke-linecap:butt;stroke-linejoin:miter;stroke-miterlimit:4;stroke-dasharray:none;stroke-opacity:1"
           id="path140"
           inkscape:connector-curvature="0" /></g><g
         id="g142"
         transform="matrix(1,0,0,-1,0,552.66974)"><path
           d="m 215.945,184.66 -0.203,-5.664 c -17.605,3.414 -25.304,6.281 -34.39,10.246 -10.856,4.738 -17.161,9.145 -22.043,13.922 -3.118,3.051 -4.383,5.691 -4.489,8.121 -0.132,3.028 1.535,4.399 3.774,5.254 2.769,1.063 6.988,0.934 10.832,0.344 l -4.379,-5.801 c -0.984,-1.906 0.668,-4.621 3.066,-6.422 7.227,-5.547 16.641,-10.254 26.383,-13.496 7.559,-2.516 15.891,-4.711 21.449,-6.504 z"
           style="fill:#ffffff;fill-opacity:1;fill-rule:nonzero;stroke:#000000;stroke-width:1.60000002;stroke-linecap:round;stroke-linejoin:round;stroke-miterlimit:4;stroke-dasharray:none;stroke-opacity:1"
           id="path144"
           inkscape:connector-curvature="0" /></g><g
         id="g146"
         transform="matrix(1,0,0,-1,0,552.66974)"><path
           d="m 397.078,364.492 240.543,95.371"
           style="fill:none;stroke:#000000;stroke-width:1.60000002;stroke-linecap:butt;stroke-linejoin:miter;stroke-miterlimit:4;stroke-dasharray:none;stroke-opacity:1"
           id="path148"
           inkscape:connector-curvature="0" /></g><g
         id="g150"
         transform="matrix(1,0,0,-1,0,552.66974)"><path
           d="m 560.082,407.488 -1.008,-6.465 c -18.734,7.911 -26.609,12.805 -35.761,19.192 -10.942,7.633 -16.907,13.801 -21.211,20 -2.75,3.961 -3.887,7.738 -3.438,10.305 0.563,3.199 3.047,4.562 5.758,4.644 2.746,0.086 8.601,-1.277 12.527,-3.734 l -6.465,-2.426 c -1.57,-1.902 -0.121,-5.906 2.121,-8.383 6.723,-7.582 17.422,-16.23 27.477,-22.023 7.797,-4.493 14.25,-7.868 20,-11.11 z"
           style="fill:#ffffff;fill-opacity:1;fill-rule:nonzero;stroke:#000000;stroke-width:1.60000002;stroke-linecap:round;stroke-linejoin:round;stroke-miterlimit:4;stroke-dasharray:none;stroke-opacity:1"
           id="path152"
           inkscape:connector-curvature="0" /></g><g
         id="g154"
         transform="matrix(1,0,0,-1,0,552.66974)"><path
           d="m 636.652,181.012 98.641,42.734"
           style="fill:none;stroke:#000000;stroke-width:1.20000005;stroke-linecap:round;stroke-linejoin:round;stroke-miterlimit:4;stroke-dasharray:none;stroke-opacity:1"
           id="path156"
           inkscape:connector-curvature="0" /></g><g
         id="g158"
         transform="matrix(1,0,0,-1,0,552.66974)"><path
           d="m 659.684,171.719 96.168,44.039 -7.274,5.137 c 3.883,2.761 3.645,5.242 3.703,7.156"
           style="fill:none;stroke:#000000;stroke-width:1.60000002;stroke-linecap:round;stroke-linejoin:round;stroke-miterlimit:4;stroke-dasharray:none;stroke-opacity:1"
           id="path160"
           inkscape:connector-curvature="0" /></g><g
         id="g162"
         transform="matrix(1,0,0,-1,0,552.66974)"><path
           d="m 721.102,233.941 c 5.5,-6.953 18.625,-13.437 30.492,-17.492"
           style="fill:none;stroke:#000000;stroke-width:1.20000005;stroke-linecap:round;stroke-linejoin:round;stroke-miterlimit:4;stroke-dasharray:none;stroke-opacity:1"
           id="path164"
           inkscape:connector-curvature="0" /></g><g
         id="g166"
         transform="matrix(1,0,0,-1,0,552.66974)"><path
           d="m 754.164,228.051 c 2.941,-6.59 18.656,-11.281 31.02,-15.406"
           style="fill:none;stroke:#000000;stroke-width:1.20000005;stroke-linecap:round;stroke-linejoin:round;stroke-miterlimit:4;stroke-dasharray:none;stroke-opacity:1"
           id="path168"
           inkscape:connector-curvature="0" /></g><g
         id="g170"
         transform="matrix(1,0,0,-1,0,552.66974)"><path
           d="m 744.242,219.371 c 1.457,0.047 2.75,0.817 4.137,1.578"
           style="fill:none;stroke:#000000;stroke-width:1.20000005;stroke-linecap:round;stroke-linejoin:round;stroke-miterlimit:4;stroke-dasharray:none;stroke-opacity:1"
           id="path172"
           inkscape:connector-curvature="0" /></g><g
         id="g174"
         transform="matrix(1,0,0,-1,0,552.66974)"><path
           d="m 549.98,120.57 -25.05,-11.718 c -3.203,0.05 -4.41,1.589 -5.86,3.148 l -6.937,-2.812"
           style="fill:none;stroke:#000000;stroke-width:1.60000002;stroke-linecap:round;stroke-linejoin:round;stroke-miterlimit:4;stroke-dasharray:none;stroke-opacity:1"
           id="path176"
           inkscape:connector-curvature="0" /></g><g
         id="g178"
         transform="matrix(1,0,0,-1,0,552.66974)"><path
           d="m 511.191,115.352 30.961,19.097"
           style="fill:none;stroke:#000000;stroke-width:1.20000005;stroke-linecap:round;stroke-linejoin:round;stroke-miterlimit:4;stroke-dasharray:none;stroke-opacity:1"
           id="path180"
           inkscape:connector-curvature="0" /></g><g
         id="g182"
         transform="matrix(1,0,0,-1,0,552.66974)"><path
           d="m 501.492,123.434 c 2.91,-4.891 10.883,-8.875 17.223,-11.207"
           style="fill:none;stroke:#000000;stroke-width:1.20000005;stroke-linecap:round;stroke-linejoin:round;stroke-miterlimit:4;stroke-dasharray:none;stroke-opacity:1"
           id="path184"
           inkscape:connector-curvature="0" /></g><g
         id="g186"
         transform="matrix(1,0,0,-1,0,552.66974)"><path
           d="m 654.23,26.66 -26.667,13.738 -4.766,20.844 -13.215,6.824 -1.988,7.7 12.894,-6.477 -14.949,64.445 -13.273,6.719 -1.7,7.785 13.356,-7.23 -2.422,10.101 6.465,1.618 21.82,-8.891"
           style="fill:none;stroke:#000000;stroke-width:1.60000002;stroke-linecap:round;stroke-linejoin:round;stroke-miterlimit:4;stroke-dasharray:none;stroke-opacity:1"
           id="path188"
           inkscape:connector-curvature="0" /></g><g
         id="g190"
         transform="matrix(1,0,0,-1,0,552.66974)"><path
           d="m 631.938,146.582 c -0.637,13.539 3.902,24.481 11.64,31.164"
           style="fill:none;stroke:#000000;stroke-width:1.20000005;stroke-linecap:round;stroke-linejoin:round;stroke-miterlimit:4;stroke-dasharray:none;stroke-opacity:1"
           id="path192"
           inkscape:connector-curvature="0" /></g><g
         id="g194"
         transform="matrix(1,0,0,-1,0,552.66974)"><path
           d="m 608.797,153.438 c -0.512,14.843 7.144,29.058 14.637,33.308"
           style="fill:none;stroke:#000000;stroke-width:1.20000005;stroke-linecap:round;stroke-linejoin:round;stroke-miterlimit:4;stroke-dasharray:none;stroke-opacity:1"
           id="path196"
           inkscape:connector-curvature="0" /></g><g
         id="g198"
         transform="matrix(1,0,0,-1,0,552.66974)"><path
           d="m 570.797,189.438 c -1.883,-3.247 -5.52,-6.922 -10.055,-10.172 l 50.66,-131.743 18.032,-8.203"
           style="fill:none;stroke:#000000;stroke-width:1.20000005;stroke-linecap:round;stroke-linejoin:round;stroke-miterlimit:4;stroke-dasharray:none;stroke-opacity:1"
           id="path200"
           inkscape:connector-curvature="0" /></g></g></g></svg>