<?xml version="1.0" encoding="UTF-8"?>
<svg xmlns="http://www.w3.org/2000/svg" xmlns:xlink="http://www.w3.org/1999/xlink" width="1052.724854pt" height="545.506226pt" viewBox="0 0 1052.724854 545.506226" version="1.1">
<defs>
<clipPath id="clip1">
  <path d="M 0 518 L 59 518 L 59 545.507813 L 0 545.507813 Z M 0 518 "/>
</clipPath>
<clipPath id="clip2">
  <path d="M 798 303 L 1052.726563 303 L 1052.726563 378 L 798 378 Z M 798 303 "/>
</clipPath>
</defs>
<g id="surface1">
<path style=" stroke:none;fill-rule:nonzero;fill:rgb(78.822327%,86.273193%,92.155457%);fill-opacity:1;" d="M 800.214844 341.996094 C 827.863281 333.511719 853.160156 325.78125 885.359375 316.855469 C 903.992188 311.691406 921.929688 307.988281 940.214844 305.425781 L 1044.789063 352.285156 C 1050.226563 355.476563 1051.097656 357.417969 1050.632813 359.777344 L 1012.789063 374.285156 C 1008.734375 375.390625 1003.53125 375.339844 1000.214844 374.570313 Z M 800.214844 341.996094 "/>
<path style=" stroke:none;fill-rule:nonzero;fill:rgb(38.430786%,33.724976%,14.509583%);fill-opacity:1;" d="M 851.929688 297.140625 C 847.003906 282.613281 841.136719 266.230469 816.34375 257.890625 C 831.40625 257.570313 838.332031 256.1875 860.214844 255.996094 C 870.691406 259.777344 877.261719 264.511719 882.789063 270.285156 C 890.003906 277.820313 892.25 286.285156 893.644531 294.285156 "/>
<path style=" stroke:none;fill-rule:nonzero;fill:rgb(73.724365%,65.097046%,29.803467%);fill-opacity:1;" d="M 892.914063 19.042969 L 875.644531 24.285156 L 802.5 209.425781 L 843.199219 196.6875 "/>
<path style=" stroke:none;fill-rule:nonzero;fill:rgb(73.724365%,65.097046%,29.803467%);fill-opacity:1;" d="M 800.214844 341.996094 L 748.214844 353.996094 L 653.929688 368.855469 L 725.074219 343.710938 L 900.789063 310.855469 "/>
<path style=" stroke:none;fill-rule:nonzero;fill:rgb(81.567383%,75.68512%,50.979614%);fill-opacity:1;" d="M 843.359375 350.285156 L 810.789063 371.140625 L 748.214844 353.996094 L 800.214844 341.996094 "/>
<path style=" stroke:none;fill-rule:nonzero;fill:rgb(51.763916%,74.116516%,81.959534%);fill-opacity:1;" d="M 683.074219 428.855469 L 708.214844 468.285156 L 760.789063 432.855469 "/>
<path style=" stroke:none;fill-rule:nonzero;fill:rgb(51.763916%,74.116516%,81.959534%);fill-opacity:1;" d="M 617.929688 440.285156 L 621.359375 450.570313 L 657.929688 428.855469 "/>
<path style=" stroke:none;fill-rule:nonzero;fill:rgb(78.822327%,86.273193%,92.155457%);fill-opacity:1;" d="M 311.230469 338.761719 L 282.640625 298.777344 C 286.144531 295.78125 290.253906 292.9375 296.78125 290.699219 L 338.398438 278.171875 C 343.652344 276.835938 348.90625 275.335938 354.15625 276.960938 L 557.765625 312.96875 C 504.167969 339.941406 425.128906 350.554688 311.230469 338.761719 Z M 311.230469 338.761719 "/>
<path style=" stroke:none;fill-rule:nonzero;fill:rgb(78.822327%,86.273193%,92.155457%);fill-opacity:1;" d="M 899.074219 438.570313 C 903.5 438.847656 907.40625 438.09375 911.074219 436.855469 L 971.644531 418.570313 C 972.042969 417.285156 971.949219 416.046875 968.214844 415.140625 L 739.644531 352.285156 C 710.332031 355.941406 680.855469 359.28125 654.5 368.855469 C 587.929688 393.183594 572.574219 404.707031 533.164063 422.246094 Z M 899.074219 438.570313 "/>
<path style=" stroke:none;fill-rule:nonzero;fill:rgb(81.567383%,75.68512%,50.979614%);fill-opacity:1;" d="M 253.929688 487.140625 C 264.769531 500.886719 275.472656 511.164063 294.5 518.570313 C 302.800781 521.800781 310.832031 524.785156 326.5 522.570313 C 334.371094 521.457031 349.480469 516.363281 353.644531 514.855469 C 387.929688 502.472656 373.480469 506.605469 433.359375 488.855469 C 433.359375 488.855469 512.332031 470.59375 551.359375 459.710938 C 584.699219 450.414063 656.214844 427.710938 656.214844 427.710938 C 587.089844 425.710938 603.34375 421.03125 538.035156 420.621094 C 470.441406 428.777344 257.289063 469.207031 253.929688 487.140625 Z M 253.929688 487.140625 "/>
<path style=" stroke:none;fill-rule:nonzero;fill:rgb(96.076965%,89.4104%,61.175537%);fill-opacity:1;" d="M 794.710938 257.871094 C 794.710938 257.871094 805.019531 250.699219 818.019531 258.738281 C 837.921875 267.792969 844.1875 278.515625 853.761719 298.035156 L 910.71875 292.753906 L 929.660156 305.425781 C 929.660156 305.425781 777.097656 333.578125 722.886719 341.929688 C 671.007813 361.40625 557.527344 402.125 536.113281 421.75 L 551.675781 423.167969 C 476.054688 437.835938 389.507813 455.828125 307.644531 469.996094 C 248.320313 488.445313 221.097656 497.082031 171.921875 510.835938 C 136.628906 520.707031 97.765625 525.25 55.644531 527.710938 C 50.101563 526.246094 50.957031 522.582031 52.285156 518.738281 C 72.339844 492.585938 100.378906 473.273438 131.074219 454.570313 C 150.457031 442.9375 189.21875 422.472656 189.21875 422.472656 C 204.015625 401.011719 221.300781 376.742188 247.242188 361.59375 C 269.347656 348.683594 287.730469 340.132813 316.789063 337.996094 C 357.726563 334.988281 408.789063 339.140625 408.789063 339.140625 C 439.847656 338.007813 468.320313 334.933594 495.074219 330.570313 C 511.046875 328.375 561.050781 311.035156 593.941406 301.289063 L 706.5 232.285156 L 831.644531 19.710938 L 893.359375 1.996094 L 896.789063 2.570313 L 897.359375 17.425781 L 875.644531 24.285156 L 802.5 209.425781 L 847.644531 196.285156 L 850.5 219.140625 L 844.789063 221.996094 L 842.5 240.285156 L 799.074219 254.570313 L 786.691406 265.445313 C 751.382813 272.992188 663.304688 297.628906 581.488281 310.050781 L 593.917969 301.148438 "/>
<path style=" stroke:none;fill-rule:nonzero;fill:rgb(84.70459%,97.253418%,97.647095%);fill-opacity:1;" d="M 328.296875 338.375 C 333.078125 342.820313 336.328125 352.808594 336.984375 359.386719 C 337.429688 363.832031 337.410156 370.484375 337.488281 382.117188 C 337.546875 390.617188 336.046875 392.152344 347.914063 383.339844 C 359.40625 375.25 384.261719 353.960938 387.089844 351.507813 C 384.605469 345.195313 380.136719 339.984375 374.964844 337.164063 "/>
<path style=" stroke:none;fill-rule:nonzero;fill:rgb(84.70459%,97.253418%,97.647095%);fill-opacity:1;" d="M 188.492188 423.632813 C 188.25 430.816406 206.222656 433.640625 216.171875 431.3125 C 243.847656 424.824219 279.28125 413.605469 292.132813 408.683594 C 306.347656 403.242188 326.480469 395.550781 326.480469 395.550781 C 329.542969 394.125 330.261719 391.175781 330.117188 388.175781 C 330.203125 377.113281 329.921875 368.394531 329.105469 357.367188 C 328.425781 348.203125 321.246094 340.730469 316.984375 338.375 C 281.789063 341.511719 257.121094 353.164063 237.09375 368.433594 C 217.109375 383.675781 202.832031 403.738281 188.492188 423.632813 Z M 188.492188 423.632813 "/>
<path style="fill-rule:nonzero;fill:rgb(71.37146%,71.37146%,71.37146%);fill-opacity:1;stroke-width:4;stroke-linecap:round;stroke-linejoin:round;stroke:rgb(0%,0%,0%);stroke-opacity:1;stroke-miterlimit:4;" d="M 260.515625 486.441406 C 272.820313 498.894531 284.601563 507.917969 304.335938 513.15625 C 312.945313 515.441406 319.828125 515.800781 335.15625 511.851563 C 342.851563 509.867188 348.53125 500.707031 346.9375 496.007813 C 340.746094 477.757813 311.589844 481.558594 288.707031 476.644531 "/>
<path style=" stroke:none;fill-rule:nonzero;fill:rgb(98.822021%,98.822021%,98.822021%);fill-opacity:1;" d="M 51.515625 520.003906 L 2.828125 539.597656 C 1.484375 540.609375 1.460938 544.546875 5.25 543.234375 L 55.152344 527.476563 C 57.453125 524.742188 55.785156 519.980469 51.515625 520.003906 Z M 51.515625 520.003906 "/>
<g clip-path="url(#clip1)" clip-rule="nonzero">
<path style="fill:none;stroke-width:4;stroke-linecap:round;stroke-linejoin:round;stroke:rgb(0%,0%,0%);stroke-opacity:1;stroke-miterlimit:4;" d="M 51.515625 520.003906 L 2.828125 539.597656 C 1.484375 540.609375 1.460938 544.546875 5.25 543.234375 L 55.152344 527.476563 C 57.453125 524.742188 55.785156 519.980469 51.515625 520.003906 Z M 51.515625 520.003906 "/>
</g>
<path style=" stroke:none;fill-rule:nonzero;fill:rgb(73.724365%,65.097046%,29.803467%);fill-opacity:1;" d="M 173.359375 510.285156 C 177.324219 507.234375 179.226563 500.542969 179.328125 493.316406 C 179.429688 486.089844 179.539063 491.476563 179.539063 491.476563 C 243.25 480.390625 300.796875 466.382813 315.296875 464.152344 C 344.441406 459.667969 478.773438 433.023438 535.984375 421.695313 L 545.257813 425.207031 C 499.847656 432.4375 360.171875 459.820313 307.800781 469.625 C 251.019531 487.621094 214.8125 496.730469 173.359375 510.285156 Z M 173.359375 510.285156 "/>
<path style="fill:none;stroke-width:2.4;stroke-linecap:round;stroke-linejoin:round;stroke:rgb(0%,0%,0%);stroke-opacity:1;stroke-miterlimit:4;" d="M 131.074219 453.996094 C 147.390625 453.992188 166.75 460.6875 174.5 473.140625 C 180.960938 483.515625 181.289063 504.183594 173.359375 510.285156 "/>
<path style="fill:none;stroke-width:2.4;stroke-linecap:round;stroke-linejoin:round;stroke:rgb(0%,0%,0%);stroke-opacity:1;stroke-miterlimit:4;" d="M 179.539063 491.476563 C 243.25 480.390625 300.796875 466.382813 315.296875 464.152344 C 344.441406 459.667969 478.773438 433.023438 535.984375 421.695313 "/>
<path style="fill:none;stroke-width:3.2;stroke-linecap:round;stroke-linejoin:round;stroke:rgb(0%,0%,0%);stroke-opacity:1;stroke-miterlimit:4;" d="M 188.492188 423.632813 C 188.25 430.816406 206.222656 433.640625 216.171875 431.3125 C 243.847656 424.824219 279.28125 413.605469 292.132813 408.683594 C 306.347656 403.242188 326.480469 395.550781 326.480469 395.550781 C 329.542969 394.125 330.261719 391.175781 330.117188 388.175781 C 330.203125 377.113281 329.921875 368.394531 329.105469 357.367188 C 328.425781 348.203125 321.246094 340.730469 316.984375 338.375 "/>
<path style="fill:none;stroke-width:3.2;stroke-linecap:round;stroke-linejoin:round;stroke:rgb(0%,0%,0%);stroke-opacity:1;stroke-miterlimit:4;" d="M 328.296875 338.375 C 333.078125 342.820313 336.328125 352.808594 336.984375 359.386719 C 337.429688 363.832031 337.410156 370.484375 337.488281 382.117188 C 337.546875 390.617188 336.046875 392.152344 347.914063 383.339844 C 359.40625 375.25 384.261719 353.960938 387.089844 351.507813 C 384.605469 345.195313 380.136719 339.984375 374.964844 337.164063 "/>
<path style="fill:none;stroke-width:4;stroke-linecap:round;stroke-linejoin:round;stroke:rgb(0%,0%,0%);stroke-opacity:1;stroke-miterlimit:4;" d="M 311.230469 338.761719 L 282.640625 298.777344 C 286.144531 295.78125 290.253906 292.9375 296.78125 290.699219 L 338.398438 278.171875 C 343.652344 276.835938 348.90625 275.335938 354.15625 276.960938 L 557.765625 312.96875 "/>
<path style="fill:none;stroke-width:1.6;stroke-linecap:round;stroke-linejoin:round;stroke:rgb(0%,0%,0%);stroke-opacity:1;stroke-miterlimit:4;" d="M 297.359375 291.710938 L 349.359375 335.425781 "/>
<path style="fill:none;stroke-width:1.6;stroke-linecap:round;stroke-linejoin:round;stroke:rgb(0%,0%,0%);stroke-opacity:1;stroke-miterlimit:4;" d="M 340.214844 278.855469 L 522.5 322.855469 "/>
<path style="fill:none;stroke-width:4;stroke-linecap:round;stroke-linejoin:round;stroke:rgb(0%,0%,0%);stroke-opacity:1;stroke-miterlimit:4;" d="M 899.074219 438.570313 C 903.5 438.847656 907.40625 438.09375 911.074219 436.855469 L 971.644531 418.570313 C 972.042969 417.285156 971.949219 416.046875 968.214844 415.140625 L 739.644531 352.285156 C 710.332031 355.941406 680.855469 359.28125 654.5 368.855469 C 587.929688 393.183594 572.574219 404.707031 533.164063 422.246094 Z M 899.074219 438.570313 "/>
<path style="fill:none;stroke-width:1.6;stroke-linecap:round;stroke-linejoin:round;stroke:rgb(0%,0%,0%);stroke-opacity:1;stroke-miterlimit:4;" d="M 903.359375 437.285156 C 903.359375 437.285156 911.09375 430.605469 934.929688 423.710938 C 952.78125 418.550781 968.789063 416.570313 968.789063 416.570313 "/>
<path style="fill:none;stroke-width:1.6;stroke-linecap:round;stroke-linejoin:round;stroke:rgb(0%,0%,0%);stroke-opacity:1;stroke-miterlimit:4;" d="M 956.371094 418.695313 L 694.082031 360.410156 "/>
<path style="fill:none;stroke-width:1.6;stroke-linecap:round;stroke-linejoin:round;stroke:rgb(0%,0%,0%);stroke-opacity:1;stroke-miterlimit:4;" d="M 913.777344 431.265625 L 565.796875 407.839844 "/>
<path style="fill:none;stroke-width:4;stroke-linecap:round;stroke-linejoin:round;stroke:rgb(0%,0%,0%);stroke-opacity:1;stroke-miterlimit:4;" d="M 253.929688 487.140625 C 264.769531 500.886719 275.472656 511.164063 294.5 518.570313 C 302.800781 521.800781 310.832031 524.785156 326.5 522.570313 C 334.371094 521.457031 349.480469 516.363281 353.644531 514.855469 C 387.929688 502.472656 373.480469 506.605469 433.359375 488.855469 C 433.359375 488.855469 512.332031 470.59375 551.359375 459.710938 C 584.699219 450.414063 656.214844 427.710938 656.214844 427.710938 "/>
<g clip-path="url(#clip2)" clip-rule="nonzero">
<path style="fill:none;stroke-width:4;stroke-linecap:round;stroke-linejoin:round;stroke:rgb(0%,0%,0%);stroke-opacity:1;stroke-miterlimit:4;" d="M 800.214844 341.996094 C 827.863281 333.511719 853.160156 325.78125 885.359375 316.855469 C 903.992188 311.691406 921.929688 307.988281 940.214844 305.425781 L 1044.789063 352.285156 C 1050.226563 355.476563 1051.097656 357.417969 1050.632813 359.777344 L 1012.789063 374.285156 C 1008.734375 375.390625 1003.53125 375.339844 1000.214844 374.570313 Z M 800.214844 341.996094 "/>
</g>
<path style="fill:none;stroke-width:4;stroke-linecap:round;stroke-linejoin:round;stroke:rgb(0%,0%,0%);stroke-opacity:1;stroke-miterlimit:4;" d="M 797.644531 256.570313 C 820.496094 258.378906 838.332031 256.1875 860.214844 255.996094 C 870.691406 259.777344 877.261719 264.511719 882.789063 270.285156 C 890.003906 277.820313 892.25 286.285156 893.644531 294.285156 "/>
<path style="fill:none;stroke-width:4;stroke-linecap:round;stroke-linejoin:round;stroke:rgb(0%,0%,0%);stroke-opacity:1;stroke-miterlimit:4;" d="M 653.929688 368.855469 L 725.074219 343.710938 L 931.074219 305.710938 L 910.214844 292.855469 L 839.929688 299.140625 "/>
<path style="fill:none;stroke-width:2.4;stroke-linecap:round;stroke-linejoin:round;stroke:rgb(0%,0%,0%);stroke-opacity:1;stroke-miterlimit:4;" d="M 815.644531 257.996094 C 841.136719 266.230469 847.003906 282.613281 851.929688 297.140625 "/>
<path style="fill:none;stroke-width:2.4;stroke-linecap:round;stroke-linejoin:round;stroke:rgb(0%,0%,0%);stroke-opacity:1;stroke-miterlimit:4;" d="M 748.214844 353.996094 L 800.214844 341.996094 "/>
<path style="fill:none;stroke-width:4;stroke-linecap:round;stroke-linejoin:round;stroke:rgb(0%,0%,0%);stroke-opacity:1;stroke-miterlimit:4;" d="M 810.789063 371.140625 L 843.359375 350.285156 "/>
<path style="fill:none;stroke-width:4;stroke-linecap:round;stroke-linejoin:round;stroke:rgb(0%,0%,0%);stroke-opacity:1;stroke-miterlimit:4;" d="M 894.792969 18.359375 L 843.070313 196.148438 "/>
<path style="fill:none;stroke-width:1.6;stroke-linecap:butt;stroke-linejoin:miter;stroke:rgb(0%,0%,0%);stroke-opacity:1;stroke-miterlimit:4;" d="M 846.789063 220.855469 C 773.957031 248.015625 767.917969 247.71875 740.214844 255.425781 "/>
<path style="fill:none;stroke-width:4;stroke-linecap:round;stroke-linejoin:round;stroke:rgb(0%,0%,0%);stroke-opacity:1;stroke-miterlimit:4;" d="M 617.929688 440.285156 L 621.359375 450.570313 L 657.929688 428.855469 "/>
<path style="fill:none;stroke-width:4;stroke-linecap:round;stroke-linejoin:round;stroke:rgb(0%,0%,0%);stroke-opacity:1;stroke-miterlimit:4;" d="M 683.074219 428.855469 L 708.214844 468.285156 L 760.789063 432.855469 "/>
<path style="fill:none;stroke-width:4;stroke-linecap:round;stroke-linejoin:round;stroke:rgb(0%,0%,0%);stroke-opacity:1;stroke-miterlimit:4;" d="M 551.675781 423.167969 C 476.054688 437.835938 389.507813 455.828125 307.644531 469.996094 C 248.320313 488.445313 221.097656 497.082031 171.921875 510.835938 C 136.628906 520.707031 97.765625 525.25 55.644531 527.710938 C 50.101563 526.246094 50.957031 522.582031 52.285156 518.738281 C 72.339844 492.585938 100.378906 473.273438 131.074219 454.570313 C 150.457031 442.9375 189.21875 422.472656 189.21875 422.472656 C 204.015625 401.011719 221.300781 376.742188 247.242188 361.59375 C 269.347656 348.683594 287.730469 340.132813 316.789063 337.996094 C 357.726563 334.988281 408.789063 339.140625 408.789063 339.140625 C 439.847656 338.007813 468.320313 334.933594 495.074219 330.570313 C 511.046875 328.375 561.050781 311.035156 593.941406 301.289063 L 706.5 232.285156 L 831.644531 19.710938 L 893.359375 1.996094 L 896.789063 2.570313 L 897.359375 17.425781 L 875.644531 24.285156 L 802.5 209.425781 L 847.644531 196.285156 L 850.5 219.140625 L 844.789063 221.996094 L 842.5 240.285156 L 799.074219 254.570313 L 786.691406 265.445313 C 751.382813 272.992188 663.304688 297.628906 581.488281 310.050781 L 593.917969 301.148438 "/>
<path style="fill:none;stroke-width:0.8;stroke-linecap:butt;stroke-linejoin:miter;stroke:rgb(0%,0%,0%);stroke-opacity:1;stroke-miterlimit:4;" d="M 828.789063 301.425781 C 768.214844 307.710938 639.644531 341.425781 505.929688 392.285156 C 365.222656 423.160156 299.574219 432.703125 173.359375 470.570313 "/>
</g>
</svg>
