<?xml version="1.0" encoding="UTF-8" standalone="no"?>
<!-- Generator: Adobe Illustrator 14.0.0, SVG Export Plug-In . SVG Version: 6.00 Build 43363)  -->

<svg
   xmlns:dc="http://purl.org/dc/elements/1.1/"
   xmlns:cc="http://creativecommons.org/ns#"
   xmlns:rdf="http://www.w3.org/1999/02/22-rdf-syntax-ns#"
   xmlns:svg="http://www.w3.org/2000/svg"
   xmlns="http://www.w3.org/2000/svg"
   xmlns:sodipodi="http://sodipodi.sourceforge.net/DTD/sodipodi-0.dtd"
   xmlns:inkscape="http://www.inkscape.org/namespaces/inkscape"
   version="1.0"
   id="Layer_1"
   x="0px"
   y="0px"
   width="293.5769"
   height="244.27565"
   viewBox="0 0 293.5769 244.27564"
   enable-background="new 0 0 841.89 595.28"
   xml:space="preserve"
   sodipodi:version="0.32"
   inkscape:version="0.92.4 (5da689c313, 2019-01-14)"
   sodipodi:docname="Learjet_24_topview.svg"
   inkscape:output_extension="org.inkscape.output.svg.inkscape"><metadata
   id="metadata417"><rdf:RDF><cc:Work
       rdf:about=""><dc:format>image/svg+xml</dc:format><dc:type
         rdf:resource="http://purl.org/dc/dcmitype/StillImage" /><dc:title></dc:title></cc:Work></rdf:RDF></metadata><defs
   id="defs415"><inkscape:perspective
   sodipodi:type="inkscape:persp3d"
   inkscape:vp_x="0 : 297.64001 : 1"
   inkscape:vp_y="0 : 1000 : 0"
   inkscape:vp_z="841.89001 : 297.64001 : 1"
   inkscape:persp3d-origin="420.94501 : 198.42668 : 1"
   id="perspective419" />
	

		
		
		
		
		
		
		
		
		
		
		
		
		
		
		
		
		
		
		
		
		
		
		
		
		
	
			
			
			
			
			
			
			
			
			
			
			
			
			
			
			
			
			
			
			
			
			
			
			
			
			
			
			
			
			
			
			
			
			
			
			
			
			
			
			
			
			
			
			
			
			
			
			
			
			
			
			
			
			
			
			
			
			
			
			
			
			
			
			
			
			
			
			
			
			
			
			
			
			
			
			
			
			
			
			
			
			
			
			
			
			
			
			
			
			
			
			
			
			
			
			
			
			
			
			
			
			
			
			
			
			
			
			
			
			
			
			
			
			
			
			
			
			
			
			
			
			
			
			
			
			
			
			
			
			
			
			
			
			
			
			
			
			
			
			
			
			
			
			
			
			
			
			
			
			
			
			
			
			
			
			
			
			
			
			
			
			
			
			
			
			
			
			
				
			
			
			
			
			
			
			
			
			
			
		</defs><sodipodi:namedview
   pagecolor="#ffffff"
   bordercolor="#666666"
   borderopacity="1"
   objecttolerance="10"
   gridtolerance="10"
   guidetolerance="10"
   inkscape:pageopacity="0"
   inkscape:pageshadow="2"
   inkscape:window-width="3440"
   inkscape:window-height="1346"
   id="namedview413"
   showgrid="false"
   inkscape:zoom="4.4744125"
   inkscape:cx="146.70365"
   inkscape:cy="122.13784"
   inkscape:window-x="-11"
   inkscape:window-y="-11"
   inkscape:current-layer="Layer_1"
   inkscape:window-maximized="1" />
<path
   style="fill:none;stroke:#000000;stroke-width:2.29999995;stroke-linecap:round"
   id="path397"
   d="m 288.20105,126.27593 c 5.57763,-2.29953 5.691,-5.13931 0,-8.21331"
   clip-rule="evenodd"
   sodipodi:nodetypes="cc" />
<path
   clip-rule="evenodd"
   d="m 247.38605,107.04203 c 6.09081,3.29637 10.37261,6.60741 10.2463,14.23659 l -18.24565,0 c -0.1695,-4.42176 -5.26321,-6.01375 -9.02465,-7.49759 -1.231,-0.519 -1.258,-5.375 -1.156,-8.017 l 18.18,1.278 z"
   id="path7"
   style="fill:#c1cee0;fill-rule:evenodd;stroke:#000000;stroke-width:1;stroke-opacity:1"
   sodipodi:nodetypes="cccccc" /><path
   style="fill:none;stroke:#000000;stroke-width:2.29999995;stroke-linecap:round"
   id="path329"
   d="m 157.17205,19.60662 c 9.478,37.018 7.79,31.138 22.732,85.51"
   clip-rule="evenodd" /><path
   style="fill:none;stroke:#000000;stroke-width:2.29999995;stroke-linecap:round"
   id="path331"
   d="m 131.57805,106.73562 c 44.075,-2.454 107.575,-2.146 128.483,2.354"
   clip-rule="evenodd" /><path
   style="fill:none;stroke:#000000;stroke-width:2.28399992;stroke-linecap:round"
   id="path333"
   d="M 10.13605,125.50662"
   clip-rule="evenodd" /><path
   style="fill:none;stroke:#000000;stroke-width:2.11450005;stroke-linecap:round"
   id="path335"
   d="m 43.04205,114.38262 c 15.24,-2.502 30.912,-4.286 46.495,-5.631"
   clip-rule="evenodd" /><path
   style="fill:none;stroke:#000000;stroke-width:2.14610004;stroke-linecap:round"
   id="path337"
   d="m 89.53705,108.75262 c 0,-2.631 0,-4.506 0,-7.373"
   clip-rule="evenodd" /><path
   style="fill:none;stroke:#000000;stroke-width:2.30019999;stroke-linecap:round"
   id="path339"
   d="m 89.53705,101.37962 c -2.665,-0.633 -6.979,-5.866 -1.402,-7.116 1.814,-0.407 3.752,-0.677 5.848,-1.063"
   clip-rule="evenodd" /><path
   style="fill:none;stroke:#000000;stroke-width:2.29999995;stroke-linecap:round"
   id="path341"
   d="m 93.98205,93.19962 c 8.708,-1.341 22.654,-4.796 38.04,-1.442"
   clip-rule="evenodd" /><path
   style="fill:none;stroke:#000000;stroke-width:2.29999995;stroke-linecap:round"
   id="path343"
   d="m 120.19805,89.65262 c 0.005,-16.938 -0.05,-21.469 -0.055,-38.855"
   clip-rule="evenodd" /><path
   style="fill:none;stroke:#000000;stroke-width:2.29999995;stroke-linecap:round"
   id="path345"
   d="m 120.14305,50.79762 c -0.052,-10.459 -0.012,-24.015 0,-33.393"
   clip-rule="evenodd" /><path
   style="fill:none;stroke:#000000;stroke-width:2.29999995;stroke-linecap:round;stroke-linejoin:round"
   id="path347"
   d="m 115.41605,10.44962 c -3.442,-2.4999996 -10.86126,-10.07468164 -18.513,-9.2349996 1.05278,4.913856 3.48464,12.9916996 3.48464,12.9916996"
   clip-rule="evenodd"
   sodipodi:nodetypes="ccc" /><path
   style="fill:none;stroke:#000000;stroke-width:2.29999995;stroke-linecap:round"
   id="path351"
   d="m 157.17205,19.60662 c 11.106,0 25.794,0.201 34.437,-2.805"
   clip-rule="evenodd" /><path
   style="fill:none;stroke:#000000;stroke-width:1;stroke-linecap:round"
   id="path353"
   d="m 191.60805,16.80162 c -0.18,-2.473 -0.133,-4.909 0.193,-7.3519996"
   clip-rule="evenodd" /><path
   id="path355"
   style="fill:none;stroke:#000000;stroke-width:2.29999995;stroke-linecap:round"
   d="m 157.17205,19.60662 c -9.4,0.003 -46.94989,-3.90247 -56.54444,-5.34724 17.83444,-4.8097596 39.10044,-7.0357596 48.77544,-7.2357596 6.542,-0.135 28.617,-0.901 42.398,2.426"
   sodipodi:nodetypes="ccsc" /><path
   style="fill:none;stroke:#000000;stroke-width:2.29999995;stroke-linecap:round"
   id="path357"
   d="m 191.60805,16.80162 c 10.346,-0.147 9.283,-7.3279996 0.193,-7.3519996"
   clip-rule="evenodd" /><path
   style="fill:none;stroke:#000000;stroke-width:1;stroke-linecap:round"
   id="path359"
   d="m 115.70705,16.09162 c 0.623,-1.868 0.47512,-3.69618 -0.291,-5.643"
   clip-rule="evenodd"
   sodipodi:nodetypes="cc" /><path
   style="fill:none;stroke:#000000;stroke-width:2.40860009;stroke-linecap:round"
   id="path361"
   d="M 120.14305,17.40462"
   clip-rule="evenodd" /><path
   style="fill:none;stroke:#000000;stroke-width:1;stroke-linecap:round"
   id="path363"
   d="m 120.14305,50.79762 c 1.714,0 9.635,0 10.762,0 -1.135,-19.826 -1.218,-20.711 -1.721,-33.287"
   clip-rule="evenodd" /><path
   style="fill:none;stroke:#000000;stroke-width:1;stroke-linecap:round"
   id="path365"
   d="m 127.58905,50.79762 c 0.55,4.927 1.107,9.883 1.655,14.772"
   clip-rule="evenodd" /><path
   style="fill:none;stroke:#000000;stroke-width:1.1027;stroke-linecap:round"
   id="path367"
   d="m 131.13505,91.57962 c 0.23,0.035 0.574,0.099 0.887,0.177"
   clip-rule="evenodd" /><path
   style="fill:none;stroke:#000000;stroke-width:1;stroke-linecap:round"
   id="path369"
   d="m 135.91705,91.57962 c -0.749,-13.005 -1.625,-26.01 -1.625,-26.01 0,0 -2.554,0 -5.048,0"
   clip-rule="evenodd" /><path
   style="fill:none;stroke:#000000;stroke-width:2.09809995;stroke-linecap:round"
   id="path371"
   d="m 11.08405,68.53862 c -2.847,0 -5.931,-0.11 -10.035,-0.076 2.481,16.357 6.549,32.51 9.368,48.985"
   clip-rule="evenodd" /><path
   style="fill:none;stroke:#000000;stroke-width:1.29219997;stroke-linecap:round"
   id="path373"
   d="m 43.04205,119.03062 c -0.207,-1.616 -0.84,-2.649 0.09,-4.647"
   clip-rule="evenodd" /><path
   style="fill:none;stroke:#000000;stroke-width:1.98039997;stroke-linecap:round"
   id="path375"
   d="m 43.04205,114.38262 c -6.632,-9.741 -16.553,-28.725 -23.364,-39.932 -2.499,-4.112 -4.153,-5.898 -8.594,-5.913"
   clip-rule="evenodd" /><path
   style="fill:none;stroke:#000000;stroke-width:1;stroke-linecap:round"
   id="path377"
   d="m 11.08405,68.53862 c 0.373,1.954 0.535,3.007 0.809,4.765 -2.038,0.099 -4.031,0.245 -4.031,0.245 0,0 10.076,31.905 13.908,43.9 -3.695,0 -7.585,0 -11.353,0"
   clip-rule="evenodd" /><path
   style="fill:none;stroke:#000000;stroke-width:1.10230005;stroke-linecap:round"
   id="path379"
   d="m 93.98205,93.19962 c -0.011,3.453 0,5.296 0,8.252"
   clip-rule="evenodd" /><path
   style="fill:none;stroke:#000000;stroke-width:2.29999995;stroke-linecap:round"
   id="path381"
   d="m 89.53705,101.37962 c 11.4,2.513 30.306,3.792 42.485,2.201"
   clip-rule="evenodd" /><path
   style="fill:none;stroke:#000000;stroke-width:1.1401;stroke-linecap:round"
   id="path383"
   d="m 130.24805,103.81662 c 0.591,-0.119 1.183,-0.09 1.773,-0.236"
   clip-rule="evenodd" /><path
   style="fill:none;stroke:#000000;stroke-width:2.29999995;stroke-linecap:round"
   id="path385"
   d="m 132.02205,103.57962 c 0,-3.941 0,-7.882 0,-11.823"
   clip-rule="evenodd" /><path
   style="fill:none;stroke:#000000;stroke-width:2.29999995;stroke-linecap:round"
   id="path387"
   d="m 132.02205,103.57962 c 2.073,-0.399 8.754,-0.936 9.071,-2.161 0.417,-1.609 0.72,-5.717 0.043,-7.6 -0.357,-0.993 -6.023,-1.424 -9.114,-2.062"
   clip-rule="evenodd" /><path
   style="fill:none;stroke:#000000;stroke-width:2.29999995;stroke-linecap:round;stroke-linejoin:round"
   id="path389"
   d="m 89.53705,108.75262 c 0,1.4 0.048,1.931 0.05,2.917 9.151,-0.104 41.548,-0.102 41.548,-0.102 0,0 0.443,-4.062 -0.887,-7.751"
   clip-rule="evenodd" /><path
   style="fill:none;stroke:#000000;stroke-width:2.29999995;stroke-linecap:round"
   id="path395"
   d="m 288.20105,118.06262 c -8.607,-4.692 -18.798,-7.349 -28.14,-8.974"
   clip-rule="evenodd" /><path
   style="fill:none;stroke:#000000;stroke-width:2.02279997;stroke-linecap:round"
   id="path405"
   d="m 10.41705,117.44762 c -0.025,1.434 -5.371,2.169 -5.371,4.338"
   clip-rule="evenodd" /><path
   style="fill:none;stroke:#000000;stroke-width:2.08060002;stroke-linecap:round"
   id="path407"
   d="M 288.20105,127.61362"
   clip-rule="evenodd" /><path
   style="fill:none;stroke:#000000;stroke-width:1.10580003;stroke-linecap:round"
   id="path409"
   d="M 11.08405,125.03562"
   clip-rule="evenodd" /><line
   style="fill:none;stroke:#000000;stroke-width:1;stroke-linecap:round"
   x1="129.24304"
   y1="65.897621"
   x2="130.26004"
   y2="90.335625"
   id="line411" />
<path
   sodipodi:nodetypes="cccccc"
   style="fill:#c1cee0;fill-rule:evenodd;stroke:#000000;stroke-width:1;stroke-opacity:1"
   id="path4876"
   d="m 247.38605,137.23359 c 6.54009,-2.40181 10.52721,-5.93981 10.2463,-14.23659 l -18.24565,0 c -0.1695,4.42176 -5.26321,6.01375 -9.02465,7.49759 -1.231,0.519 -1.258,5.375 -1.156,8.017 l 18.18,-1.278 z"
   clip-rule="evenodd" /><path
   clip-rule="evenodd"
   d="m 157.17205,224.669 c 9.478,-37.018 7.79,-31.138 22.732,-85.51"
   id="path4878"
   style="fill:none;stroke:#000000;stroke-width:2.29999995;stroke-linecap:round" /><path
   clip-rule="evenodd"
   d="m 131.57805,137.54 c 44.075,2.454 107.575,2.146 128.483,-2.354"
   id="path4880"
   style="fill:none;stroke:#000000;stroke-width:2.29999995;stroke-linecap:round" /><path
   clip-rule="evenodd"
   d="M 10.13605,118.769"
   id="path4882"
   style="fill:none;stroke:#000000;stroke-width:2.28399992;stroke-linecap:round" /><path
   clip-rule="evenodd"
   d="m 43.04205,129.893 c 15.24,2.502 30.912,4.286 46.495,5.631"
   id="path4884"
   style="fill:none;stroke:#000000;stroke-width:2.11450005;stroke-linecap:round" /><path
   clip-rule="evenodd"
   d="m 89.53705,135.523 c 0,2.631 0,4.506 0,7.373"
   id="path4886"
   style="fill:none;stroke:#000000;stroke-width:2.14610004;stroke-linecap:round" /><path
   clip-rule="evenodd"
   d="m 89.53705,142.896 c -2.665,0.633 -6.979,5.866 -1.402,7.116 1.814,0.407 3.752,0.677 5.848,1.063"
   id="path4888"
   style="fill:none;stroke:#000000;stroke-width:2.30019999;stroke-linecap:round" /><path
   clip-rule="evenodd"
   d="m 93.98205,151.076 c 8.708,1.341 22.654,4.796 38.04,1.442"
   id="path4890"
   style="fill:none;stroke:#000000;stroke-width:2.29999995;stroke-linecap:round" /><path
   clip-rule="evenodd"
   d="m 120.19805,154.623 c 0.005,16.938 -0.05,21.469 -0.055,38.855"
   id="path4892"
   style="fill:none;stroke:#000000;stroke-width:2.29999995;stroke-linecap:round" /><path
   clip-rule="evenodd"
   d="m 120.14305,193.478 c -0.052,10.459 -0.012,24.015 0,33.393"
   id="path4894"
   style="fill:none;stroke:#000000;stroke-width:2.29999995;stroke-linecap:round" /><path
   sodipodi:nodetypes="ccc"
   clip-rule="evenodd"
   d="m 115.41605,233.826 c -3.442,2.5 -10.86126,10.07468 -18.513,9.235 1.05278,-4.91386 3.48464,-12.9917 3.48464,-12.9917"
   id="path4896"
   style="fill:none;stroke:#000000;stroke-width:2.29999995;stroke-linecap:round;stroke-linejoin:round" /><path
   clip-rule="evenodd"
   d="m 157.17205,224.669 c 11.106,0 25.794,-0.201 34.437,2.805"
   id="path4898"
   style="fill:none;stroke:#000000;stroke-width:2.29999995;stroke-linecap:round" /><path
   clip-rule="evenodd"
   d="m 191.60805,227.474 c -0.18,2.473 -0.133,4.909 0.193,7.352"
   id="path4900"
   style="fill:none;stroke:#000000;stroke-width:1;stroke-linecap:round" /><path
   sodipodi:nodetypes="ccsc"
   d="m 157.17205,224.669 c -9.4,-0.003 -46.94989,3.90247 -56.54444,5.34724 17.83444,4.80976 39.10044,7.03576 48.77544,7.23576 6.542,0.135 28.617,0.901 42.398,-2.426"
   style="fill:none;stroke:#000000;stroke-width:2.29999995;stroke-linecap:round"
   id="path4902" /><path
   clip-rule="evenodd"
   d="m 191.60805,227.474 c 10.346,0.147 9.283,7.328 0.193,7.352"
   id="path4904"
   style="fill:none;stroke:#000000;stroke-width:2.29999995;stroke-linecap:round" /><path
   sodipodi:nodetypes="cc"
   clip-rule="evenodd"
   d="m 115.70705,228.184 c 0.623,1.868 0.47512,3.69618 -0.291,5.643"
   id="path4906"
   style="fill:none;stroke:#000000;stroke-width:1;stroke-linecap:round" /><path
   clip-rule="evenodd"
   d="M 120.14305,226.871"
   id="path4908"
   style="fill:none;stroke:#000000;stroke-width:2.40860009;stroke-linecap:round" /><path
   clip-rule="evenodd"
   d="m 120.14305,193.478 c 1.714,0 9.635,0 10.762,0 -1.135,19.826 -1.218,20.711 -1.721,33.287"
   id="path4910"
   style="fill:none;stroke:#000000;stroke-width:1;stroke-linecap:round" /><path
   clip-rule="evenodd"
   d="m 127.58905,193.478 c 0.55,-4.927 1.107,-9.883 1.655,-14.772"
   id="path4912"
   style="fill:none;stroke:#000000;stroke-width:1;stroke-linecap:round" /><path
   clip-rule="evenodd"
   d="m 131.13505,152.696 c 0.23,-0.035 0.574,-0.099 0.887,-0.177"
   id="path4914"
   style="fill:none;stroke:#000000;stroke-width:1.1027;stroke-linecap:round" /><path
   clip-rule="evenodd"
   d="m 135.91705,152.696 c -0.749,13.005 -1.625,26.01 -1.625,26.01 0,0 -2.554,0 -5.048,0"
   id="path4916"
   style="fill:none;stroke:#000000;stroke-width:1;stroke-linecap:round" /><path
   clip-rule="evenodd"
   d="m 11.08405,175.737 c -2.847,0 -5.931,0.11 -10.035,0.076 2.481,-16.357 6.549,-32.51 9.368,-48.985"
   id="path4918"
   style="fill:none;stroke:#000000;stroke-width:2.09809995;stroke-linecap:round" /><path
   clip-rule="evenodd"
   d="m 43.04205,125.245 c -0.207,1.616 -0.84,2.649 0.09,4.647"
   id="path4920"
   style="fill:none;stroke:#000000;stroke-width:1.29219997;stroke-linecap:round" /><path
   clip-rule="evenodd"
   d="m 43.04205,129.893 c -6.632,9.741 -16.553,28.725 -23.364,39.932 -2.499,4.112 -4.153,5.898 -8.594,5.913"
   id="path4922"
   style="fill:none;stroke:#000000;stroke-width:1.98039997;stroke-linecap:round" /><path
   clip-rule="evenodd"
   d="m 11.08405,175.737 c 0.373,-1.954 0.535,-3.007 0.809,-4.765 -2.038,-0.099 -4.031,-0.245 -4.031,-0.245 0,0 10.076,-31.905 13.908,-43.9 -3.695,0 -7.585,0 -11.353,0"
   id="path4924"
   style="fill:none;stroke:#000000;stroke-width:1;stroke-linecap:round" /><path
   clip-rule="evenodd"
   d="m 93.98205,151.076 c -0.011,-3.453 0,-5.296 0,-8.252"
   id="path4926"
   style="fill:none;stroke:#000000;stroke-width:1.10230005;stroke-linecap:round" /><path
   clip-rule="evenodd"
   d="m 89.53705,142.896 c 11.4,-2.513 30.306,-3.792 42.485,-2.201"
   id="path4928"
   style="fill:none;stroke:#000000;stroke-width:2.29999995;stroke-linecap:round" /><path
   clip-rule="evenodd"
   d="m 130.24805,140.459 c 0.591,0.119 1.183,0.09 1.773,0.236"
   id="path4930"
   style="fill:none;stroke:#000000;stroke-width:1.1401;stroke-linecap:round" /><path
   clip-rule="evenodd"
   d="m 132.02205,140.696 c 0,3.941 0,7.882 0,11.823"
   id="path4932"
   style="fill:none;stroke:#000000;stroke-width:2.29999995;stroke-linecap:round" /><path
   clip-rule="evenodd"
   d="m 132.02205,140.696 c 2.073,0.399 8.754,0.936 9.071,2.161 0.417,1.609 0.72,5.717 0.043,7.6 -0.357,0.993 -6.023,1.424 -9.114,2.062"
   id="path4934"
   style="fill:none;stroke:#000000;stroke-width:2.29999995;stroke-linecap:round" /><path
   clip-rule="evenodd"
   d="m 89.53705,135.523 c 0,-1.4 0.048,-1.931 0.05,-2.917 9.151,0.104 41.548,0.102 41.548,0.102 0,0 0.443,4.062 -0.887,7.751"
   id="path4936"
   style="fill:none;stroke:#000000;stroke-width:2.29999995;stroke-linecap:round;stroke-linejoin:round" /><path
   id="path4938"
   style="fill:none;stroke:#000000;stroke-width:1.5;stroke-linecap:round"
   d="m 260.06105,109.08962 c -0.253,3.986 0.772,9.808 0.532,13.04819 0.24,3.24019 -0.785,9.06219 -0.532,13.04819"
   sodipodi:nodetypes="ccc" /><path
   clip-rule="evenodd"
   d="m 288.20105,126.213 c -8.607,4.692 -18.798,7.349 -28.14,8.974"
   id="path4942"
   style="fill:none;stroke:#000000;stroke-width:2.29999995;stroke-linecap:round" /><path
   clip-rule="evenodd"
   d="m 288.20105,126.213 c -1.68874,-2.36832 -1.44916,-6.18785 0,-7.86433"
   id="path4944"
   style="fill:none;stroke:#000000;stroke-width:1.5;stroke-linecap:round"
   sodipodi:nodetypes="cc" /><path
   id="path4946"
   style="fill:none;stroke:#000000;stroke-width:2;stroke-linecap:round"
   d="m 43.04205,119.03062 c 21.986,0 32.111,0.207 46.918,0.622 7.216,0.202 15.085,1.145 15.085,2.48519 0,1.34019 -7.869,2.28319 -15.085,2.48519 -14.807,0.415 -24.932,0.622 -46.918,0.622"
   sodipodi:nodetypes="cscsc" /><path
   id="path4948"
   style="fill:none;stroke:#000000;stroke-width:2;stroke-linecap:round"
   d="m 43.04205,119.03062 c -17.945,-0.095 -31.37897,1.767 -41.14797,3.10719 9.769,1.34019 23.20297,3.20219 41.14797,3.10719"
   sodipodi:nodetypes="ccc" /><path
   clip-rule="evenodd"
   d="m 10.41705,126.828 c -0.025,-1.434 -5.371,-2.169 -5.371,-4.338"
   id="path4950"
   style="fill:none;stroke:#000000;stroke-width:2.02279997;stroke-linecap:round" /><path
   clip-rule="evenodd"
   d="M 288.20105,116.662"
   id="path4952"
   style="fill:none;stroke:#000000;stroke-width:2.08060002;stroke-linecap:round" /><path
   clip-rule="evenodd"
   d="M 11.08405,119.24"
   id="path4954"
   style="fill:none;stroke:#000000;stroke-width:1.10580003;stroke-linecap:round" /><line
   style="fill:none;stroke:#000000;stroke-width:1;stroke-linecap:round"
   id="line4956"
   y2="153.93999"
   x2="130.26004"
   y1="178.37801"
   x1="129.24304" /></svg>