<?xml version="1.0" encoding="UTF-8"?>
<svg xmlns="http://www.w3.org/2000/svg" xmlns:xlink="http://www.w3.org/1999/xlink" width="180.043854pt" height="79.657066pt" viewBox="0 0 180.043854 79.657066" version="1.1">
<defs>
<clipPath id="clip1">
  <path d="M 156 44 L 180.042969 44 L 180.042969 79.65625 L 156 79.65625 Z M 156 44 "/>
</clipPath>
</defs>
<g id="surface1">
<path style=" stroke:none;fill-rule:nonzero;fill:rgb(0%,0%,0%);fill-opacity:1;" d="M 83.695313 27.785156 C 85.667969 25.644531 86.183594 25.214844 87.382813 25.214844 C 87.8125 25.214844 88.410156 25.300781 89.183594 25.558594 C 92.613281 26.328125 97.160156 27.1875 97.929688 27.1875 C 98.273438 27.1875 98.53125 27.101563 99.046875 26.929688 C 100.332031 24.957031 101.703125 22.898438 103.078125 20.753906 L 102.734375 19.726563 C 99.730469 23.5 99.390625 23.84375 98.1875 23.84375 C 97.929688 23.84375 97.589844 23.757813 97.160156 23.671875 C 93.984375 23.070313 91.15625 22.726563 88.839844 22.296875 C 91.5 19.898438 92.871094 18.523438 94.585938 16.980469 L 98.703125 13.121094 C 99.902344 12.09375 100.074219 11.921875 101.019531 10.976563 C 102.390625 8.917969 102.992188 7.375 102.992188 5.316406 C 102.992188 2.316406 101.019531 0.429688 98.1875 0.429688 C 95.789063 0.429688 93.300781 1.285156 91.414063 2.914063 C 89.785156 4.203125 88.839844 5.832031 88.839844 7.804688 C 88.839844 8.148438 88.925781 8.40625 89.011719 8.917969 L 92.269531 9.261719 C 91.929688 7.976563 91.757813 7.375 91.757813 6.519531 C 91.757813 3.945313 93.300781 2.316406 95.617188 2.316406 C 97.757813 2.316406 99.390625 4.203125 99.390625 6.859375 C 99.390625 8.320313 98.875 9.949219 98.1875 11.0625 C 97.160156 12.691406 96.042969 13.894531 92.441406 17.238281 C 86.4375 22.898438 85.753906 23.585938 83.4375 26.414063 Z M 83.695313 27.785156 "/>
<path style=" stroke:none;fill-rule:nonzero;fill:rgb(0%,0%,0%);fill-opacity:1;" d="M 119.410156 0.257813 C 116.066406 0.257813 112.292969 2.574219 109.976563 6.003906 C 107.832031 9.347656 106.117188 15.351563 106.117188 19.726563 C 106.117188 24.699219 108.003906 27.359375 111.519531 27.359375 C 115.464844 27.359375 119.152344 24.871094 121.296875 20.667969 C 123.097656 17.152344 124.472656 11.578125 124.472656 7.71875 C 124.472656 2.746094 122.757813 0.257813 119.410156 0.257813 Z M 117.097656 2.230469 C 119.238281 2.230469 120.441406 4.632813 120.441406 9.089844 C 120.441406 12.863281 119.496094 17.667969 117.953125 21.183594 C 116.839844 24.011719 115.296875 25.644531 113.664063 25.644531 C 111.605469 25.644531 110.148438 22.984375 110.148438 19.210938 C 110.148438 16.722656 111.007813 11.492188 111.949219 8.492188 C 113.238281 4.289063 114.953125 2.230469 117.097656 2.230469 Z M 117.097656 2.230469 "/>
<path style=" stroke:none;fill-rule:nonzero;fill:rgb(0%,0%,0%);fill-opacity:1;" d="M 125.96875 27.015625 L 128.972656 27.015625 L 134.03125 26.929688 L 139.347656 27.015625 L 141.234375 27.015625 L 142.351563 25.730469 C 140.976563 25.730469 138.492188 25.472656 137.546875 25.214844 C 136.859375 25.042969 136.347656 24.527344 136.347656 23.84375 C 136.347656 23.328125 136.433594 22.640625 136.691406 21.871094 C 136.859375 21.355469 137.289063 19.210938 137.976563 15.953125 C 140.035156 7.203125 141.0625 2.746094 141.835938 0 L 140.207031 0.773438 C 137.03125 2.488281 136.945313 2.574219 135.402344 3.257813 C 134.546875 3.6875 133 4.375 130.859375 5.316406 L 132.316406 6.003906 C 133.429688 5.660156 133.945313 5.402344 134.804688 5.058594 L 136.175781 4.546875 C 136.347656 4.460938 136.773438 4.289063 137.460938 4.03125 L 133.085938 23.070313 C 132.574219 25.042969 132.574219 25.128906 131.113281 25.300781 C 129.140625 25.558594 127.855469 25.644531 127.339844 25.730469 Z M 125.96875 27.015625 "/>
<path style=" stroke:none;fill-rule:nonzero;fill:rgb(0%,0%,0%);fill-opacity:1;" d="M 144.621094 26.328125 C 146.25 27.101563 147.449219 27.359375 149.078125 27.359375 C 153.28125 27.359375 158.253906 24.441406 161.085938 20.324219 C 163.316406 17.152344 164.945313 11.492188 164.945313 7.203125 C 164.945313 2.832031 163.144531 0.257813 160.058594 0.257813 C 157.742188 0.257813 154.910156 1.285156 152.425781 3.085938 C 149.765625 5.058594 148.394531 7.460938 148.394531 10.121094 C 148.394531 13.464844 150.621094 15.78125 153.796875 15.78125 C 155.425781 15.78125 156.367188 15.351563 161.085938 12.519531 C 160.484375 16.039063 159.972656 17.839844 159.027344 19.640625 C 157.140625 23.242188 154.480469 25.300781 151.652344 25.300781 C 150.195313 25.300781 148.90625 24.957031 146.847656 23.84375 Z M 161.257813 10.804688 C 159.371094 12.265625 157.484375 13.121094 155.855469 13.121094 C 153.625 13.121094 151.996094 11.0625 151.996094 8.320313 C 151.996094 4.886719 154.054688 2.402344 156.96875 2.402344 C 159.628906 2.402344 161.34375 4.71875 161.34375 8.40625 C 161.34375 9.003906 161.34375 9.605469 161.257813 10.804688 Z M 161.257813 10.804688 "/>
<path style=" stroke:none;fill-rule:nonzero;fill:rgb(0%,0%,0%);fill-opacity:1;" d="M 8.0625 58.816406 C 8.320313 57.617188 8.660156 56.5 8.917969 55.300781 C 9.605469 52.640625 9.605469 52.46875 10.292969 51.355469 C 11.835938 48.609375 14.238281 45.4375 18.011719 45.4375 C 20.496094 45.4375 20.496094 48.269531 20.496094 49.039063 C 20.496094 50.496094 20.152344 52.128906 19.984375 52.640625 L 16.464844 66.792969 C 16.378906 67.136719 16.292969 67.480469 16.292969 67.566406 C 16.292969 68.164063 16.722656 69.023438 17.839844 69.023438 C 18.523438 69.023438 19.382813 68.679688 19.8125 67.566406 L 21.953125 58.816406 C 22.296875 57.617188 22.554688 56.5 22.898438 55.300781 C 23.585938 52.640625 23.585938 52.46875 24.269531 51.355469 C 25.8125 48.609375 28.214844 45.4375 31.988281 45.4375 C 34.476563 45.4375 34.476563 48.269531 34.476563 49.039063 C 34.476563 52.46875 32.074219 58.988281 31.304688 61.132813 C 30.617188 63.019531 30.445313 63.535156 30.445313 64.648438 C 30.445313 67.050781 31.988281 69.023438 34.5625 69.023438 C 39.707031 69.023438 41.507813 60.875 41.507813 60.617188 C 41.507813 60.019531 41.078125 60.019531 40.738281 60.019531 C 39.964844 60.019531 39.964844 60.1875 39.792969 60.960938 C 39.363281 62.417969 37.820313 67.820313 34.648438 67.820313 C 33.53125 67.820313 33.445313 66.964844 33.445313 66.191406 C 33.445313 64.90625 34.046875 63.449219 34.476563 62.160156 C 35.589844 59.246094 37.820313 53.070313 37.820313 49.898438 C 37.820313 45.351563 34.648438 44.238281 32.074219 44.238281 C 28.214844 44.238281 25.472656 46.640625 23.84375 49.039063 C 23.414063 45.265625 20.582031 44.238281 18.097656 44.238281 C 14.835938 44.238281 12.179688 46.039063 10.292969 48.527344 C 9.863281 45.867188 8.0625 44.238281 5.660156 44.238281 C 3.6875 44.238281 2.660156 45.523438 1.714844 47.152344 C 0.6875 49.296875 0 52.554688 0 52.640625 C 0 53.242188 0.515625 53.242188 0.859375 53.242188 C 1.542969 53.242188 1.542969 53.15625 1.886719 51.957031 C 2.832031 48.097656 3.859375 45.4375 5.574219 45.4375 C 7.03125 45.4375 7.03125 47.066406 7.03125 47.667969 C 7.03125 48.527344 6.859375 49.554688 6.605469 50.414063 L 2.488281 66.792969 C 2.402344 67.136719 2.316406 67.480469 2.316406 67.566406 C 2.316406 68.164063 2.746094 69.023438 3.859375 69.023438 C 4.546875 69.023438 5.488281 68.679688 5.832031 67.566406 Z M 8.0625 58.816406 "/>
<path style=" stroke:none;fill-rule:nonzero;fill:rgb(0%,0%,0%);fill-opacity:1;" d="M 53.210938 55.816406 C 54.925781 55.816406 58.527344 55.644531 61.183594 54.613281 C 65.472656 52.8125 65.472656 49.296875 65.472656 48.867188 C 65.472656 46.382813 63.5 44.238281 59.984375 44.238281 C 54.238281 44.238281 46.433594 49.726563 46.433594 59.417969 C 46.433594 64.390625 49.007813 69.023438 54.238281 69.023438 C 61.269531 69.023438 65.816406 63.535156 65.816406 62.761719 C 65.816406 62.417969 65.300781 61.820313 64.875 61.820313 C 64.703125 61.820313 64.617188 61.90625 64.1875 62.417969 C 60.15625 67.566406 55.269531 67.820313 54.324219 67.820313 C 50.808594 67.820313 50.207031 63.960938 50.207031 61.820313 C 50.207031 59.761719 50.722656 57.273438 51.152344 55.816406 Z M 51.410156 54.613281 C 53.808594 45.609375 59.46875 45.4375 59.984375 45.4375 C 62.128906 45.4375 63.414063 46.894531 63.414063 48.78125 C 63.414063 54.613281 54.410156 54.613281 52.609375 54.613281 Z M 51.410156 54.613281 "/>
<path style=" stroke:none;fill-rule:nonzero;fill:rgb(0%,0%,0%);fill-opacity:1;" d="M 75.574219 55.816406 C 77.289063 55.816406 80.890625 55.644531 83.550781 54.613281 C 87.839844 52.8125 87.839844 49.296875 87.839844 48.867188 C 87.839844 46.382813 85.867188 44.238281 82.351563 44.238281 C 76.605469 44.238281 68.800781 49.726563 68.800781 59.417969 C 68.800781 64.390625 71.371094 69.023438 76.605469 69.023438 C 83.636719 69.023438 88.183594 63.535156 88.183594 62.761719 C 88.183594 62.417969 87.667969 61.820313 87.238281 61.820313 C 87.066406 61.820313 86.980469 61.90625 86.550781 62.417969 C 82.523438 67.566406 77.632813 67.820313 76.691406 67.820313 C 73.171875 67.820313 72.574219 63.960938 72.574219 61.820313 C 72.574219 59.761719 73.085938 57.273438 73.515625 55.816406 Z M 73.773438 54.613281 C 76.175781 45.609375 81.835938 45.4375 82.351563 45.4375 C 84.492188 45.4375 85.78125 46.894531 85.78125 48.78125 C 85.78125 54.613281 76.777344 54.613281 74.972656 54.613281 Z M 73.773438 54.613281 "/>
<path style=" stroke:none;fill-rule:nonzero;fill:rgb(0%,0%,0%);fill-opacity:1;" d="M 101.929688 46.554688 L 106.558594 46.554688 C 107.503906 46.554688 108.105469 46.554688 108.105469 45.523438 C 108.105469 44.835938 107.589844 44.835938 106.730469 44.835938 L 102.359375 44.835938 L 104.417969 36.777344 C 104.589844 36.003906 104.589844 35.832031 104.589844 35.574219 C 104.589844 34.460938 103.644531 34.203125 103.128906 34.203125 C 101.757813 34.203125 101.242188 35.316406 100.984375 36.175781 L 98.84375 44.835938 L 94.210938 44.835938 C 93.265625 44.835938 92.667969 44.835938 92.667969 45.867188 C 92.667969 46.554688 93.179688 46.554688 94.039063 46.554688 L 98.414063 46.554688 L 94.46875 62.246094 C 94.382813 62.417969 94.210938 63.363281 94.210938 64.132813 C 94.210938 66.792969 96.011719 69.023438 98.84375 69.023438 C 104.417969 69.023438 107.160156 60.875 107.160156 60.617188 C 107.160156 60.019531 106.730469 60.019531 106.390625 60.019531 C 105.703125 60.019531 105.703125 60.101563 105.273438 61.132813 C 104.246094 63.707031 102.101563 67.820313 98.925781 67.820313 C 97.46875 67.820313 97.46875 66.449219 97.46875 65.59375 C 97.46875 65.164063 97.46875 64.304688 97.898438 62.761719 Z M 101.929688 46.554688 "/>
<path style=" stroke:none;fill-rule:nonzero;fill:rgb(0%,0%,0%);fill-opacity:1;" d="M 123.953125 60.617188 C 123.953125 60.019531 123.523438 60.019531 123.183594 60.019531 C 122.410156 60.019531 122.410156 60.1875 122.238281 60.960938 C 121.808594 62.589844 120.265625 67.820313 117.09375 67.820313 C 116.664063 67.820313 115.890625 67.734375 115.890625 66.277344 C 115.890625 64.90625 116.664063 63.019531 117.351563 61.046875 L 120.867188 51.699219 C 121.382813 50.070313 121.46875 49.640625 121.46875 48.609375 C 121.46875 45.609375 119.410156 44.238281 117.4375 44.238281 C 112.289063 44.238281 110.402344 52.386719 110.402344 52.640625 C 110.402344 53.242188 110.917969 53.242188 111.261719 53.242188 C 111.949219 53.242188 111.949219 53.070313 112.203125 52.300781 C 112.71875 50.496094 114.089844 45.4375 117.265625 45.4375 C 117.863281 45.4375 118.464844 45.695313 118.464844 46.980469 C 118.464844 48.269531 117.863281 49.898438 117.523438 50.925781 L 115.890625 55.472656 C 115.121094 57.273438 114.519531 59.074219 113.835938 60.875 C 113.0625 62.933594 112.890625 63.535156 112.890625 64.648438 C 112.890625 66.792969 114.175781 69.023438 117.007813 69.023438 C 122.152344 69.023438 123.953125 60.789063 123.953125 60.617188 Z M 123.695313 34.375 C 123.695313 33.003906 122.582031 32.488281 121.808594 32.488281 C 120.695313 32.488281 119.238281 33.601563 119.238281 35.148438 C 119.238281 36.519531 120.265625 36.949219 121.039063 36.949219 C 122.152344 36.949219 123.695313 35.917969 123.695313 34.375 Z M 123.695313 34.375 "/>
<path style=" stroke:none;fill-rule:nonzero;fill:rgb(0%,0%,0%);fill-opacity:1;" d="M 135.238281 58.816406 C 135.492188 57.617188 135.835938 56.5 136.09375 55.300781 C 136.78125 52.46875 136.78125 52.46875 137.722656 50.839844 C 138.496094 49.554688 140.984375 45.4375 145.097656 45.4375 C 147.5 45.4375 147.671875 47.925781 147.671875 49.039063 C 147.671875 52.46875 145.183594 58.988281 144.5 61.132813 C 143.726563 63.019531 143.554688 63.535156 143.554688 64.648438 C 143.554688 67.050781 145.097656 69.023438 147.757813 69.023438 C 152.816406 69.023438 154.703125 60.875 154.703125 60.617188 C 154.703125 60.019531 154.277344 60.019531 153.847656 60.019531 C 153.160156 60.019531 153.160156 60.1875 152.902344 60.960938 C 152.472656 62.417969 151.015625 67.820313 147.84375 67.820313 C 146.726563 67.820313 146.644531 66.964844 146.644531 66.191406 C 146.644531 64.90625 147.15625 63.449219 147.671875 62.160156 C 148.699219 59.246094 150.929688 53.070313 150.929688 49.898438 C 150.929688 45.4375 147.929688 44.238281 145.269531 44.238281 C 140.8125 44.238281 138.152344 47.496094 137.464844 48.527344 C 137.039063 45.867188 135.238281 44.238281 132.835938 44.238281 C 130.863281 44.238281 129.832031 45.523438 128.890625 47.152344 C 127.859375 49.296875 127.175781 52.554688 127.175781 52.640625 C 127.175781 53.242188 127.6875 53.242188 128.03125 53.242188 C 128.71875 53.242188 128.71875 53.15625 129.0625 51.957031 C 130.003906 48.097656 131.035156 45.4375 132.75 45.4375 C 134.207031 45.4375 134.207031 47.066406 134.207031 47.667969 C 134.207031 48.527344 134.035156 49.554688 133.777344 50.414063 L 129.660156 66.792969 C 129.574219 67.136719 129.492188 67.480469 129.492188 67.566406 C 129.492188 68.164063 129.917969 69.023438 131.035156 69.023438 C 131.71875 69.023438 132.664063 68.679688 133.007813 67.566406 Z M 135.238281 58.816406 "/>
<g clip-path="url(#clip1)" clip-rule="nonzero">
<path style=" stroke:none;fill-rule:nonzero;fill:rgb(0%,0%,0%);fill-opacity:1;" d="M 171.894531 65.507813 L 170.695313 70.136719 C 170.09375 72.882813 169.753906 73.996094 168.207031 75.882813 C 165.980469 78.457031 163.835938 78.457031 162.976563 78.457031 C 162.292969 78.457031 160.574219 78.457031 159.117188 77.855469 C 160.234375 77.425781 160.832031 76.226563 160.832031 75.285156 C 160.832031 74.597656 160.402344 73.566406 158.945313 73.566406 C 158.003906 73.566406 156.289063 74.339844 156.289063 76.484375 C 156.289063 78.628906 158.261719 79.65625 162.890625 79.65625 C 168.636719 79.65625 172.753906 76.054688 173.867188 71.851563 L 179.785156 47.925781 C 180.042969 47.066406 180.042969 46.980469 180.042969 46.722656 C 180.042969 45.609375 179.101563 45.351563 178.5 45.351563 C 177.898438 45.351563 176.613281 45.78125 176.441406 47.324219 C 175.671875 45.78125 174.125 44.238281 171.8125 44.238281 C 165.722656 44.238281 159.375 52.300781 159.375 60.019531 C 159.375 64.734375 161.949219 68.421875 166.066406 68.421875 C 168.894531 68.421875 171.210938 66.191406 171.894531 65.507813 Z M 175.414063 51.269531 L 172.925781 61.21875 C 172.496094 62.933594 169.152344 67.222656 166.148438 67.222656 C 163.234375 67.222656 163.148438 63.019531 163.148438 62.417969 C 163.148438 59.847656 164.777344 53.414063 165.894531 50.839844 C 167.265625 47.925781 169.667969 45.4375 171.8125 45.4375 C 175.070313 45.4375 175.585938 50.070313 175.585938 50.496094 Z M 175.414063 51.269531 "/>
</g>
</g>
</svg>
