<?xml version="1.0" encoding="UTF-8" standalone="no"?>
<svg
   xmlns:dc="http://purl.org/dc/elements/1.1/"
   xmlns:cc="http://creativecommons.org/ns#"
   xmlns:rdf="http://www.w3.org/1999/02/22-rdf-syntax-ns#"
   xmlns:svg="http://www.w3.org/2000/svg"
   xmlns="http://www.w3.org/2000/svg"
   xmlns:sodipodi="http://sodipodi.sourceforge.net/DTD/sodipodi-0.dtd"
   xmlns:inkscape="http://www.inkscape.org/namespaces/inkscape"
   id="svg8"
   version="1.1"
   viewBox="0 0 63.515472 28.101242"
   height="79.657066pt"
   width="180.04385pt"
   sodipodi:docname="meeting_2019_logo.svg"
   inkscape:version="0.92.4 (5da689c313, 2019-01-14)">
  <defs
     id="defs79" />
  <sodipodi:namedview
     pagecolor="#ffffff"
     bordercolor="#666666"
     borderopacity="1"
     objecttolerance="10"
     gridtolerance="10"
     guidetolerance="10"
     inkscape:pageopacity="0"
     inkscape:pageshadow="2"
     inkscape:window-width="3440"
     inkscape:window-height="1346"
     id="namedview77"
     showgrid="false"
     inkscape:zoom="2.0474452"
     inkscape:cx="-46.103986"
     inkscape:cy="-23.664724"
     inkscape:window-x="-11"
     inkscape:window-y="-11"
     inkscape:window-maximized="1"
     inkscape:current-layer="svg8"
     fit-margin-top="0"
     fit-margin-left="0"
     fit-margin-right="0"
     fit-margin-bottom="0" />
  <metadata
     id="metadata5">
    <rdf:RDF>
      <cc:Work
         rdf:about="">
        <dc:format>image/svg+xml</dc:format>
        <dc:type
           rdf:resource="http://purl.org/dc/dcmitype/StillImage" />
        <dc:title></dc:title>
      </cc:Work>
    </rdf:RDF>
  </metadata>
  <g
     style="fill:#004c1e;fill-opacity:1"
     id="g2460"
     transform="matrix(2.8782352,0,0,2.8782352,-479.06539,-363.48018)" />
  <g
     style="fill:#000000;fill-opacity:1"
     id="g2464"
     transform="matrix(2.8782352,0,0,2.8782352,-479.06539,-363.48018)" />
  <path
     id="path2476"
     d="m 29.525645,9.8025905 c 0.695863,-0.756373 0.877393,-0.907647 1.300962,-0.907647 0.151274,0 0.363058,0.03026 0.635353,0.12102 1.210196,0.272294 2.813706,0.574843 3.086,0.574843 0.12102,0 0.211785,-0.03025 0.393314,-0.09076 0.453824,-0.695863 0.937902,-1.421981 1.421981,-2.178353 l -0.12102,-0.363059 c -1.058921,1.331216 -1.179941,1.452235 -1.60351,1.452235 -0.09076,0 -0.211784,-0.03026 -0.363059,-0.06051 -1.119431,-0.211785 -2.117843,-0.332804 -2.934726,-0.484079 0.937902,-0.847137 1.421981,-1.331216 2.027079,-1.8758044 L 34.820255,4.6290052 C 35.243823,4.2659463 35.304333,4.2054365 35.637137,3.8726324 36.121216,3.1465146 36.333,2.6019263 36.333,1.8758084 c 0,-1.0589218 -0.695863,-1.7245298 -1.694275,-1.7245298 -0.847137,0 -1.72453,0.3025491 -2.390138,0.8773924 -0.574843,0.4538236 -0.907647,1.0286669 -0.907647,1.7245298 0,0.1210196 0.03025,0.2117844 0.06051,0.3933138 l 1.149686,0.1210197 c -0.121019,-0.4538237 -0.181529,-0.665608 -0.181529,-0.9681571 0,-0.9076473 0.544588,-1.4824906 1.361471,-1.4824906 0.756373,0 1.331216,0.665608 1.331216,1.6035102 0,0.5143335 -0.18153,1.0891767 -0.423569,1.4824906 -0.363059,0.5748432 -0.756373,0.998412 -2.027079,2.1783531 -2.117843,1.996824 -2.359883,2.238864 -3.176765,3.237276 z m 0,0"
     style="fill:#000000;fill-opacity:1;stroke:none;stroke-width:0"
     inkscape:connector-curvature="0" />
  <path
     id="path2478"
     d="m 42.125745,0.0907648 c -1.179941,0 -2.511157,0.8168825 -3.32804,2.0270789 -0.756372,1.1799415 -1.361471,3.2977851 -1.361471,4.8407858 0,1.754784 0.665608,2.692687 1.90606,2.692687 1.391725,0 2.692687,-0.877393 3.449059,-2.359883 0.635353,-1.2404516 1.119432,-3.2070207 1.119432,-4.5684916 0,-1.7547848 -0.605098,-2.6321771 -1.78504,-2.6321771 z m -0.816882,0.6958629 c 0.756373,0 1.179941,0.8471375 1.179941,2.4203927 0,1.3312161 -0.332804,3.0254911 -0.877392,4.2659421 -0.393314,0.998412 -0.937902,1.573255 -1.512746,1.573255 -0.726117,0 -1.240451,-0.937902 -1.240451,-2.269118 0,-0.8773921 0.302549,-2.7229416 0.635353,-3.7818634 0.453824,-1.4824906 1.058922,-2.2086084 1.815295,-2.2086084 z m 0,0"
     style="fill:#000000;fill-opacity:1;stroke:none;stroke-width:0"
     inkscape:connector-curvature="0" />
  <path
     id="path2480"
     d="m 44.439176,9.5302965 h 1.058922 l 1.785039,-0.03026 1.875807,0.03026 h 0.66561 l 0.39331,-0.453824 c -0.48408,0 -1.36147,-0.09076 -1.694275,-0.181529 -0.242039,-0.06051 -0.423569,-0.242039 -0.423569,-0.484079 0,-0.181529 0.03025,-0.423568 0.12102,-0.695863 0.06051,-0.181529 0.211784,-0.937902 0.453823,-2.0875883 C 49.400984,2.5414124 49.764044,0.9681571 50.036334,0 l -0.57484,0.2722942 c -1.119435,0.6050982 -1.14969,0.6353531 -1.694278,0.8773924 -0.302549,0.1512746 -0.847137,0.3933138 -1.60351,0.7261178 l 0.514333,0.2420393 c 0.393314,-0.1210196 0.574844,-0.2117844 0.877393,-0.332804 L 48.03951,1.6035102 c 0.06051,-0.030255 0.211785,-0.090765 0.453824,-0.1815294 l -1.543001,6.7165897 c -0.181529,0.695863 -0.181529,0.726118 -0.695862,0.786628 -0.695863,0.09076 -1.149687,0.121019 -1.331216,0.151274 z m 0,0"
     style="fill:#000000;fill-opacity:1;stroke:none;stroke-width:0"
     inkscape:connector-curvature="0" />
  <path
     id="path2482"
     d="m 51.018564,9.2882575 c 0.57485,0.272294 0.99841,0.363059 1.57326,0.363059 1.48249,0 3.23727,-1.028667 4.23569,-2.480903 0.78662,-1.1194316 1.36147,-3.1162556 1.36147,-4.6290011 0,-1.5430003 -0.63536,-2.4506476 -1.72453,-2.4506476 -0.81689,0 -1.8153,0.3630589 -2.69269,0.998412 -0.9379,0.6958629 -1.42198,1.5430004 -1.42198,2.4809026 0,1.1799414 0.78663,1.996824 1.90606,1.996824 0.57484,0 0.90765,-0.1512746 2.57167,-1.1496866 -0.21179,1.2404513 -0.39332,1.8758047 -0.72612,2.5111577 -0.66561,1.270706 -1.60351,1.996824 -2.60192,1.996824 -0.51434,0 -0.96816,-0.12102 -1.69428,-0.514334 z m 5.86946,-5.4761389 c -0.66561,0.5143335 -1.33122,0.8168826 -1.90606,0.8168826 -0.78663,0 -1.36147,-0.7261178 -1.36147,-1.6942749 0,-1.2101964 0.72611,-2.0875888 1.75478,-2.0875888 0.9379,0 1.543,0.8168826 1.543,2.1178437 0,0.2117843 0,0.4235687 -0.0302,0.8471374 z m 0,0"
     style="fill:#000000;fill-opacity:1;stroke:none;stroke-width:0"
     inkscape:connector-curvature="0" />
  <path
     id="path2486"
     d="m 2.843962,20.7493 c 0.09076,-0.423569 0.211784,-0.816882 0.302549,-1.240451 0.242039,-0.937902 0.242039,-0.998412 0.484078,-1.391726 0.544589,-0.968157 1.391726,-2.087589 2.722942,-2.087589 0.877393,0 0.877393,0.998412 0.877393,1.270706 0,0.514334 -0.12102,1.089177 -0.18153,1.270707 l -1.240451,4.99206 c -0.03026,0.121019 -0.06051,0.242039 -0.06051,0.272294 0,0.211784 0.151275,0.514333 0.544588,0.514333 0.24204,0 0.544589,-0.121019 0.695863,-0.514333 L 7.745257,20.7493 C 7.866277,20.325731 7.957041,19.932418 8.078061,19.508849 8.3201,18.570947 8.3201,18.510437 8.56214,18.117123 c 0.544588,-0.968157 1.391725,-2.087589 2.722941,-2.087589 0.877393,0 0.877393,0.998412 0.877393,1.270706 0,1.210197 -0.847138,3.50957 -1.119432,4.265943 -0.242039,0.665608 -0.302549,0.847137 -0.302549,1.240451 0,0.847137 0.544588,1.543 1.452236,1.543 1.815294,0 2.450647,-2.874216 2.450647,-2.964981 0,-0.211784 -0.151274,-0.211784 -0.272294,-0.211784 -0.272294,0 -0.272294,0.06051 -0.332804,0.332804 -0.151274,0.514333 -0.695863,2.420393 -1.815294,2.420393 -0.393314,0 -0.423569,-0.302549 -0.423569,-0.574844 0,-0.453823 0.211784,-0.968157 0.363059,-1.42198 0.393314,-1.028667 1.179941,-3.207021 1.179941,-4.326452 0,-1.603511 -1.119431,-1.996824 -2.027079,-1.996824 -1.361471,0 -2.329628,0.847137 -2.904471,1.694274 -0.151275,-1.331216 -1.149687,-1.694274 -2.027079,-1.694274 -1.149686,0 -2.087589,0.635353 -2.753197,1.512745 -0.151274,-0.937902 -0.786627,-1.512745 -1.633765,-1.512745 -0.695863,0 -1.058922,0.453823 -1.391726,1.028666 C 0.242039,17.391005 0,18.540692 0,18.570947 c 0,0.211784 0.18153,0.211784 0.302549,0.211784 0.24204,0 0.24204,-0.03026 0.363059,-0.453824 0.332804,-1.361471 0.695863,-2.299373 1.300961,-2.299373 0.514334,0 0.514334,0.574844 0.514334,0.786628 0,0.302549 -0.06051,0.665608 -0.151275,0.968158 l -1.452235,5.778687 c -0.03026,0.12102 -0.06051,0.242039 -0.06051,0.272294 0,0.211785 0.151274,0.514333 0.544588,0.514333 0.242039,0 0.574843,-0.121019 0.695863,-0.514333 z m 0,0"
     style="fill:#000000;fill-opacity:1;stroke:none;stroke-width:0"
     inkscape:connector-curvature="0" />
  <path
     id="path2488"
     d="m 18.771182,19.690378 c 0.605098,0 1.875805,-0.06051 2.813707,-0.423568 1.512745,-0.635354 1.512745,-1.875805 1.512745,-2.027079 0,-0.877393 -0.695863,-1.633765 -1.936314,-1.633765 -2.027079,0 -4.780276,1.936314 -4.780276,5.355119 0,1.754784 0.907648,3.388549 2.753197,3.388549 2.480903,0 4.084413,-1.936314 4.084413,-2.208608 0,-0.12102 -0.18153,-0.332804 -0.332804,-0.332804 -0.06051,0 -0.09076,0.03026 -0.242039,0.211784 -1.421981,1.815295 -3.146511,1.90606 -3.479315,1.90606 -1.240451,0 -1.452236,-1.361471 -1.452236,-2.117844 0,-0.726118 0.18153,-1.60351 0.332804,-2.117843 z M 18.135829,19.26681 c 0.847138,-3.176766 2.843962,-3.237276 3.025491,-3.237276 0.756373,0 1.210196,0.514334 1.210196,1.179942 0,2.057334 -3.176765,2.057334 -3.812118,2.057334 z m 0,0"
     style="fill:#000000;fill-opacity:1;stroke:none;stroke-width:0"
     inkscape:connector-curvature="0" />
  <path
     id="path2492"
     d="m 26.661101,19.690378 c 0.605098,0 1.875805,-0.06051 2.813707,-0.423568 1.512745,-0.635354 1.512745,-1.875805 1.512745,-2.027079 0,-0.877393 -0.695863,-1.633765 -1.936314,-1.633765 -2.027079,0 -4.780276,1.936314 -4.780276,5.355119 0,1.754784 0.907648,3.388549 2.753197,3.388549 2.480903,0 4.084413,-1.936314 4.084413,-2.208608 0,-0.12102 -0.18153,-0.332804 -0.332804,-0.332804 -0.06051,0 -0.09077,0.03026 -0.242039,0.211784 -1.421981,1.815295 -3.146511,1.90606 -3.479315,1.90606 -1.240451,0 -1.452236,-1.361471 -1.452236,-2.117844 0,-0.726118 0.18153,-1.60351 0.332804,-2.117843 z M 26.025748,19.26681 c 0.847138,-3.176766 2.843962,-3.237276 3.025491,-3.237276 0.756373,0 1.210196,0.514334 1.210196,1.179942 0,2.057334 -3.176765,2.057334 -3.812118,2.057334 z m 0,0"
     style="fill:#000000;fill-opacity:1;stroke:none;stroke-width:0"
     inkscape:connector-curvature="0" />
  <path
     id="path2494"
     d="m 35.958391,16.422848 h 1.633765 c 0.332804,0 0.544588,0 0.544588,-0.363059 0,-0.242039 -0.181529,-0.242039 -0.484078,-0.242039 h -1.543 l 0.726117,-2.843962 c 0.06051,-0.272294 0.06051,-0.332804 0.06051,-0.423568 0,-0.393314 -0.332804,-0.484079 -0.514333,-0.484079 -0.484079,0 -0.665608,0.393314 -0.756373,0.695863 l -0.756373,3.055746 h -1.633765 c -0.332804,0 -0.544588,0 -0.544588,0.363059 0,0.242039 0.181529,0.242039 0.484078,0.242039 h 1.543001 l -1.391726,5.536649 c -0.03025,0.06051 -0.09076,0.393313 -0.09076,0.665608 0,0.937902 0.635353,1.724529 1.633765,1.724529 1.966569,0 2.934726,-2.874216 2.934726,-2.964981 0,-0.211784 -0.151274,-0.211784 -0.272294,-0.211784 -0.242039,0 -0.242039,0.03026 -0.393314,0.393314 -0.363058,0.907647 -1.119431,2.359883 -2.238863,2.359883 -0.514333,0 -0.514333,-0.484079 -0.514333,-0.786628 0,-0.151275 0,-0.453824 0.151274,-0.998412 z m 0,0"
     style="fill:#000000;fill-opacity:1;stroke:none;stroke-width:0"
     inkscape:connector-curvature="0" />
  <path
     id="path2496"
     d="m 43.728249,21.384653 c 0,-0.211784 -0.151275,-0.211784 -0.272294,-0.211784 -0.272294,0 -0.272294,0.06051 -0.332804,0.332804 -0.151275,0.574843 -0.695863,2.420393 -1.815295,2.420393 -0.151274,0 -0.423569,-0.03026 -0.423569,-0.544589 0,-0.484078 0.272295,-1.149686 0.514334,-1.845549 l 1.240451,-3.297785 c 0.18153,-0.574844 0.211785,-0.726118 0.211785,-1.089177 0,-1.058922 -0.726118,-1.543 -1.421981,-1.543 -1.815295,0 -2.480903,2.874216 -2.480903,2.964981 0,0.211784 0.18153,0.211784 0.302549,0.211784 0.24204,0 0.24204,-0.06051 0.332804,-0.332804 0.18153,-0.635353 0.665608,-2.420393 1.78504,-2.420393 0.211784,0 0.423569,0.09077 0.423569,0.544589 0,0.453823 -0.211785,1.028667 -0.332804,1.391725 l -0.574844,1.603511 c -0.272294,0.635353 -0.484078,1.270706 -0.726117,1.906059 -0.272295,0.726118 -0.332804,0.937902 -0.332804,1.331216 0,0.756373 0.453823,1.543 1.452235,1.543 1.815295,0 2.450648,-2.904471 2.450648,-2.964981 z m -0.09076,-9.258002 c 0,-0.484079 -0.393314,-0.665608 -0.665608,-0.665608 -0.393314,0 -0.907647,0.393314 -0.907647,0.937902 0,0.484079 0.363059,0.635353 0.635353,0.635353 0.393314,0 0.937902,-0.363059 0.937902,-0.907647 z m 0,0"
     style="fill:#000000;fill-opacity:1;stroke:none;stroke-width:0"
     inkscape:connector-curvature="0" />
  <path
     id="path2498"
     d="m 47.708401,20.7493 c 0.09076,-0.423569 0.211784,-0.816882 0.302549,-1.240451 0.242039,-0.998412 0.242039,-0.998412 0.574843,-1.573255 0.272291,-0.453824 1.149691,-1.90606 2.601921,-1.90606 0.84714,0 0.90765,0.877393 0.90765,1.270706 0,1.210197 -0.87739,3.50957 -1.11943,4.265943 -0.2723,0.665608 -0.33281,0.847137 -0.33281,1.240451 0,0.847137 0.54459,1.543 1.48249,1.543 1.78504,0 2.45065,-2.874216 2.45065,-2.964981 0,-0.211784 -0.15127,-0.211784 -0.30255,-0.211784 -0.24204,0 -0.24204,0.06051 -0.3328,0.332804 -0.15128,0.514333 -0.66561,2.420393 -1.78504,2.420393 -0.39332,0 -0.42357,-0.302549 -0.42357,-0.574844 0,-0.453823 0.18153,-0.968157 0.36306,-1.42198 0.36306,-1.028667 1.14969,-3.207021 1.14969,-4.326452 0,-1.573256 -1.05893,-1.996824 -1.99683,-1.996824 -1.57325,0 -2.51116,1.149686 -2.753196,1.512745 -0.151274,-0.937902 -0.786627,-1.512745 -1.633765,-1.512745 -0.695863,0 -1.058922,0.453823 -1.391726,1.028666 -0.363059,0.756373 -0.605098,1.90606 -0.605098,1.936315 0,0.211784 0.18153,0.211784 0.302549,0.211784 0.24204,0 0.24204,-0.03026 0.363059,-0.453824 0.332804,-1.361471 0.695863,-2.299373 1.300961,-2.299373 0.514334,0 0.514334,0.574844 0.514334,0.786628 0,0.302549 -0.06051,0.665608 -0.151275,0.968157 l -1.452235,5.778688 c -0.03026,0.121019 -0.06051,0.242039 -0.06051,0.272294 0,0.211784 0.151274,0.514333 0.544588,0.514333 0.242039,0 0.574843,-0.121019 0.695863,-0.514333 z m 0,0"
     style="fill:#000000;fill-opacity:1;stroke:none;stroke-width:0"
     inkscape:connector-curvature="0" />
  <path
     id="path2500"
     d="m 60.641224,23.109183 -0.42357,1.633765 c -0.21178,0.968157 -0.3328,1.361471 -0.87739,2.027079 -0.78663,0.907647 -1.543,0.907647 -1.84555,0.907647 -0.24204,0 -0.84714,0 -1.36147,-0.211784 0.39331,-0.151275 0.6051,-0.574843 0.6051,-0.907647 0,-0.24204 -0.15128,-0.605098 -0.66561,-0.605098 -0.3328,0 -0.9379,0.272294 -0.9379,1.028666 0,0.756373 0.69586,1.119432 2.32962,1.119432 2.02708,0 3.47932,-1.270706 3.87263,-2.753197 l 2.08759,-8.441119 c 0.0908,-0.302549 0.0908,-0.332804 0.0908,-0.423569 0,-0.393314 -0.33281,-0.484079 -0.54459,-0.484079 -0.21179,0 -0.66561,0.151275 -0.72612,0.695863 -0.27229,-0.544588 -0.81688,-1.089176 -1.63376,-1.089176 -2.1481,0 -4.38697,2.843961 -4.38697,5.566903 0,1.66402 0.90765,2.964981 2.35989,2.964981 0.99841,0 1.81529,-0.786628 2.05733,-1.028667 z m 1.24045,-5.022315 -0.87739,3.50957 c -0.15128,0.605098 -1.33122,2.117843 -2.39014,2.117843 -1.02867,0 -1.05892,-1.48249 -1.05892,-1.694275 0,-0.907647 0.57484,-3.176765 0.96816,-4.084412 0.48408,-1.028667 1.33121,-1.90606 2.08759,-1.90606 1.14968,0 1.33121,1.633765 1.33121,1.78504 z m 0,0"
     style="fill:#000000;fill-opacity:1;stroke:none;stroke-width:0"
     inkscape:connector-curvature="0" />
</svg>
