<?xml version="1.0" encoding="UTF-8"?>
<svg xmlns="http://www.w3.org/2000/svg" xmlns:xlink="http://www.w3.org/1999/xlink" width="59.295406pt" height="220.435425pt" viewBox="0 0 59.295406 220.435425" version="1.1">
<defs>
<clipPath id="clip1">
  <path d="M 0 0 L 59.296875 0 L 59.296875 220.433594 L 0 220.433594 Z M 0 0 "/>
</clipPath>
</defs>
<g id="surface1">
<g clip-path="url(#clip1)" clip-rule="nonzero">
<path style=" stroke:none;fill-rule:nonzero;fill:rgb(0%,0%,1.568604%);fill-opacity:1;" d="M 28.832031 0 L 28.796875 6.449219 L 27.433594 7.671875 L 27.4375 11.648438 L 26.617188 12.597656 L 26.617188 17.203125 L 27.476563 17.773438 L 27.476563 20.902344 L 26.617188 22.433594 L 26.753906 27.480469 L 25.566406 27.71875 L 25.566406 29.25 L 26.617188 29.417969 L 26.4375 51.636719 L 25.191406 52.070313 L 25.191406 53.355469 L 26.4375 53.792969 L 26.4375 55.84375 L 25.191406 56.160156 L 25.191406 57.328125 L 26.4375 57.648438 L 26.4375 61.347656 L 24.945313 62.136719 L 24.945313 63.601563 L 25.871094 64.152344 L 25.871094 70.757813 L 24.609375 71.046875 L 24.5 72.011719 L 23.191406 72.296875 L 23.191406 74.933594 L 24.117188 75.636719 L 24.238281 82.976563 L 22.753906 88.625 L 20.929688 89.101563 L 21.042969 111.320313 L 19.257813 112 L 19.257813 116.644531 L 20.753906 117.074219 L 20.753906 124.265625 C 13.5 137.785156 6.621094 152.355469 4.933594 171.441406 L 3.082031 171.714844 L 2.808594 175.042969 L 4.117188 175.59375 L 3.835938 183.589844 L 0 187.644531 L 0.246094 188.839844 L 2.085938 188.785156 L 2.085938 220.433594 L 57.210938 220.433594 L 57.210938 188.785156 L 59.046875 188.839844 L 59.296875 187.644531 L 55.457031 183.589844 L 55.179688 175.59375 L 56.484375 175.042969 L 56.214844 171.714844 L 54.363281 171.441406 C 52.671875 152.355469 45.796875 137.785156 38.539063 124.265625 L 38.539063 117.074219 L 40.039063 116.644531 L 40.039063 112 L 38.25 111.320313 L 38.363281 89.101563 L 36.539063 88.625 L 35.058594 82.976563 L 35.175781 75.636719 L 36.101563 74.933594 L 36.101563 72.296875 L 34.792969 72.011719 L 34.683594 71.046875 L 33.421875 70.757813 L 33.421875 64.152344 L 34.347656 63.601563 L 34.347656 62.136719 L 32.855469 61.347656 L 32.855469 57.648438 L 34.105469 57.328125 L 34.105469 56.160156 L 32.855469 55.84375 L 32.855469 53.792969 L 34.105469 53.355469 L 34.105469 52.070313 L 32.855469 51.636719 L 32.679688 29.417969 L 33.730469 29.25 L 33.730469 27.71875 L 32.539063 27.480469 L 32.679688 22.433594 L 31.820313 20.902344 L 31.820313 17.773438 L 32.679688 17.203125 L 32.679688 12.597656 L 31.859375 11.648438 L 31.859375 7.671875 L 30.5 6.449219 L 30.464844 0 Z M 28.832031 0 "/>
</g>
</g>
</svg>
