<?xml version="1.0" encoding="UTF-8" standalone="no"?>
<!-- Created with Inkscape (http://www.inkscape.org/) -->

<svg
   xmlns:dc="http://purl.org/dc/elements/1.1/"
   xmlns:cc="http://creativecommons.org/ns#"
   xmlns:rdf="http://www.w3.org/1999/02/22-rdf-syntax-ns#"
   xmlns:svg="http://www.w3.org/2000/svg"
   xmlns="http://www.w3.org/2000/svg"
   xmlns:sodipodi="http://sodipodi.sourceforge.net/DTD/sodipodi-0.dtd"
   xmlns:inkscape="http://www.inkscape.org/namespaces/inkscape"
   width="20.918102mm"
   height="77.764717mm"
   viewBox="0 0 20.918102 77.764717"
   version="1.1"
   id="svg895"
   inkscape:version="0.92.4 (5da689c313, 2019-01-14)"
   sodipodi:docname="Mole_silhouette.svg">
  <defs
     id="defs889" />
  <sodipodi:namedview
     id="base"
     pagecolor="#ffffff"
     bordercolor="#666666"
     borderopacity="1.0"
     inkscape:pageopacity="0.0"
     inkscape:pageshadow="2"
     inkscape:zoom="0.35"
     inkscape:cx="263.81603"
     inkscape:cy="358.38541"
     inkscape:document-units="mm"
     inkscape:current-layer="layer1"
     showgrid="false"
     fit-margin-top="0"
     fit-margin-left="0"
     fit-margin-right="0"
     fit-margin-bottom="0"
     inkscape:window-width="1280"
     inkscape:window-height="697"
     inkscape:window-x="-8"
     inkscape:window-y="-8"
     inkscape:window-maximized="1" />
  <metadata
     id="metadata892">
    <rdf:RDF>
      <cc:Work
         rdf:about="">
        <dc:format>image/svg+xml</dc:format>
        <dc:type
           rdf:resource="http://purl.org/dc/dcmitype/StillImage" />
        <dc:title></dc:title>
      </cc:Work>
    </rdf:RDF>
  </metadata>
  <g
     inkscape:label="Layer 1"
     inkscape:groupmode="layer"
     id="layer1"
     transform="translate(92.857872,-165.89142)">
    <path
       inkscape:connector-curvature="0"
       id="path2472"
       d="m -82.686924,165.89143 -0.01241,2.2748 -0.480074,0.43201 0.0011,1.40198 -0.289388,0.3359 v 1.6247 l 0.302307,0.19999 v 1.10433 l -0.302307,0.54002 0.04858,1.78076 -0.420129,0.0842 v 0.54002 l 0.371552,0.0599 -0.06304,7.83725 -0.440799,0.15348 v 0.4532 l 0.440799,0.154 v 0.72399 l -0.440799,0.11213 v 0.41186 l 0.440799,0.11214 v 1.30587 l -0.52663,0.27751 v 0.51779 l 0.326594,0.19327 v 2.33061 l -0.444934,0.10232 -0.03876,0.34003 -0.46147,0.10025 v 0.93018 l 0.326594,0.24856 0.04186,2.58951 -0.52348,1.99264 -0.643372,0.16795 0.03979,7.8388 -0.629936,0.23978 v 1.63814 l 0.528651,0.1509 v 2.53731 c -2.559765,4.76943 -4.986039,9.90979 -5.5821,16.64291 l -0.652675,0.0961 -0.09612,1.17408 0.460954,0.19483 -0.0987,2.8205 -1.353405,1.4304 0.08681,0.4222 0.648538,-0.0196 v 11.16521 h 19.446882 v -11.16523 l 0.648542,0.0196 0.08733,-0.42219 -1.353405,-1.43041 -0.0987,-2.8205 0.460955,-0.19482 -0.09612,-1.17409 -0.652674,-0.0961 c -0.596062,-6.73311 -3.022336,-11.87347 -5.582087,-16.6429 v -2.53731 l 0.528648,-0.1509 v -1.63814 l -0.630452,-0.23978 0.03979,-7.8388 -0.643371,-0.16794 -0.522965,-1.99265 0.04186,-2.5895 0.326078,-0.24857 v -0.93017 l -0.460952,-0.10026 -0.03876,-0.34002 -0.444934,-0.10232 v -2.33061 l 0.326597,-0.19327 v -0.5178 l -0.526585,-0.2775 v -1.30587 l 0.440801,-0.11213 v -0.41186 l -0.440801,-0.11214 v -0.72399 l 0.440801,-0.154 v -0.4532 l -0.440801,-0.15347 -0.06304,-7.83725 0.371555,-0.0599 v -0.54002 l -0.42013,-0.0842 0.04857,-1.78077 -0.302307,-0.54002 v -1.10433 l 0.302307,-0.19999 v -1.62471 l -0.289389,-0.33589 5.29e-4,-1.40199 -0.480073,-0.43201 -0.01188,-2.2748 z"
       style="fill:#000004;fill-opacity:1;stroke:none;stroke-width:0.15910277;stroke-linecap:butt;stroke-linejoin:round;stroke-miterlimit:4;stroke-dasharray:none;stroke-opacity:1" />
  </g>
</svg>
